<svg xmlns="http://www.w3.org/2000/svg" width="24" height="24" viewBox="0 0 24 24"><path fill="#3E4042" fill-rule="evenodd" d="M16.9999989,10.9999995 C16.9999989,8.23857601 14.7614229,6 11.9999995,6 C9.23857601,6 7,8.23857601 7,10.9999995 L7,16.9999989 L16.9999989,16.9999989 L16.9999989,10.9999995 Z M10.5,4.16108966 L10.5,3.5 C10.5,2.67157288 11.1715729,2 12,2 C12.8284271,2 13.5,2.67157288 13.5,3.5 L13.5,4.1610899 C16.6451814,4.84776031 18.9999989,7.64888134 18.9999989,10.9999995 L18.9999989,16.5 L19.9999988,16.9999989 L19.9999988,18.9999989 L3.99999976,18.9999989 L3.99999976,16.9999989 L5,16.5 L5,10.9999995 C5,7.64888095 7.35481802,4.84775967 10.5,4.16108966 Z M10,20 L14,20 C14,21.1045695 13.1045695,22 12,22 C10.8954305,22 10,21.1045695 10,20 Z"/></svg>