<svg width="24" height="24" viewBox="0 0 24 24" fill="none" xmlns="http://www.w3.org/2000/svg">
<path fill-rule="evenodd" clip-rule="evenodd" d="M21 20.5L19.5 22L16.5 19H4V17L5 16.5V11C5 9.97286 5.22123 8.99739 5.61863 8.11863L2.5 5L4 3.5L21 20.5ZM7.17692 9.67692C7.06158 10.0983 7 10.542 7 11V17H14.5L7.17692 9.67692Z" fill="#3E4042"/>
<path d="M8.45987 4.95987L9.94188 6.44188C10.5696 6.15802 11.2663 6 12 6C14.7614 6 17 8.23858 17 11V13.5L19 15.5V11C19 7.64888 16.6452 4.84776 13.5 4.16109V3.5C13.5 2.67157 12.8284 2 12 2C11.1716 2 10.5 2.67157 10.5 3.5V4.16109C9.771 4.32025 9.08446 4.593 8.45987 4.95987Z" fill="#3E4042"/>
<path d="M14 20C14 21.1046 13.1046 22 12 22C10.8954 22 10 21.1046 10 20H14Z" fill="#3E4042"/>
</svg>
