<svg xmlns="http://www.w3.org/2000/svg" width="36" height="36" viewBox="0 0 36 36">
  <path fill="#3E4042" fill-rule="evenodd" d="M19 7C19 7.55228475 18.5522847 8 18 8 17.4477153 8 17 7.55228475 17 7L17 3C17 2.44771525 17.4477153 2 18 2 18.5522847 2 19 2.44771525 19 3L19 7zM26.4852814 10.9289322C26.0947571 11.3194565 25.4615921 11.3194565 25.0710678 10.9289322 24.6805435 10.5384079 24.6805435 9.90524292 25.0710678 9.51471863L27.8994949 6.6862915C28.2900192 6.29576721 28.9231842 6.29576721 29.3137085 6.6862915 29.7042328 7.07681579 29.7042328 7.70998077 29.3137085 8.10050506L26.4852814 10.9289322zM29 19C28.4477153 19 28 18.5522847 28 18 28 17.4477153 28.4477153 17 29 17L33 17C33.5522847 17 34 17.4477153 34 18 34 18.5522847 33.5522847 19 33 19L29 19zM25.0710678 26.4852814C24.6805435 26.0947571 24.6805435 25.4615921 25.0710678 25.0710678 25.4615921 24.6805435 26.0947571 24.6805435 26.4852814 25.0710678L29.3137085 27.8994949C29.7042328 28.2900192 29.7042328 28.9231842 29.3137085 29.3137085 28.9231842 29.7042328 28.2900192 29.7042328 27.8994949 29.3137085L25.0710678 26.4852814zM17 29C17 28.4477153 17.4477153 28 18 28 18.5522847 28 19 28.4477153 19 29L19 33C19 33.5522847 18.5522847 34 18 34 17.4477153 34 17 33.5522847 17 33L17 29zM9.51471863 25.0710678C9.90524292 24.6805435 10.5384079 24.6805435 10.9289322 25.0710678 11.3194565 25.4615921 11.3194565 26.0947571 10.9289322 26.4852814L8.10050506 29.3137085C7.70998077 29.7042328 7.07681579 29.7042328 6.6862915 29.3137085 6.29576721 28.9231842 6.29576721 28.2900192 6.6862915 27.8994949L9.51471863 25.0710678zM7 17C7.55228475 17 8 17.4477153 8 18 8 18.5522847 7.55228475 19 7 19L3 19C2.44771525 19 2 18.5522847 2 18 2 17.4477153 2.44771525 17 3 17L7 17zM10.9289322 9.51471863C11.3194565 9.90524292 11.3194565 10.5384079 10.9289322 10.9289322 10.5384079 11.3194565 9.90524292 11.3194565 9.51471863 10.9289322L6.6862915 8.10050506C6.29576721 7.70998077 6.29576721 7.07681579 6.6862915 6.6862915 7.07681579 6.29576721 7.70998077 6.29576721 8.10050506 6.6862915L10.9289322 9.51471863zM18 26C13.581722 26 10 22.418278 10 18 10 13.581722 13.581722 10 18 10 22.418278 10 26 13.581722 26 18 26 22.418278 22.418278 26 18 26zM18 24C21.3137085 24 24 21.3137085 24 18 24 14.6862915 21.3137085 12 18 12 14.6862915 12 12 14.6862915 12 18 12 21.3137085 14.6862915 24 18 24z"/>
</svg>
