<svg width="20" height="20" viewBox="0 0 20 20" fill="none" xmlns="http://www.w3.org/2000/svg">
<path fill-rule="evenodd" clip-rule="evenodd" d="M2.49992 2.50002V14.7917C2.49992 14.9067 2.59319 15 2.70825 15H16.4117C16.5094 15 16.5939 14.9322 16.6151 14.8368L19.1104 3.5868C19.1392 3.45671 19.0402 3.33335 18.907 3.33335H4.58325V0.625021C4.58325 0.509961 4.48998 0.416687 4.37492 0.416687H1.04159C0.926526 0.416687 0.833252 0.509961 0.833252 0.62502V2.29169C0.833252 2.40675 0.926526 2.50002 1.04159 2.50002H2.49992ZM16.5705 5.41669L14.907 12.9167H4.58325V5.41669H16.5705Z" fill="black"/>
<path d="M3.33325 17.5C3.33325 18.4205 4.07944 19.1667 4.99992 19.1667C5.92039 19.1667 6.66658 18.4205 6.66658 17.5C6.66658 16.5795 5.92039 15.8334 4.99992 15.8334C4.07944 15.8334 3.33325 16.5795 3.33325 17.5Z" fill="black"/>
<path d="M13.3333 19.1667C12.4128 19.1667 11.6666 18.4205 11.6666 17.5C11.6666 16.5795 12.4128 15.8334 13.3333 15.8334C14.2537 15.8334 14.9999 16.5795 14.9999 17.5C14.9999 18.4205 14.2537 19.1667 13.3333 19.1667Z" fill="black"/>
</svg>
