<svg width="24" height="24" viewBox="0 0 24 24" fill="none" xmlns="http://www.w3.org/2000/svg">
<path d="M20 5.5V4.00001L17.2031 4C16.7813 4 16.4048 4.26469 16.2621 4.66163L15.7066 6.20656L17.125 7.625L18 5.5H20Z" fill="#3E4042"/>
<path d="M9.32944 2.50584C8.91356 2.13575 8.36039 1.95454 7.8029 2.00974C7.20663 2.06879 6.66824 2.39206 6.33587 2.89061L2.33587 8.89061C1.80704 9.68386 1.91163 10.7401 2.58576 11.4142L3.06861 11.8971L9.32944 2.50584Z" fill="#3E4042"/>
<path fill-rule="evenodd" clip-rule="evenodd" d="M10.1162 4.85517C10.4801 4.39323 11.1629 4.35414 11.5827 4.76585C11.8974 5.07444 12.2291 5.40062 12.4142 5.58579L18 11.1716L19.2621 7.66163C19.4049 7.26469 19.7813 7 20.2031 7H22V16C22 16.5304 21.7893 17.0391 21.4142 17.4142L16.4142 22.4142C15.6332 23.1953 14.3668 23.1953 13.5858 22.4142L5.58579 14.4142C4.91166 13.7401 4.80707 12.6838 5.3359 11.8906L9.3359 5.8906C9.48915 5.66073 9.81234 5.24091 10.1162 4.85517Z" fill="#3E4042"/>
</svg>
