<svg xmlns="http://www.w3.org/2000/svg" width="24" height="24" fill="#1B1C1D"  xmlns:v="https://vecta.io/nano"><path fill-rule="evenodd" d="M10.126 5.855c.364-.462 1.047-.501 1.467-.089l.832.82 5.586 5.586 1.262-3.51A1 1 0 0 1 20.213 8h1.797v7a2 2 0 0 1-.586 1.414l-6 6a2 2 0 0 1-2.828 0l-7-7a2 2 0 0 1-.25-2.524l4-6c.153-.23.476-.65.78-1.035z"/><path d="M20.033 6.996V6h-2.307a1 1 0 0 0-.941.662l-.776 1.725 1.418 1.418.835-2.167a1 1 0 0 1 .93-.64l.84-.002zM7.369 5.492L7.81 6l-4.145 6.256a3 3 0 0 0 .379 3.778L9.51 21.5a2.12 2.12 0 0 1-3 0l-4.191-4.191a4.5 4.5 0 0 1-.562-5.678l4.026-6.038a1 1 0 0 1 1.588-.1zM8 .5L8.5 4 6 2 8 .5zm2 0V4l2-3-2-.5zM13.5 2l-2 2.5 3-.5-1-2z"/></svg>