<svg width="24" height="24" viewBox="0 0 24 24" fill="none" xmlns="http://www.w3.org/2000/svg">
<path fill-rule="evenodd" clip-rule="evenodd" d="M10.4147 4.00364C10.7086 3.97849 10.9986 4.08435 11.2071 4.29289L16.5054 9.59116L16.624 9.17584C16.992 7.88793 18.1692 7 19.5086 7H22V15C22 15.7957 21.684 16.5587 21.1213 17.1213L16.1213 22.1213C14.9512 23.2915 13.0548 23.2929 11.8829 22.1255L4.40907 14.8103C3.7076 14.1237 3.60805 13.0295 4.17411 12.2276L9.68303 4.42332C9.85311 4.18237 10.1209 4.02879 10.4147 4.00364ZM10.6323 6.54656L5.80804 13.381L13.293 20.7071C13.6835 21.0976 14.3166 21.0977 14.7071 20.7071L19.7071 15.7071C19.8947 15.5196 20 15.2652 20 15V9H19.5086C19.0621 9 18.6697 9.29598 18.5471 9.72528L17.9615 11.7747L16.2929 12.2071L10.6323 6.54656Z" fill="#3E4042"/>
<path d="M18.5 5.5V4.00001L15.7031 4C15.2813 4 14.9048 4.26469 14.7621 4.66163L14.5 5.5L15.9184 6.91844L16.5 5.5H18.5Z" fill="#3E4042"/>
<path d="M8.8295 2.00584C8.41362 1.63575 7.86045 1.45454 7.30296 1.50974C6.70669 1.56879 6.1683 1.89206 5.83593 2.39061L0.835933 9.39061C0.307103 10.1839 0.411691 11.2401 1.08582 11.9142L1.56867 12.3971L8.8295 2.00584Z" fill="#3E4042"/>
</svg>
