<svg xmlns="http://www.w3.org/2000/svg" width="24" height="24" fill="none" viewBox="0 0 24 24"><path fill="#3E4042" d="M17 18L17 16L17 11C17 8.6 15 8 14 8C12.0999 8 11 9.5 11 11L11 17C11 17.5523 11.4477 18 12 18C12.5523 18 13 17.5523 13 17L13 11C13 10.75 13.1535 10 14 10C14.8465 10 15 10.75 15 11L15 16L15 18C15 19.6569 13.6569 21 12 21C10.3431 21 9 19.6569 9 18L9 9L9 6C9 5 9.23413 3 12 3C14.716 3 15 5 15 6C15 6 15 7 16 7C17 7 17 6 17 6C17 4.5 16.4 1 12 1C7.6 1 7 4.33333 7 6L7 9L7 18C7 20.7614 9.23857 23 12 23C14.7614 23 17 20.7614 17 18Z"/></svg>