<svg xmlns="http://www.w3.org/2000/svg" width="24" height="24" fill="none"><path fill-rule="evenodd" d="M17.293 4.707c-.99-.99-2.596-.99-3.586 0l-7.75 7.75c-1.681 1.681-1.681 4.405 0 6.086s4.405 1.681 6.086 0l8.25-8.25 1.414 1.414-8.25 8.25c-2.462 2.462-6.453 2.462-8.914 0s-2.462-6.453 0-8.914l7.75-7.75c1.771-1.771 4.643-1.771 6.414 0s1.771 4.643 0 6.414l-7.25 7.25a2.77 2.77 0 0 1-3.914 0 2.77 2.77 0 0 1 0-3.914l6.75-6.75 1.414 1.414-6.75 6.75a.77.77 0 0 0 0 1.086.77.77 0 0 0 1.086 0l7.25-7.25c.99-.99.99-2.596 0-3.586z" fill="#1B1C1D"/></svg>