<svg width="24" height="24" viewBox="0 0 24 24" fill="none" xmlns="http://www.w3.org/2000/svg">
<path fill-rule="evenodd" clip-rule="evenodd" d="M17 15.59L15.59 17L12 13.41L8.41 17L7 15.59L10.59 12L7 8.41L8.41 7L12 10.59L15.59 7L17 8.41L13.41 12L17 15.59Z" fill="#1B1C1D"/>
<path fill-rule="evenodd" clip-rule="evenodd" d="M1 12C1 5.91772 5.91772 1 12 1C18.0823 1 23 5.91772 23 12C23 18.0823 18.0823 23 12 23C5.91771 23 1 18.0823 1 12ZM12 3C7.02228 3 3 7.02228 3 12C3 16.9777 7.02228 21 12 21C16.9777 21 21 16.9777 21 12C21 7.02229 16.9777 3 12 3Z" fill="#1B1C1D"/>
</svg>
