<svg xmlns="http://www.w3.org/2000/svg" width="24" height="24" viewBox="0 0 24 24">
  <path fill="#3E4042" fill-rule="evenodd" d="M10.6492423,13.3507577 L14.2512629,14.2512629 L13.3507577,10.6492423 L10.6492423,13.3507577 Z M12,22 C6.4771525,22 2,17.5228475 2,12 C2,6.4771525 6.4771525,2 12,2 C17.5228475,2 22,6.4771525 22,12 C22,17.5228475 17.5228475,22 12,22 Z M12,20 C16.418278,20 20,16.418278 20,12 C20,7.581722 16.418278,4 12,4 C7.581722,4 4,7.581722 4,12 C4,16.418278 7.581722,20 12,20 Z M16.595774,15.8681671 C16.4618252,16.403962 15.9188907,16.7297227 15.3830958,16.595774 L9,15 L7.40422604,8.61690417 C7.36441604,8.45766417 7.36441604,8.29107292 7.40422604,8.13183292 C7.53817477,7.59603801 8.08110926,7.27027731 8.61690417,7.40422604 L15,9 L16.595774,15.3830958 C16.635584,15.5423358 16.635584,15.7089271 16.595774,15.8681671 Z"/>
</svg>
