<svg xmlns="http://www.w3.org/2000/svg" width="32" height="32" viewBox="0 0 32 32">
  <path fill="#3E4042" fill-rule="evenodd" d="M25.1679497,16.5547002 L24,14.8027756 L22.8320503,16.5547002 C22.5256978,17.0142289 21.9048285,17.1384028 21.4452998,16.8320503 C20.9857711,16.5256978 20.8615972,15.9048285 21.1679497,15.4452998 L23.1679497,12.4452998 C23.5637718,11.8515667 24.4362282,11.8515667 24.8320503,12.4452998 L26,14.1972244 L27.1679497,12.4452998 C27.4743022,11.9857711 28.0951715,11.8615972 28.5547002,12.1679497 C29.0142289,12.4743022 29.1384028,13.0951715 28.8320503,13.5547002 L26.8320503,16.5547002 C26.4362282,17.1484333 25.5637718,17.1484333 25.1679497,16.5547002 Z M16,9 L16,12 C16,12.5522847 15.5522847,13 15,13 C14.4477153,13 14,12.5522847 14,12 L14,8 C14,7.44771525 14.4477153,7 15,7 L18,7 L18,4 C18,3.44771525 18.4477153,3 19,3 C19.5522847,3 20,3.44771525 20,4 L20,8 C20,8.55228475 19.5522847,9 19,9 L16,9 Z M28,24 C26.8954305,24 26,23.1045695 26,22 C26,20.8954305 26.8954305,20 28,20 C29.1045695,20 30,20.8954305 30,22 C30,23.1045695 29.1045695,24 28,24 Z M25,8 C24.4477153,8 24,7.55228475 24,7 C24,6.44771525 24.4477153,6 25,6 C25.5522847,6 26,6.44771525 26,7 C26,7.55228475 25.5522847,8 25,8 Z M8,8 C6.8954305,8 6,7.1045695 6,6 C6,4.8954305 6.8954305,4 8,4 C9.1045695,4 10,4.8954305 10,6 C10,7.1045695 9.1045695,8 8,8 Z M9.70710678,12.2928932 L19.7071068,22.2928932 C20.2213776,22.807164 20.0321051,23.6809611 19.3511234,23.9363292 L3.35112344,29.9363292 C2.54723706,30.2377866 1.76221343,29.4527629 2.06367082,28.6488766 L8.06367082,12.6488766 C8.31903893,11.9678949 9.19283601,11.7786224 9.70710678,12.2928932 Z"/>
</svg>
