<svg width="24" height="24" viewBox="0 0 24 24" fill="none" xmlns="http://www.w3.org/2000/svg">
<path fill-rule="evenodd" clip-rule="evenodd" d="M20.5 18C19.6716 18 19 17.3284 19 16.5C19 15.6716 19.6716 15 20.5 15C21.3284 15 22 15.6716 22 16.5C22 17.3284 21.3284 18 20.5 18ZM19 6C18.4477 6 18 5.55228 18 5C18 4.44772 18.4477 4 19 4C19.5523 4 20 4.44772 20 5C20 5.55228 19.5523 6 19 6ZM6.50001 6C5.67158 6 5.00001 5.32843 5.00001 4.5C5.00001 3.67157 5.67158 3 6.50001 3C7.32844 3 8.00001 3.67157 8.00001 4.5C8.00001 5.32843 7.32844 6 6.50001 6ZM3.38463 21.9231C2.56039 22.2665 1.7335 21.4396 2.07693 20.6154L7.07693 8.61539C7.3507 7.95835 8.20381 7.78959 8.70712 8.29289L15.7071 15.2929C16.2104 15.7962 16.0417 16.6493 15.3846 16.9231L3.38463 21.9231ZM16.7071 12.7071C16.3166 13.0976 15.6834 13.0976 15.2929 12.7071C14.9024 12.3166 14.9024 11.6834 15.2929 11.2929L17.2929 9.29289C17.7755 8.81025 18.5892 8.94229 18.8944 9.55279L19.274 10.3118L20.2929 9.29289C20.6834 8.90237 21.3166 8.90237 21.7071 9.29289C22.0976 9.68342 22.0976 10.3166 21.7071 10.7071L19.7071 12.7071C19.2245 13.1897 18.4108 13.0577 18.1056 12.4472L17.7261 11.6882L16.7071 12.7071ZM13 7V9C13 9.55228 12.5523 10 12 10C11.4477 10 11 9.55228 11 9V6C11 5.44772 11.4477 5 12 5H13V3C13 2.44772 13.4477 2 14 2C14.5523 2 15 2.44772 15 3V6C15 6.55228 14.5523 7 14 7H13Z" fill="#3E4042"/>
</svg>
