<svg xmlns="http://www.w3.org/2000/svg" width="24" height="24" viewBox="0 0 24 24">
  <path fill="#3E4042" fill-rule="evenodd" d="M4.88888889,2 L19.1111111,2 C19.6020309,2 20,2.40701386 20,2.90909091 L20,21.0909091 C20,21.5929861 19.6020309,22 19.1111111,22 L4.88888889,22 C4.39796911,22 4,21.5929861 4,21.0909091 L4,2.90909091 C4,2.40701386 4.39796911,2 4.88888889,2 Z M6,4 L6,9.9999997 L17.9999997,9.9999997 L17.9999997,4 L6,4 Z M6,12 L6,14 L17.9999997,14 L17.9999997,12 L6,12 Z M6,16 L6,18 L15.9999997,18 L15.9999997,16 L6,16 Z"/>
</svg>
