<svg xmlns="http://www.w3.org/2000/svg" width="24" height="24" viewBox="0 0 24 24">
  <path fill="#3E4042" fill-rule="evenodd" d="M16.5857864,15 L15.2928932,13.7071068 C14.9023689,13.3165825 14.9023689,12.6834175 15.2928932,12.2928932 C15.6834175,11.9023689 16.3165825,11.9023689 16.7071068,12.2928932 L18,13.5857864 L21.0857864,10.5 L19.2650666,8.67928019 C18.2165397,9.02340715 17.0267904,8.76943104 16.2071068,7.94974747 C15.3874232,7.13006389 15.1334471,5.94031458 15.4775741,4.89178763 L13.5,2.91421356 L10.4142136,6 L11.7071068,7.29289322 C12.0976311,7.68341751 12.0976311,8.31658249 11.7071068,8.70710678 C11.3165825,9.09763107 10.6834175,9.09763107 10.2928932,8.70710678 L9,7.41421356 L2.91421356,13.5 L4.89178763,15.4775741 C5.94031458,15.1334471 7.13006389,15.3874232 7.94974747,16.2071068 C8.76943104,17.0267904 9.02340715,18.2165397 8.67928019,19.2650666 L10.5,21.0857864 L16.5857864,15 Z M3.97913471,17.3933483 L1.5,14.9142136 C0.718951416,14.133165 0.718951416,12.866835 1.5,12.0857864 L12.0857864,1.5 C12.866835,0.718951416 14.133165,0.718951416 14.9142136,1.5 L17.3933483,3.97913471 C17.7359734,4.32175983 17.7836654,4.86072561 17.5065295,5.25819215 C17.2323381,5.65143577 17.2774884,6.19170195 17.6213203,6.53553391 C17.9651523,6.87936586 18.5054185,6.92451616 18.8986621,6.65032473 C19.2961286,6.37318885 19.8350944,6.42088086 20.1777195,6.76350598 L22.5,9.08578644 C23.2810486,9.86683502 23.2810486,11.133165 22.5,11.9142136 L11.9142136,22.5 C11.133165,23.2810486 9.86683502,23.2810486 9.08578644,22.5 L6.76350598,20.1777195 C6.42088086,19.8350944 6.37318885,19.2961286 6.65032473,18.8986621 C6.92451616,18.5054185 6.87936586,17.9651523 6.53553391,17.6213203 C6.19170195,17.2774884 5.65143577,17.2323381 5.25819215,17.5065295 C4.86072561,17.7836654 4.32175983,17.7359734 3.97913471,17.3933483 Z M12.2928932,10.7071068 C11.9023689,10.3165825 11.9023689,9.68341751 12.2928932,9.29289322 C12.6834175,8.90236893 13.3165825,8.90236893 13.7071068,9.29289322 L14.7071068,10.2928932 C15.0976311,10.6834175 15.0976311,11.3165825 14.7071068,11.7071068 C14.3165825,12.0976311 13.6834175,12.0976311 13.2928932,11.7071068 L12.2928932,10.7071068 Z"/>
</svg>
