<svg xmlns="http://www.w3.org/2000/svg" width="24" height="24" viewBox="0 0 24 24"><path fill="#3E4042" fill-rule="evenodd" d="M15,18 L20,18 L20,14.8292943 C18.8348076,14.4174579 18,13.3062188 18,12 C18,10.6937812 18.8348076,9.58254212 20,9.17070571 L20,6 L15,6 L15,7 C15,7.55228475 14.5522847,8 14,8 C13.4477153,8 13,7.55228475 13,7 L13,6 L4,6 L4,9.17070571 C5.16519237,9.58254212 6,10.6937812 6,12 C6,13.3062188 5.16519237,14.4174579 4,14.8292943 L4,18 L13,18 L13,17 C13,16.4477153 13.4477153,16 14,16 C14.5522847,16 15,16.4477153 15,17 L15,18 Z M2,10 L2,5 C2,4.44771525 2.44771525,4 3,4 L21,4 C21.5522847,4 22,4.44771525 22,5 L22,10 C22,10.5522847 21.5522847,11 21,11 C20.4477153,11 20,11.4477153 20,12 C20,12.5522847 20.4477153,13 21,13 C21.5522847,13 22,13.4477153 22,14 L22,19 C22,19.5522847 21.5522847,20 21,20 L3,20 C2.44771525,20 2,19.5522847 2,19 L2,14 C2,13.4477153 2.44771525,13 3,13 C3.55228475,13 4,12.5522847 4,12 C4,11.4477153 3.55228475,11 3,11 C2.44771525,11 2,10.5522847 2,10 Z M14,10 C14.5522847,10 15,10.4477153 15,11 L15,13 C15,13.5522847 14.5522847,14 14,14 C13.4477153,14 13,13.5522847 13,13 L13,11 C13,10.4477153 13.4477153,10 14,10 Z"/></svg>