<svg xmlns="http://www.w3.org/2000/svg" width="24" height="24" viewBox="0 0 24 24">
  <g fill="none" fill-rule="evenodd">
    <path fill="#3E4042" d="M3.99999988,11.9999996 L3.99999988,17.9999988 L19.9999987,17.9999988 L19.9999987,11.9999996 L3.99999988,11.9999996 Z M3.99999988,7.99999958 L19.9999987,7.99999958 L19.9999987,5.99999976 L3.99999988,5.99999976 L3.99999988,7.99999958 Z M2.99999982,3.99999976 L20.9999987,3.99999976 C21.6666647,3.99999976 21.9999987,4.33333323 21.9999987,4.9999997 L21.9999987,18.9999989 C21.9999987,19.6666648 21.6666647,19.9999988 20.9999987,19.9999988 L2.99999982,19.9999988 C2.33333311,19.9999988 1.99999988,19.6666648 1.99999988,18.9999989 L1.99999988,4.9999997 C1.99999988,4.33333323 2.33333311,3.99999976 2.99999982,3.99999976 Z"/>
    <polygon fill="#3E4042" points="6 14 10 14 10 16 6 16"/>
  </g>
</svg>
