<svg xmlns="http://www.w3.org/2000/svg" width="24" height="24" viewBox="0 0 24 24"><path fill="#3E4042" fill-rule="evenodd" d="M5.99999964,5.99999964 L5.99999964,2.99999982 C5.99999964,2.44771513 6.44771489,1.99999988 6.99999958,1.99999988 C7.55228426,1.99999988 7.99999952,2.44771513 7.99999952,2.99999982 L7.99999952,5.99999964 L16.999999,5.99999964 C17.5522831,5.99999964 17.9999989,6.44771489 17.9999989,6.99999958 L17.9999989,16.0016886 L20.9995104,15.999999 C21.5517946,15.9997291 21.9997297,16.4472264 21.9999987,16.9995107 C22.0002676,17.5517948 21.5527712,17.9997299 21.0004869,17.9999989 L7.00048786,18.0078094 C6.44801243,18.0080784 5.99999964,17.5602844 5.99999964,17.0078095 L5.99999964,8.99999946 L7.99999952,8.99999946 L7.99999952,16.0073213 L15.999999,16.0028151 L15.999999,7.99999952 L2.99999982,7.99999952 C2.44771513,7.99999952 1.99999988,7.55228426 1.99999988,6.99999958 C1.99999988,6.44771489 2.44771513,5.99999964 2.99999982,5.99999964 L5.99999964,5.99999964 Z M17.9999989,20.9999987 C17.9999989,21.5522829 17.5522831,21.9999987 16.999999,21.9999987 C16.4477147,21.9999987 15.999999,21.5522829 15.999999,20.9999987 L15.999999,18.9999989 L17.9999989,18.9999989 L17.9999989,20.9999987 Z"/></svg>