<svg xmlns="http://www.w3.org/2000/svg" width="24" height="24" viewBox="0 0 24 24"><path fill="#3E4042" fill-rule="evenodd" d="M21,13 L22.6893661,19.7574644 C22.8233148,20.2932593 22.4975541,20.8361938 21.9617592,20.9701425 C21.8824386,20.9899727 21.8009854,21 21.7192236,21 L2.28077641,21 C1.72849166,21 1.28077641,20.5522847 1.28077641,20 C1.28077641,19.9182382 1.29080376,19.836785 1.31063391,19.7574644 L3,13 L3,4 C3,3.44771525 3.44771525,3 4,3 L20,3 C20.5522847,3 21,3.44771525 21,4 L21,13 Z M19,13 L19,5 L5,5 L5,13 L19,13 Z M4.56155281,15 L3.56155281,19 L20.4384472,19 L19.4384472,15 L4.56155281,15 Z M6.99999982,6.99999958 L16.9999998,6.99999958 L16.9999998,8.99999958 L6.99999982,8.99999958 L6.99999982,6.99999958 Z"/></svg>