<svg width="24" height="24" viewBox="0 0 24 24" fill="none" xmlns="http://www.w3.org/2000/svg">
<path fill-rule="evenodd" clip-rule="evenodd" d="M4 12.0046C4 12.5543 4.44266 13 4.99896 13H6.00104C6.55275 13 7 12.5443 7 12.0046V3.9954C7 3.44565 6.55734 3 6.00104 3H4.99896C4.44725 3 4 3.45566 4 3.9954V12.0046ZM14 14H19.6036C20.7081 14 21.6036 13.1046 21.6036 12C21.6036 11.88 21.5928 11.7603 21.5713 11.6422L20.1493 3.82112C20.0628 3.34562 19.6487 3 19.1654 3H10C9.44772 3 9 3.44772 9 4V13C11 18 12 20.5 12 20.5C13.5 20.5 14.5 19.5 14.5 18C14.5 17 14.3333 15.6667 14 14Z" fill="#3E4042"/>
</svg>
