<svg xmlns="http://www.w3.org/2000/svg" width="24" height="24" viewBox="0 0 24 24">
  <path fill="#3E4042" fill-rule="evenodd" d="M22,5.31452949 C21.253952,5.31452949 20.5407302,5.31452949 19.8603345,5.31452949 C18.3025863,4.09682252 16.8170799,3.72512753 15.4038153,4.19944452 C13.2839184,4.91092 12.8010499,6.3174873 12.8236101,8.00030214 L12.8236101,8.89555969 C9.62813585,8.97841792 6.60338332,7.45595914 4.76629217,4.84004299 C4.76629217,4.84004299 1.18526197,12.8973609 9.24257992,16.4783911 C7.39882167,17.729931 5.226646,18.0885673 3,18 C5,19 7,20 10,20 C16,20 21,15.5767348 21,9 C21,8.33333333 20.9364358,7.74346021 20.8093075,7.23038064 C21.1554737,6.6991945 21.5523712,6.06057744 22,5.31452949 Z" transform="matrix(-1 0 0 1 25 0)"/>
</svg>
