<svg xmlns="http://www.w3.org/2000/svg" width="24" height="24" viewBox="0 0 24 24">
  <path fill="#3E4042" fill-rule="evenodd" d="M2,16.9999992 L3.99999988,16.9999992 L3.99999988,17.4999992 L2.99999994,17.4999992 L2.99999994,18.4999991 L3.99999988,18.4999991 L3.99999988,18.9999991 L2,18.9999991 L2,19.999999 L4.99999982,19.999999 L4.99999982,15.9999993 L2,15.9999993 L2,16.9999992 Z M2.99999994,7.99999976 L3.99999988,7.99999976 L3.99999988,4 L2,4 L2,4.99999994 L2.99999994,4.99999994 L2.99999994,7.99999976 Z M2,10.9999996 L3.79999984,10.9999996 L2,13.0999998 L2,13.9999994 L4.99999982,13.9999994 L4.99999982,12.9999995 L3.19999997,12.9999995 L4.99999982,10.8999992 L4.99999982,9.99999964 L2,9.99999964 L2,10.9999996 Z M6.9999997,4.99999994 L6.9999997,6.99999982 L20.9999989,6.99999982 L20.9999989,4.99999994 L6.9999997,4.99999994 Z M6.9999997,18.9999991 L20.9999989,18.9999991 L20.9999989,16.9999992 L6.9999997,16.9999992 L6.9999997,18.9999991 Z M6.9999997,12.9999995 L20.9999989,12.9999995 L20.9999989,10.9999996 L6.9999997,10.9999996 L6.9999997,12.9999995 Z"/>
</svg>
