<svg xmlns="http://www.w3.org/2000/svg" width="24" height="24" viewBox="0 0 24 24">
  <path fill="#3E4042" fill-rule="evenodd" d="M13.5,7.91421356 L5,16.4142136 L5,19 L7.58578644,19 L16.0857864,10.5 L13.5,7.91421356 Z M14.9142136,6.5 L17.5,9.08578644 L18.2928932,8.29289322 C19.0069384,7.57884801 19.0069384,6.42115199 18.2928932,5.70710678 C17.578848,4.99306157 16.421152,4.99306157 15.7071068,5.70710678 L14.9142136,6.5 Z M4,21 C3.44771525,21 3,20.5522847 3,20 L3,16 C3,15.7347835 3.10535684,15.4804296 3.29289322,15.2928932 L14.2928932,4.29289322 C15.787987,2.79779943 18.212013,2.79779943 19.7071068,4.29289322 C21.2022006,5.78798701 21.2022006,8.21201299 19.7071068,9.70710678 L8.70710678,20.7071068 C8.5195704,20.8946432 8.26521649,21 8,21 L4,21 Z"/>
</svg>
