<svg xmlns="http://www.w3.org/2000/svg" width="24" height="24" viewBox="0 0 24 24">
  <path fill="#3E4042" fill-rule="evenodd" d="M3.99999991,10.4999996 C3.17000003,10.4999996 2.5,11.1699996 2.5,11.9999996 C2.5,12.8299994 3.17000003,13.4999995 3.99999991,13.4999995 C4.82999978,13.4999995 5.49999982,12.8299994 5.49999982,11.9999996 C5.49999982,11.1699996 4.82999978,10.4999996 3.99999991,10.4999996 Z M3.99999991,4.5 C3.17000003,4.5 2.5,5.17000003 2.5,5.99999991 C2.5,6.82999978 3.17000003,7.49999982 3.99999991,7.49999982 C4.82999978,7.49999982 5.49999982,6.82999978 5.49999982,5.99999991 C5.49999982,5.17000003 4.82999978,4.5 3.99999991,4.5 Z M3.99999991,16.4999993 C3.17000003,16.4999993 2.5,17.1799995 2.5,17.9999992 C2.5,18.8199987 3.18000002,19.4999991 3.99999991,19.4999991 C4.81999955,19.4999991 5.49999982,18.8199987 5.49999982,17.9999992 C5.49999982,17.1799995 4.82999978,16.4999993 3.99999991,16.4999993 Z M6.99999973,18.9999991 L20.9999989,18.9999991 L20.9999989,16.9999993 L6.99999973,16.9999993 L6.99999973,18.9999991 Z M6.99999973,12.9999995 L20.9999989,12.9999995 L20.9999989,10.9999996 L6.99999973,10.9999996 L6.99999973,12.9999995 Z M6.99999973,4.99999997 L6.99999973,6.99999985 L20.9999989,6.99999985 L20.9999989,4.99999997 L6.99999973,4.99999997 Z"/>
</svg>
