<svg xmlns="http://www.w3.org/2000/svg" width="24" height="24" viewBox="0 0 24 24"><path fill="#3E4042" fill-rule="evenodd" d="M15.5999998,11.7899995 C16.569999,11.1199994 17.2499994,10.0200001 17.2499994,8.99999976 C17.2499994,6.73999967 15.4999995,5 13.2499996,5 L7,5 L7,18.9999992 L14.0399995,18.9999992 C16.1299986,18.9999992 17.7499994,17.2999985 17.7499994,15.2099994 C17.7499994,13.69 16.8899987,12.3899999 15.5999998,11.7899995 Z M9.99999982,7.49999985 L12.9999996,7.49999985 C13.8299995,7.49999985 14.4999996,8.16999988 14.4999996,8.99999976 C14.4999996,9.82999963 13.8299995,10.4999997 12.9999996,10.4999997 L9.99999982,10.4999997 L9.99999982,7.49999985 Z M13.4999996,16.4999993 L9.99999982,16.4999993 L9.99999982,13.4999995 L13.4999996,13.4999995 C14.3299995,13.4999995 14.9999995,14.1699994 14.9999995,14.9999994 C14.9999995,15.8299993 14.3299995,16.4999993 13.4999996,16.4999993 Z"/></svg>