<svg xmlns="http://www.w3.org/2000/svg" width="24" height="24" viewBox="0 0 24 24">
  <path fill="#3E4042" fill-rule="evenodd" d="M0.99999994,11.9999993 C0.99999994,11.9999993 4.9999997,3.99999976 11.9999993,3.99999976 C18.9999989,3.99999976 22.9999986,11.9999993 22.9999986,11.9999993 C22.9999986,11.9999993 18.9999989,19.9999988 11.9999993,19.9999988 C4.9999997,19.9999988 0.99999994,11.9999993 0.99999994,11.9999993 Z M3.30908572,11.9999993 C3.3427702,12.0533284 3.37789594,12.1083429 3.41445365,12.1649483 C3.95853012,13.0073893 4.60180969,13.8510347 5.33407418,14.6321168 C7.33363416,16.7649808 9.57210435,17.9999988 11.9999993,17.9999988 C14.4278942,17.9999988 16.6663644,16.7649808 18.6659244,14.6321168 C19.3981889,13.8510347 20.0414684,13.0073893 20.5855449,12.1649483 C20.6221026,12.1083429 20.6572284,12.0533284 20.6909128,11.9999993 C20.6572284,11.9466702 20.6221026,11.8916557 20.5855449,11.8350502 C20.0414684,10.9926092 19.3981889,10.1489639 18.6659244,9.36788178 C16.6663644,7.2350178 14.4278942,5.99999976 11.9999993,5.99999976 C9.57210435,5.99999976 7.33363416,7.2350178 5.33407418,9.36788178 C4.60180969,10.1489639 3.95853012,10.9926092 3.41445365,11.8350502 C3.37789594,11.8916557 3.3427702,11.9466702 3.30908572,11.9999993 Z M12,8 C12.5522847,8 13,8.44771525 13,9 C13,9.55228475 12.5522847,10 12,10 C10.8954305,10 10,10.8954305 10,12 C10,12.1899458 10.0262014,12.3753542 10.0772097,12.5531511 C10.3209429,13.4027189 11.1020564,14 12,14 C13.1045695,14 14,13.1045695 14,12 C14,11.4477153 14.4477153,11 15,11 C15.5522847,11 16,11.4477153 16,12 C16,14.209139 14.209139,16 12,16 C10.2040449,16 8.64293649,14.8062931 8.15476044,13.1046843 C8.05243287,12.7480067 8,12.3769768 8,12 C8,9.790861 9.790861,8 12,8 Z"/>
</svg>
