<svg xmlns="http://www.w3.org/2000/svg" width="24" height="24" fill="#1B1C1D"><path fill-rule="evenodd" d="M4.224 2.808L2.81 4.222l2.511 2.511c-1.179 1.126-2.218 2.59-3.109 4.373a2 2 0 0 0 0 1.789C4.524 17.521 7.83 20.002 12 20.002c1.882 0 3.587-.505 5.105-1.484l2.675 2.675 1.414-1.414L4.224 2.808zM15.648 17.06l-1.614-1.614A3.98 3.98 0 0 1 12 16a4 4 0 0 1-4-4 3.98 3.98 0 0 1 .555-2.033l-1.82-1.82C5.715 9.108 4.804 10.392 4 12c2 4.001 4.667 6.002 8 6.002 1.321 0 2.537-.314 3.648-.942zm-5.579-5.579a2 2 0 0 0 .009 1.073A2 2 0 0 0 12 14c.18 0 .354-.024.52-.068l-2.452-2.452z"/><path d="M20 12c-.439.878-.91 1.659-1.413 2.344l1.427 1.427c.644-.84 1.236-1.8 1.774-2.877a2 2 0 0 0 0-1.789C19.476 6.48 16.17 4 12 4c-1.136 0-2.207.184-3.212.545l1.618 1.618C10.919 6.054 11.451 6 12 6c3.333 0 6 2 8 6z"/></svg>