<svg xmlns="http://www.w3.org/2000/svg" width="24" height="24" fill="none"  xmlns:v="https://vecta.io/nano"><path fill-rule="evenodd" d="M20.873 18.68l-2.217 2.217-2.838-.79-.812.335-1.457 2.558h-3.134l-1.449-2.566-.811-.34-2.838.781-2.216-2.216.791-2.838-.335-.812L1 13.55v-3.134l2.568-1.449.34-.811-.781-2.838 2.215-2.215 2.838.792.811-.334L10.445 1h3.135l1.449 2.568.811.34 2.837-.781 2.219 2.216-.791 2.838.335.811L23 10.446v3.135l-2.567 1.449-.34.813.781 2.837zM12 16a4 4 0 1 1 0-8 4 4 0 1 1 0 8z" fill="#1b1c1d"/></svg>