<svg width="24" height="24" viewBox="0 0 24 24" fill="none" xmlns="http://www.w3.org/2000/svg">
<path fill-rule="evenodd" clip-rule="evenodd" d="M19.43 12.98C19.47 12.66 19.5 12.34 19.5 12C19.5 11.66 19.47 11.34 19.43 11.02L21.54 9.37C21.73 9.22 21.78 8.95 21.66 8.73L19.66 5.27C19.54 5.05 19.27 4.97 19.05 5.05L16.56 6.05C16.04 5.65 15.48 5.32 14.87 5.07L14.49 2.42C14.46 2.18 14.25 2 14 2H10C9.75002 2 9.54002 2.18 9.51002 2.42L9.13002 5.07C8.52002 5.32 7.96002 5.66 7.44002 6.05L4.95002 5.05C4.72002 4.96 4.46002 5.05 4.34002 5.27L2.34002 8.73C2.21002 8.95 2.27002 9.22 2.46002 9.37L4.57002 11.02C4.53002 11.34 4.50002 11.67 4.50002 12C4.50002 12.33 4.53002 12.66 4.57002 12.98L2.46002 14.63C2.27002 14.78 2.22002 15.05 2.34002 15.27L4.34002 18.73C4.46002 18.95 4.73002 19.03 4.95002 18.95L7.44002 17.95C7.96002 18.35 8.52002 18.68 9.13002 18.93L9.51002 21.58C9.54002 21.82 9.75002 22 10 22H14C14.25 22 14.46 21.82 14.49 21.58L14.87 18.93C15.48 18.68 16.04 18.34 16.56 17.95L19.05 18.95C19.28 19.04 19.54 18.95 19.66 18.73L21.66 15.27C21.78 15.05 21.73 14.78 21.54 14.63L19.43 12.98H19.43ZM12 15.5C10.07 15.5 8.50002 13.93 8.50002 12C8.50002 10.07 10.07 8.5 12 8.5C13.93 8.5 15.5 10.07 15.5 12C15.5 13.93 13.93 15.5 12 15.5Z" fill="#3E4042"/>
</svg>
