<svg xmlns="http://www.w3.org/2000/svg" width="24" height="24" viewBox="0 0 24 24"><path fill="#3E4042" fill-rule="evenodd" d="M19.4299991,12.9799987 C19.47,12.659999 19.4999988,12.3399984 19.4999988,11.9999993 C19.4999988,11.6600001 19.4699981,11.3399994 19.4299991,11.0199997 L21.5399996,9.37000027 C21.7300001,9.22000067 21.7799993,8.95000022 21.6600004,8.72999997 L19.6600005,5.27000013 C19.5399997,5.05000036 19.2700011,4.96999996 19.05,5.05000036 L16.5600003,6.0500003 C16.0399999,5.65000023 15.4800005,5.32000032 14.8699999,5.07000034 L14.4899998,2.4200004 C14.4599991,2.17999993 14.2499991,1.99999988 13.9999992,1.99999988 L9.9999994,1.99999988 C9.74999942,1.99999988 9.53999939,2.17999993 9.50999965,2.41999992 L9.12999956,5.06999987 C8.51999994,5.31999985 7.95999955,5.65999998 7.4399996,6.04999983 L4.9499995,5.04999989 C4.71999951,4.95999973 4.45999976,5.04999989 4.33999941,5.26999966 L2.33999953,8.72999902 C2.20999943,8.94999926 2.2699996,9.21999876 2.45999941,9.36999932 L4.56999942,11.0199997 C4.52999946,11.3399994 4.49999925,11.6699993 4.49999925,11.9999993 C4.49999925,12.3299992 4.52999946,12.659999 4.56999942,12.9799987 L2.45999964,14.6299982 C2.2699996,14.7799978 2.21999966,15.0499983 2.33999953,15.2699986 L4.33999941,18.7299984 C4.45999929,18.9499977 4.72999926,19.0299976 4.9499995,18.9499977 L7.43999913,17.9499977 C7.95999908,18.3499973 8.51999899,18.6799972 9.12999861,18.9299972 L9.5099987,21.5799967 C9.53999843,21.8199964 9.74999846,21.9999967 9.99999844,21.9999967 L13.9999982,21.9999967 C14.2499981,21.9999967 14.4599981,21.8199964 14.4899979,21.5799967 L14.869998,18.9299972 C15.4799976,18.6799972 16.039998,18.3399971 16.5599984,17.9499977 L19.0499981,18.9499977 C19.2799975,19.0399979 19.5399978,18.9499977 19.6599986,18.7299984 L21.6599985,15.2699986 C21.7799993,15.0499983 21.7299982,14.7799988 21.5399977,14.6299982 L19.4299971,12.9799987 L19.4299991,12.9799987 Z M11.9999993,15.4999991 C10.069999,15.4999991 8.49999949,13.9299995 8.49999949,11.9999993 C8.49999949,10.069999 10.069999,8.49999949 11.9999993,8.49999949 C13.9299995,8.49999949 15.4999991,10.069999 15.4999991,11.9999993 C15.4999991,13.9299995 13.9299995,15.4999991 11.9999993,15.4999991 Z"/></svg>