<svg xmlns="http://www.w3.org/2000/svg" width="24" height="24" fill="none"  xmlns:v="https://vecta.io/nano"><path fill-rule="evenodd" d="M20.873 18.68l-2.217 2.217-2.838-.79-.812.335L13.549 23h-3.134l-1.449-2.566-.811-.34-2.838.781-2.216-2.216.791-2.838-.335-.812L1 13.55v-3.134l2.568-1.449.34-.811-.781-2.838 2.215-2.215 2.838.792.811-.334L10.445 1h3.135l1.449 2.568.811.34 2.837-.781 2.219 2.216-.791 2.838.335.811L23 10.446v3.135l-2.567 1.449-.34.813.781 2.837zm-2.892-2.972l.872-2.082L21 12.414v-.804l-2.147-1.22-.859-2.084.662-2.375-.569-.568-2.383.656-2.08-.872L12.413 3h-.804l-1.22 2.147-2.084.859-2.376-.663-.566.566.655 2.382-.872 2.08L3 11.583v.805l2.145 1.222.859 2.083-.662 2.376.567.567 2.382-.655 2.08.872 1.212 2.146h.804l1.222-2.145 2.083-.859 2.376.662.568-.568-.655-2.381zM12 16a4 4 0 1 1 0-8 4 4 0 1 1 0 8zm0-2a2 2 0 1 0 0-4 2 2 0 1 0 0 4z" fill="#1B1C1D"/></svg>