<svg width="24" height="24" viewBox="0 0 24 24" fill="none" xmlns="http://www.w3.org/2000/svg">
<path fill-rule="evenodd" clip-rule="evenodd" d="M13 6H11V10H3C2.44772 10 2 9.55228 2 9V7C2 6.44772 2.44772 6 3 6H6.33682C6.12085 5.54537 6 5.0368 6 4.5C6 2.567 7.567 1 9.5 1C10.4793 1 11.3647 1.40223 12 2.05051C12.6353 1.40223 13.5207 1 14.5 1C16.433 1 18 2.567 18 4.5C18 5.0368 17.8792 5.54537 17.6632 6H21C21.5523 6 22 6.44772 22 7V9C22 9.55228 21.5523 10 21 10H13V6ZM10.9146 4C10.9699 4.15639 11 4.32468 11 4.5V6H9.5C9.32468 6 9.15639 5.96992 9 5.91465C8.4174 5.70873 8 5.15311 8 4.5C8 3.67157 8.67157 3 9.5 3C10.1531 3 10.7087 3.4174 10.9146 4ZM13 6V4.5C13 4.32468 13.0301 4.15639 13.0854 4C13.2913 3.4174 13.8469 3 14.5 3C15.3284 3 16 3.67157 16 4.5C16 5.15311 15.5826 5.70873 15 5.91465C14.8436 5.96992 14.6753 6 14.5 6H13Z" fill="#3E4042"/>
<path d="M11 12H3V20C3 20.5523 3.44772 21 4 21H11V12Z" fill="#3E4042"/>
<path d="M13 21H20C20.5523 21 21 20.5523 21 20V12H13V21Z" fill="#3E4042"/>
</svg>
