<svg xmlns="http://www.w3.org/2000/svg" width="24" height="24" fill="#1B1C1D"><path fill-rule="evenodd" d="M13 6h-2v4H3a1 1 0 0 1-1-1V7a1 1 0 0 1 1-1h3.337C6.121 5.545 6 5.037 6 4.5A3.5 3.5 0 0 1 9.5 1 3.49 3.49 0 0 1 12 2.051 3.49 3.49 0 0 1 14.5 1 3.5 3.5 0 0 1 18 4.5c0 .537-.121 1.045-.337 1.5H21a1 1 0 0 1 1 1v2a1 1 0 0 1-1 1h-8V6zm-2.085-2c.055.156.085.325.085.5V6H9.5A1.5 1.5 0 0 1 8 4.5a1.5 1.5 0 0 1 2.915-.5zM13 6V4.5c0-.175.03-.344.085-.5A1.5 1.5 0 0 1 16 4.5 1.5 1.5 0 0 1 14.5 6H13z"/><path d="M11 12H3v8a1 1 0 0 0 1 1h7v-9zm2 9h7a1 1 0 0 0 1-1v-8h-8v9z"/></svg>