<svg xmlns="http://www.w3.org/2000/svg" width="24" height="24" viewBox="0 0 24 24"><path fill="#3E4042" fill-rule="evenodd" d="M4.03323547,21.2596577 C4.01162675,21.1777429 4,21.0908697 4,21 L4,3 C4,2.90913035 4.01162675,2.82225712 4.03323547,2.74034225 L13.2928932,12 L4.03323547,21.2596577 L4.03323547,21.2596577 Z M4.7406803,21.9664265 L14,12.7071068 L16.8017541,15.5088608 L5.49026124,21.8715755 C5.24538936,22.009316 4.97932466,22.0314559 4.7406803,21.9664265 L4.7406803,21.9664265 Z M16.8017541,8.49113917 L14,11.2928932 L4.7406803,2.03357352 C4.97932466,1.96854414 5.24538936,1.99068403 5.49026124,2.12842446 L16.8017541,8.49113917 L16.8017541,8.49113917 Z M17.7068507,9.00025605 L21.4902612,11.1284245 C22.1699129,11.5107285 22.1699129,12.4892715 21.4902612,12.8715755 L17.7068507,14.9997439 L14.7071068,12 L17.7068507,9.00025605 Z"/></svg>