<svg width="24" height="24" viewBox="0 0 24 24" fill="none" xmlns="http://www.w3.org/2000/svg">
<path fill-rule="evenodd" clip-rule="evenodd" d="M18.5858 15.0858C20.6556 13.016 21.5 11.514 21.5 9.5C21.5 7.567 19.933 6 18 6C16.9257 6 16.0809 6.39157 15.1712 7.19038C14.9486 7.38582 14.7753 7.55309 14.4142 7.91421L13 9.32843L11.5858 7.91421C11.2247 7.55309 11.0514 7.38582 10.8288 7.19038C9.91908 6.39157 9.0743 6 8 6C6.067 6 4.5 7.567 4.5 9.5C4.5 11.514 5.34444 13.016 7.41421 15.0858C8.4519 16.1235 10.3234 17.3626 13 18.7551C15.6766 17.3626 17.5481 16.1235 18.5858 15.0858ZM6 16.5C4.08877 14.5888 2.5 12.5376 2.5 9.5C2.5 6.46243 4.96243 4 8 4C10.5 4 12 5.5 13 6.5C14 5.5 15.5 4 18 4C21.0376 4 23.5 6.46243 23.5 9.5C23.5 12.5376 21.9112 14.5888 20 16.5C18.6667 17.8333 16.3333 19.3333 13 21C9.66667 19.3333 7.33333 17.8333 6 16.5Z" fill="#3E4042"/>
</svg>
