<svg width="24" height="24" viewBox="0 0 24 24" fill="none" xmlns="http://www.w3.org/2000/svg">
<path fill-rule="evenodd" clip-rule="evenodd" d="M20.5 9C20.5 7 19 5.1 16.8 5.1C14.5 5.1 13 6.73 12 8.43C11 6.73 9.5 5.1 7.2 5.1C5 5.1 3.5 6.86749 3.5 9C3.5 13.6198 8.44902 16.6671 12 18.6231C15.551 16.6671 20.5 13.6198 20.5 9ZM1.5 8.82353C1.5 5.60728 3.96243 3 7 3C9.7 3 11 4 12 5.2C13 4 14.3 3 17 3C20.0376 3 22.5 5.60728 22.5 8.82353C22.5 14.8266 16.6842 18.5201 12 21C7.31582 18.5201 1.5 14.8266 1.5 8.82353Z" fill="#1B1C1D"/>
</svg>
