<svg width="24" height="24" viewBox="0 0 24 24" fill="none" xmlns="http://www.w3.org/2000/svg">
<path fill-rule="evenodd" clip-rule="evenodd" d="M17.5858 14.7379C19.6556 12.5464 20.5 10.956 20.5 8.82353C20.5 6.77683 18.933 5.11765 17 5.11765C15.9257 5.11765 15.0809 5.53225 14.1712 6.37805C13.9486 6.58498 13.7753 6.7621 13.4142 7.14446L12 8.64186L10.5858 7.14446C10.2247 6.7621 10.0514 6.58498 9.82883 6.37805C8.91908 5.53225 8.0743 5.11765 7 5.11765C5.067 5.11765 3.5 6.77683 3.5 8.82353C3.5 10.956 4.34444 12.5464 6.41421 14.7379C7.4519 15.8366 9.32336 17.1487 12 18.6231C14.6766 17.1487 16.5481 15.8366 17.5858 14.7379ZM5 16.2353C3.08877 14.2116 1.5 12.0398 1.5 8.82353C1.5 5.60728 3.96243 3 7 3C9.5 3 11 4.58824 12 5.64706C13 4.58824 14.5 3 17 3C20.0376 3 22.5 5.60728 22.5 8.82353C22.5 12.0398 20.9112 14.2116 19 16.2353C17.6667 17.6471 15.3333 19.2353 12 21C8.66667 19.2353 6.33333 17.6471 5 16.2353Z" fill="#3E4042"/>
</svg>
