<svg xmlns="http://www.w3.org/2000/svg" width="24" height="24" viewBox="0 0 24 24">
  <path fill="#3E4042" fill-rule="evenodd" d="M11,18 L13,18 L13,16 L11,16 L11,18 L11,18 Z M12,2 C6.48000001,2 2,6.48000001 2,12 C2,17.5200004 6.48000001,22 12,22 C17.5200004,22 22,17.5200004 22,12 C22,6.47999954 17.5200004,2 12,2 L12,2 Z M12,20 C7.59000015,20 4,16.4099998 4,12 C4,7.59000015 7.59000015,4 12,4 C16.4099998,4 20,7.59000015 20,12 C20,16.4099998 16.4099998,20 12,20 L12,20 Z M12,6 C9.78999996,6 8,7.78999996 8,10 L10,10 C10,8.89999961 10.8999996,8 12,8 C13.1000003,8 14,8.89999961 14,10 C14,12 11,11.75 11,15 L13,15 C13,12.75 16,12.5 16,10 C16,7.78999996 14.21,6 12,6 L12,6 Z"/>
</svg>
