<svg width="24" height="24" viewBox="0 0 24 24" fill="none" xmlns="http://www.w3.org/2000/svg">
<path fill-rule="evenodd" clip-rule="evenodd" d="M5.95713 9.7094C5.98502 9.80136 6.00001 9.89893 6.00001 10C6.00001 11.5 6.00001 11.65 6.00001 19H9.00001V15C9.00001 14.4477 9.44773 14 10 14H14C14.5523 14 15 14.4477 15 15V19H18V10C18 9.89893 18.015 9.80137 18.0429 9.7094C17.5207 9.24521 16.8224 8.62453 15.8356 7.74741C13.2527 5.45149 12.6465 4.91265 12 4.33795L5.95713 9.7094ZM4.00001 11.4491L3.66437 11.7474C3.25159 12.1143 2.61952 12.0771 2.2526 11.6644C1.88568 11.2516 1.92286 10.6195 2.33565 10.2526L11.3356 2.25259C11.7145 1.9158 12.2855 1.9158 12.6644 2.25259C13.7894 3.25259 13.7894 3.25259 17.1644 6.25259C20.5394 9.25259 20.5394 9.25259 21.6644 10.2526C22.0772 10.6195 22.1143 11.2516 21.7474 11.6644C21.3805 12.0771 20.7484 12.1143 20.3356 11.7474C20.2122 11.6377 20.1023 11.54 20 11.4491V20C20 20.5523 19.5523 21 19 21H14C13.4477 21 13 20.5523 13 20V16H11V20C11 20.5523 10.5523 21 10 21H5.00001C4.44773 21 4.00001 20.5523 4.00001 20V11.4491Z" fill="#3E4042"/>
</svg>
