<svg width="24" height="24" viewBox="0 0 24 24" fill="none" xmlns="http://www.w3.org/2000/svg">
<path fill-rule="evenodd" clip-rule="evenodd" d="M14 1C12 1.86 11.5 3.00027 11.5 4C11.5 4.99973 12 8 10 8C9 8 8.33333 7 8 5C5 7.25 3.5 11.12 3.5 14.5C3.5 18.92 7 21.9937 12 22C17 22.0062 20.5 19 20.5 14.5C20.5 12 20 10.0714 18 7.5C16 4.92857 14 3.99997 14 1ZM8 15.5C8 14 9 12.5 11 12C13 11.5 13.5 10.9999 14 10C15.08 10.8671 16 13 16 15C16 17.7857 14 19 12 19C10.22 19 8 18 8 15.5Z" fill="#1B1C1D"/>
</svg>
