<svg width="24" height="24" viewBox="0 0 24 24" fill="none" xmlns="http://www.w3.org/2000/svg">
<path fill-rule="evenodd" clip-rule="evenodd" d="M19.0711 19.0711C17.1184 21.0237 14.7614 22 12 22C9.23858 22 6.88156 21.0237 4.92893 19.0711C2.97631 17.1184 2 14.7614 2 12C2 9.23858 2.97631 6.88156 4.92893 4.92893C6.88156 2.97631 9.23858 2 12 2C14.7614 2 17.1184 2.97631 19.0711 4.92893C21.0237 6.88156 22 9.23858 22 12C22 14.7614 21.0237 17.1184 19.0711 19.0711ZM11 11V17H13V11H11ZM11 7V9H13V7H11Z" fill="#3E4042"/>
</svg>
