<svg xmlns="http://www.w3.org/2000/svg" width="24" height="24" viewBox="0 0 24 24"><path fill="#3E4042" fill-rule="evenodd" d="M19.0710679,19.0710679 C17.1184464,21.0236894 14.7614244,22 12,22 C9.23857642,22 6.88155525,21.0236894 4.92893417,19.0710679 C2.976313,17.1184464 2.00000167,14.7614244 2,12 C2.00000167,9.23857642 2.976313,6.88155525 4.92893417,4.92893417 C6.88155525,2.976313 9.23857642,2.00000167 12,2 C14.7614244,2.00000167 17.1184464,2.976313 19.0710679,4.92893417 C21.0236894,6.88155525 22,9.23857642 22,12 C22,14.7614244 21.0236894,17.1184464 19.0710679,19.0710679 Z M11,11 L11,17 L13,17 L13,11 L11,11 Z M11,7 L11,9 L13,9 L13,7 L11,7 Z"/></svg>