<svg xmlns="http://www.w3.org/2000/svg" width="24" height="24" viewBox="0 0 24 24">
  <path fill="#D7CAA4" d="M7.22004395,20.9848716 C7.20238231,20.9832762 7.18480252,20.9815592 7.16730456,20.9797207 C6.3859112,21.5340666 5.57135799,22.0232387 4.72371121,22.447062 C4.47672371,22.5705558 4.17638931,22.4704443 4.05289556,22.2234568 C3.92940181,21.9764693 4.02951327,21.6761349 4.27650078,21.5526412 C4.85517751,21.2633028 5.41787673,20.9415744 5.96462324,20.5873906 C5.21012304,20.1205268 4.72195062,19.2580233 4.50010599,17.9998799 C4.15281209,16.0302783 4.48614307,14.3636234 5.50009893,12.9999152 C7.15279089,13.6969614 8.15278383,15.0302854 8.50007773,16.9998869 C8.59576629,17.5425638 8.63978544,18.0369378 8.63213516,18.483009 C9.36000518,17.7946562 10.0530822,17.0350846 10.7114464,16.2040826 C9.79177679,15.9727051 9.07310241,15.3393372 8.55542324,14.3039789 C7.88876128,12.970655 7.88876128,10.9706691 8.55542324,8.30402128 C10.5554091,9.10341558 11.888733,10.4225184 12.555395,12.2613298 C12.6477961,12.5161938 12.7209866,12.7616203 12.7749666,12.9976093 C13.1587094,12.213031 13.4519866,11.4301167 13.6552385,10.6486392 C12.2184505,9.91134133 11.5000565,8.69511413 11.5000565,6.9999576 C11.5000565,4.99997173 12.5000495,2.99998587 14.5000353,1 C16.5000212,2.99998587 17.5000141,4.99997173 17.5000141,6.9999576 C17.5000141,8.96411992 16.5355239,10.2852888 14.6065435,10.9634641 C14.4346273,11.6102133 14.2064783,12.2561181 13.9222932,12.9010768 C14.1013755,12.7844815 14.2888822,12.6772012 14.4848132,12.5792357 C15.8181371,11.9125737 17.818123,11.9125737 20.4847708,12.5792357 C19.749961,15.394911 18.4166371,17.0615659 16.4847991,17.5792003 C14.6988555,18.0577425 13.1880897,17.6078956 11.9525019,16.2296597 C11.9350934,16.2530719 11.9176106,16.2764826 11.9000537,16.2998919 C11.3214502,17.0713632 10.7150306,17.7887319 10.0808453,18.4518646 C10.1859765,18.4463193 10.2936418,18.4435467 10.4038414,18.4435467 C12.1722211,18.4435467 13.7230729,18.8241922 15.0563968,19.5854832 C14.1481544,21.5660923 12.6940403,22.5563968 10.6940544,22.5563968 C8.9081713,22.5563968 7.75016781,22.0325551 7.22004395,20.9848716 Z"/>
</svg>
