<svg xmlns="http://www.w3.org/2000/svg" width="24" height="24" viewBox="0 0 24 24">
  <path fill="#1B1C1D" fill-rule="evenodd" d="M17,4.00000024 L19.0049107,4.00000024 C20.1067681,4.00000024 21,4.89005865 21,6.00010642 L21,18.9998941 C21,20.1045222 20.1073772,21.0000002 19.0049107,21.0000002 L4.99508929,21.0000002 C3.8932319,21.0000002 3,20.1099418 3,18.9998941 L3,6.00010642 C3,4.89547828 3.8926228,4.00000024 4.99508929,4.00000024 L7,4.00000024 L7,2 L10,2 L10,4.00000024 L14,4.00000024 L14,2 L17,2 L17,4.00000024 Z M19,19.0000002 L19,8.00000024 L5,8.00000024 L5,19.0000002 L19,19.0000002 Z M13,13.0000002 L17.0909091,13.0000002 L17.0909091,17.0909093 L13,17.0909093 L13,13.0000002 Z"/>
</svg>
