<svg width="24" height="24" viewBox="0 0 24 24" fill="none" xmlns="http://www.w3.org/2000/svg">
<path fill-rule="evenodd" clip-rule="evenodd" d="M4 11.4954C4 10.9457 4.44266 10.5 4.99896 10.5H6.00104C6.55275 10.5 7 10.9557 7 11.4954V19.5046C7 20.0543 6.55734 20.5 6.00104 20.5H4.99896C4.44725 20.5 4 20.0443 4 19.5046V11.4954ZM14 9.5H19.6036C20.7081 9.5 21.6036 10.3954 21.6036 11.5C21.6036 11.62 21.5928 11.7397 21.5713 11.8578L20.1493 19.6789C20.0628 20.1544 19.6487 20.5 19.1654 20.5H10C9.44772 20.5 9 20.0523 9 19.5V10.5C11 5.5 12 3 12 3C13.5 3 14.5 4 14.5 5.5C14.5 6.5 14.3333 7.83333 14 9.5Z" fill="#3E4042"/>
</svg>
