<svg xmlns="http://www.w3.org/2000/svg" width="24" height="24" viewBox="0 0 24 24">
  <path fill="#3E4042" fill-rule="evenodd" d="M4,11.4953976 C4,10.9456547 4.44266033,10.5 4.99895656,10.5 L6.00104344,10.5 C6.55275191,10.5 7,10.9556644 7,11.4953976 L7,19.5046024 C7,20.0543453 6.55733967,20.5 6.00104344,20.5 L4.99895656,20.5 C4.44724809,20.5 4,20.0443356 4,19.5046024 L4,11.4953976 Z M19.6390792,8.5 C20.7436487,8.5 21.6390792,9.3954305 21.6390792,10.5 C21.6390792,10.6101617 21.6299775,10.7201351 21.611867,10.828798 L20.1392668,19.664399 C20.0589022,20.146587 19.6417121,20.5 19.1528729,20.5 L10,20.5 C9.44771525,20.5 9,20.0522847 9,19.5 L9,10.5 L12,3 L13.4053618,3 C15.0622161,3 16.4053618,4.34314575 16.4053618,6 C16.4053618,6.11171182 16.2702412,6.94504515 16,8.5 L19.6390792,8.5 Z M11,10.8851648 L11,18.5 L18.3057458,18.5 L19.6390792,10.5 L13.6035746,10.5 L14.3892318,6.17888544 C14.3999634,6.11986151 14.4053618,6.0599916 14.4053618,6 C14.4053618,5.44771525 13.9576466,5 13.4053618,5 L13.3540659,5 L11,10.8851648 Z"/>
</svg>
