<svg width="24" height="24" viewBox="0 0 24 24" fill="none" xmlns="http://www.w3.org/2000/svg">
<path fill-rule="evenodd" clip-rule="evenodd" d="M2 10.6799C2 9.98882 2.50292 9.42857 3.13495 9.42857C3.13495 9.42857 4.78158 9.42857 5.4084 9.42857C5.4084 13.619 5.4084 17.8095 5.4084 22H3.13495C2.50813 22 2 21.4272 2 20.7486V10.6799ZM13.3613 8.17143H19.7277C20.9827 8.17143 22 9.29711 22 10.6857C22 10.8365 21.9877 10.9871 21.9633 11.1355L20.3477 20.9677C20.2495 21.5655 19.779 22 19.2299 22H7.68066C7.68066 17.8095 7.68066 13.619 7.68066 9.42857C9.95293 3.14286 11.0891 0 11.0891 0C12.7933 0 13.9294 1.25714 13.9294 3.14286C13.9294 4.4 13.74 6.07619 13.3613 8.17143Z" fill="#3E4042"/>
</svg>
