<svg width="24" height="24" viewBox="0 0 24 24" fill="none" xmlns="http://www.w3.org/2000/svg">
<path fill-rule="evenodd" clip-rule="evenodd" d="M13.1391 10L13.9834 4.93393C14.1412 3.98723 13.6043 3.06192 12.704 2.72918L12.2851 2.57434L9.68066 9.77897V20H18.481L19.9476 11.1637C20.0487 10.5544 19.5787 10 18.9611 10H13.1391ZM7.68066 9.42857L11.0891 0L13.3974 0.853221C15.1979 1.51871 16.2718 3.36933 15.9562 5.26273L15.5 8H18.9611C20.814 8 22.224 9.6632 21.9206 11.4912L20.3477 20.9677C20.2495 21.5655 19.779 22 19.2299 22H7.68066V9.42857Z" fill="#3E4042"/>
<path d="M3.13495 9.42859C2.50292 9.42859 2 9.98884 2 10.6799V20.7487C2 21.4272 2.50813 22 3.13495 22H5.4084V9.42859H3.13495Z" fill="#3E4042"/>
</svg>
