<svg xmlns="http://www.w3.org/2000/svg" width="24" height="24" viewBox="0 0 24 24"><path fill="#3E4042" fill-rule="evenodd" d="M4,11.4953976 C4,10.9456547 4.44266033,10.5 4.99895656,10.5 L6.00104344,10.5 C6.55275191,10.5 7,10.9556644 7,11.4953976 L7,19.5046024 C7,20.0543453 6.55733967,20.5 6.00104344,20.5 L4.99895656,20.5 C4.44724809,20.5 4,20.0443356 4,19.5046024 L4,11.4953976 Z M14,9.5 L19.6035746,9.5 C20.7081441,9.5 21.6035746,10.3954305 21.6035746,11.5 C21.6035746,11.6199832 21.5927776,11.739723 21.5713144,11.8577709 L20.1492936,19.6788854 C20.0628407,20.1543761 19.6487098,20.5 19.1654236,20.5 L10,20.5 C9.44771525,20.5 9,20.0522847 9,19.5 L9,10.5 C11,5.5 12,3 12,3 C13.5,3 14.5,4 14.5,5.5 C14.5,6.5 14.3333333,7.83333333 14,9.5 Z"/></svg>