<svg width="24" height="24" viewBox="0 0 24 24" fill="none" xmlns="http://www.w3.org/2000/svg">
<path fill-rule="evenodd" clip-rule="evenodd" d="M4 11.4954C4 10.9457 4.44266 10.5 4.99896 10.5H6.00104C6.55275 10.5 7 10.9557 7 11.4954V19.5046C7 20.0543 6.55734 20.5 6.00104 20.5H4.99896C4.44725 20.5 4 20.0443 4 19.5046V11.4954ZM19.6391 8.5C20.7437 8.5 21.6391 9.39543 21.6391 10.5C21.6391 10.6102 21.63 10.7201 21.6119 10.8288L20.1393 19.6644C20.0589 20.1466 19.6417 20.5 19.1529 20.5H10C9.44772 20.5 9 20.0523 9 19.5V10.5L12 3H13.4054C15.0622 3 16.4054 4.34315 16.4054 6C16.4054 6.11171 16.2702 6.94504 16 8.5H19.6391ZM11 10.8852V18.5H18.3057L19.6391 10.5H13.6036L14.3892 6.17889C14.4 6.11986 14.4054 6.05999 14.4054 6C14.4054 5.44772 13.9576 5 13.4054 5H13.3541L11 10.8852Z" fill="#3E4042"/>
</svg>
