<svg xmlns="http://www.w3.org/2000/svg" width="24" height="24" viewBox="0 0 24 24">
  <g fill="none" fill-rule="evenodd">
    <path fill="#3E4042" d="M12.5489475,19.5119896 C13.393465,18.8395035 14.2383096,18.0791433 15.0240465,17.2497544 C17.2086506,14.9437834 18.499999,12.5763114 18.499999,10.3333328 C18.4993767,8.52827327 17.8722354,7.01532967 16.5953989,5.73893489 C15.318565,4.46254116 13.8054048,3.83592281 11.9999986,3.8359229 C10.1945927,3.8359229 8.68143305,4.46254114 7.40459809,5.7389353 C6.12776349,7.01532901 5.50062293,8.52827253 5.49999985,10.3333328 C5.49999985,12.5763114 6.79134819,14.9437834 8.97595231,17.2497544 C9.76168918,18.0791433 10.6065338,18.8395035 11.4510513,19.5119896 C11.644052,19.6656754 11.8277262,19.8072697 11.9999994,19.9361625 C12.1722726,19.8072697 12.3559468,19.6656754 12.5489475,19.5119896 Z M20.4999989,10.3329882 C20.499999,13.1945206 18.9788475,15.9832983 16.4759519,18.6252437 C15.6210638,19.5276255 14.708096,20.3492965 13.7948011,21.0765499 C13.4745464,21.3315676 13.1764504,21.5570504 12.9077556,21.7511078 C12.743532,21.8697137 12.623426,21.9528982 12.5546996,21.9987158 L11.9999994,22.3685159 L11.4452992,21.9987158 C11.3765728,21.9528982 11.2564668,21.8697137 11.0922432,21.7511078 C10.8235484,21.5570504 10.5254524,21.3315676 10.2051977,21.0765499 C9.29190275,20.3492965 8.37893498,19.5276255 7.52404694,18.6252437 C5.02115134,15.9832983 3.49999985,13.1945206 3.49999991,10.3329877 C3.50080609,7.99726887 4.33874113,5.97579478 5.99062873,4.32447758 C7.64251655,2.67316004 9.66427938,1.8359229 11.9999985,1.8359229 C14.3357181,1.83592279 16.3574817,2.67316008 18.0093682,4.32447711 C19.6612576,5.97579498 20.4991938,7.99726966 20.4999989,10.3329882 Z"/>
    <path fill="#000" d="M13.7499993,10.3333328 C13.7499993,9.08087983 13.2524524,8.58333298 11.9999994,8.58333298 C10.7475464,8.58333298 10.2499996,9.08087983 10.2499996,10.3333328 C10.2499996,11.5857858 10.7475464,12.0833327 11.9999994,12.0833327 C13.2524524,12.0833327 13.7499993,11.5857858 13.7499993,10.3333328 Z M15.2499993,10.3333328 C15.2499993,12.414213 14.0808795,13.5833327 11.9999994,13.5833327 C9.91911927,13.5833327 8.74999955,12.414213 8.74999955,10.3333328 C8.74999955,8.2524527 9.91911927,7.08333298 11.9999994,7.08333298 C14.0808795,7.08333298 15.2499993,8.2524527 15.2499993,10.3333328 Z"/>
  </g>
</svg>
