<svg width="24" height="24" viewBox="0 0 24 24" fill="none" xmlns="http://www.w3.org/2000/svg">
<path fill-rule="evenodd" clip-rule="evenodd" d="M2 12C2 6.47715 6.47715 2 12 2C17.5228 2 22 6.47715 22 12C22 17.5228 17.5228 22 12 22C6.47715 22 2 17.5228 2 12ZM4.06189 11H7V13H4.06189C4.51314 16.6187 7.38128 19.4869 11 19.9381V17H13V19.9381C16.6187 19.4869 19.4869 16.6187 19.9381 13H17V11H19.9381C19.4869 7.38128 16.6187 4.51314 13 4.06189V7H11V4.06189C7.38128 4.51314 4.51314 7.38128 4.06189 11Z" fill="#3E4042"/>
</svg>
