<svg xmlns="http://www.w3.org/2000/svg" width="24" height="24" viewBox="0 0 24 24"><path fill="#3E4042" fill-rule="evenodd" d="M11,16.7324356 C10.4021986,16.3866262 10,15.7402824 10,15 C10,13.8954305 10.8954305,13 12,13 C13.1045695,13 14,13.8954305 14,15 C14,15.7402824 13.5978014,16.3866262 13,16.7324356 L13,18 C13,18.5522847 12.5522847,19 12,19 C11.4477153,19 11,18.5522847 11,18 L11,16.7324356 Z M5.99999958,9.9999994 L5.99999958,6.99999964 C5.99999958,3.68629115 8.6862907,0.99999994 11.9999993,0.99999994 C15.3137078,0.99999994 17.999999,3.68629117 17.999999,6.99999964 L17.999999,9.9999994 L18.9999988,9.9999994 C19.6666648,9.9999994 19.9999987,10.3333324 19.9999987,10.9999993 L19.9999987,20.9999987 C19.9999987,21.6666647 19.6666648,21.9999987 18.9999988,21.9999987 L4.99999976,21.9999987 C4.33333305,21.9999987 3.99999982,21.6666647 3.99999982,20.9999987 L3.99999982,10.9999993 C3.99999982,10.3333324 4.33333305,9.9999994 4.99999976,9.9999994 L5.99999958,9.9999994 Z M7.99999958,9.9999994 L15.999999,9.9999994 L15.999999,6.99999964 C15.999999,4.79086066 14.2091383,2.99999994 11.9999993,2.99999994 C9.79086022,2.99999994 7.99999958,4.79086064 7.99999958,6.99999964 L7.99999958,9.9999994 Z M5.99999982,11.9999994 L5.99999982,19.9999987 L17.9999987,19.9999987 L17.9999987,11.9999994 L5.99999982,11.9999994 Z"/></svg>