<svg xmlns="http://www.w3.org/2000/svg" width="24" height="24" viewBox="0 0 24 24">
  <path fill="#3E4042" fill-rule="evenodd" d="M4.99999994,18.9999999 L10,18.9999999 L10,15.9999999 L11.9999999,15.9999999 L11.9999999,19.9999999 C11.9999999,20.5522847 11.5522847,20.9999999 10.9999999,20.9999999 L4.00000006,20.9999999 C3.44771531,20.9999999 3.00000006,20.5522847 3.00000006,19.9999999 L3.00000006,3.99999994 C3.00000006,3.44771519 3.44771531,2.99999994 4.00000006,2.99999994 L10.9999999,2.99999994 C11.5522847,2.99999994 11.9999999,3.44771519 11.9999999,3.99999994 L11.9999999,7.99999994 L9.99999994,7.99999994 L10,4.99999994 L4.99999994,4.99999994 L4.99999994,18.9999999 Z M17.1726054,10.9999999 L13.5857865,7.4142135 L15.0000001,5.99999994 L21.0013204,11.9999999 L15.0000001,17.9999999 L13.5857865,16.5857864 L17.1726054,12.9999999 L9.00000006,12.9999999 L9.00000006,10.9999999 L17.1726054,10.9999999 Z"/>
</svg>
