<svg xmlns="http://www.w3.org/2000/svg" width="24" height="24" viewBox="0 0 24 24"><path fill="#3E4042" fill-rule="evenodd" d="M19.9999989,4 C21.0999992,4 21.9999988,4.90000004 21.9999988,5.99999988 L21.9999988,17.9999992 C21.9999988,19.0999994 21.0999992,19.999999 19.9999989,19.999999 L3.99999988,19.999999 C2.90000004,19.999999 2,19.0999994 2,17.9999992 L2.00999999,5.99999988 C2.00999999,4.90000004 2.90000004,4 3.99999988,4 L19.9999989,4 Z M6.55470031,7.1679494 C6.09517162,6.86159695 5.47430228,6.98577082 5.16794982,7.44529951 C4.86159737,7.9048282 4.98577124,8.52569754 5.44529993,8.83205 L11.4452996,12.8320497 C11.781199,13.0559826 12.2188005,13.0559826 12.5547,12.8320497 L18.5546996,8.83205 C19.0142283,8.52569754 19.1384022,7.9048282 18.8320497,7.44529951 C18.5256972,6.98577082 17.9048279,6.86159695 17.4452992,7.1679494 L11.9999998,10.798149 L6.55470031,7.1679494 Z"/></svg>