<svg xmlns="http://www.w3.org/2000/svg" width="24" height="24" viewBox="0 0 24 24">
  <path fill="#3E4042" fill-rule="evenodd" d="M4,4 L20,4 C21.1045695,4 22,4.8954305 22,6 L22,18 C22,19.1045695 21.1045695,20 20,20 L4,20 C2.8954305,20 2,19.1045695 2,18 L2,6 C2,4.8954305 2.8954305,4 4,4 Z M4,6 L4,18 L20,18 L20,6 L4,6 Z M7.51449574,8.14250653 L11.9999996,10.8338088 L16.4855035,8.14250653 C16.9590838,7.85835837 17.5733441,8.01192345 17.8574922,8.48550372 C18.1416404,8.95908398 17.9880753,9.57334424 17.514495,9.85749239 L12.5144954,12.8574921 C12.197813,13.0475015 11.8021863,13.0475015 11.4855039,12.8574921 L6.48550426,9.85749239 C6.01192399,9.57334424 5.85835891,8.95908398 6.14250707,8.48550372 C6.42665522,8.01192345 7.04091548,7.85835837 7.51449574,8.14250653 Z"/>
</svg>
