<svg height="24" viewBox="0 0 24 24" width="24" xmlns="http://www.w3.org/2000/svg"><path d="m4 4h16c1.1045695 0 2 .8954305 2 2v12c0 1.1045695-.8954305 2-2 2h-16c-1.1045695 0-2-.8954305-2-2v-12c0-1.1045695.8954305-2 2-2zm0 2v12h16v-12zm3.51449574 2.14250653 4.48550386 2.69130227 4.4855039-2.69130227c.4735803-.28414816 1.0878406-.13058308 1.3719887.34299719.2841482.47358026.1305831 1.08784052-.3429972 1.37198867l-4.9999996 2.99999971c-.3166824.1900094-.7123091.1900094-1.0289915 0l-4.99999964-2.99999971c-.47358027-.28414815-.62714535-.89840841-.34299719-1.37198867.28414815-.47358027.89840841-.62714535 1.37198867-.34299719z" fill="#3e4042" fill-rule="evenodd"/></svg>