<svg width="24" height="24" viewBox="0 0 24 24" fill="none" xmlns="http://www.w3.org/2000/svg">
<path fill-rule="evenodd" clip-rule="evenodd" d="M7.00009 11V13H17.0001V11H7.00009ZM12.0001 2C6.48009 2 2.00009 6.48 2.00009 12C2.00009 17.52 6.48009 22 12.0001 22C17.5201 22 22.0001 17.52 22.0001 12C22.0001 6.48 17.5201 2 12.0001 2ZM12.0001 20C7.59009 20 4.00009 16.41 4.00009 12C4.00009 7.59 7.59009 4 12.0001 4C16.4101 4 20.0001 7.59 20.0001 12C20.0001 16.41 16.4101 20 12.0001 20Z" fill="#3E4042"/>
</svg>
