<svg xmlns="http://www.w3.org/2000/svg" width="24" height="24" viewBox="0 0 24 24"><path fill="#3E4042" fill-rule="evenodd" d="M7.00009958,10.9999993 L7.00009958,12.9999992 L17.000099,12.9999992 L17.000099,10.9999993 L7.00009958,10.9999993 L7.00009958,10.9999993 Z M12.0000993,1.99999988 C6.48009962,1.99999988 2.00009988,6.47999962 2.00009988,11.9999993 C2.00009988,17.5199993 6.48009962,21.9999987 12.0000993,21.9999987 C17.5200993,21.9999987 22.0000987,17.5199993 22.0000987,11.9999993 C22.0000987,6.47999915 17.5200993,1.99999988 12.0000993,1.99999988 L12.0000993,1.99999988 Z M12.0000993,19.9999988 C7.59009969,19.9999988 4.00009976,16.4099988 4.00009976,11.9999993 C4.00009976,7.58999969 7.59009969,3.99999976 12.0000993,3.99999976 C16.4100988,3.99999976 20.0000988,7.58999969 20.0000988,11.9999993 C20.0000988,16.4099988 16.4100988,19.9999988 12.0000993,19.9999988 L12.0000993,19.9999988 Z"/></svg>