<svg xmlns="http://www.w3.org/2000/svg" width="24" height="24" viewBox="0 0 24 24"><path fill="#3E4042" fill-rule="evenodd" d="M4.98328245,3.5 L17.3802605,3.5 C17.6518856,3.5 17.9153361,3.59292725 18.1268494,3.76334533 L20.5566195,5.72103172 C20.8369852,5.9469248 21,6.28761053 21,6.64765586 L21,16.3913359 C21,17.4866726 20.1120542,18.3746184 19.0167176,18.3746184 L10.6066093,18.3746184 C9.76962456,18.3746184 8.96653453,18.7052965 8.37221825,19.294645 L6.43316458,21.2174905 C6.07313099,21.5745147 5.50176545,21.602432 5.10864106,21.2822076 L3.14614596,19.6836328 C3.05367059,19.6083059 3,19.495365 3,19.3760928 L3,5.48328245 C3,4.3879458 3.8879458,3.5 4.98328245,3.5 Z M5.28662596,4.19414189 L5.28662596,4.19391994 C5.28655197,4.19391994 5.28647798,4.19391994 5.28640398,4.19391995 C4.41013467,4.19404639 3.69988054,4.90450552 3.70000698,5.78077483 L3.70215006,19.095155 C3.70215795,19.1498402 3.72474506,19.2020954 3.76457234,19.2395689 C3.84434577,19.3146277 3.96986209,19.3108057 4.04492089,19.2310323 L5.29111111,17.9065656 C6.30505416,16.8289341 7.71902126,16.2178744 9.1986733,16.2178744 L16.913374,16.2178731 C17.7896429,16.2178731 18.4999993,15.5075173 18.5,14.6312484 L18.5000166,5.78070164 C18.5000127,4.90443232 17.789653,4.1940788 16.9133837,4.19408265 L5.28662596,4.19414189 Z M7.75,7.86322138 C8.27467051,7.86322138 8.7,8.28855087 8.7,8.81322138 L8.7,11.1772786 C8.7,11.7019492 8.27467051,12.1272786 7.75,12.1272786 C7.22532949,12.1272786 6.8,11.7019492 6.8,11.1772786 L6.8,8.81322138 C6.8,8.28855087 7.22532949,7.86322138 7.75,7.86322138 Z M14.35,7.86322138 C14.8746705,7.86322138 15.3,8.28855087 15.3,8.81322138 L15.3,11.1772786 C15.3,11.7019492 14.8746705,12.1272786 14.35,12.1272786 C13.8253295,12.1272786 13.4,11.7019492 13.4,11.1772786 L13.4,8.81322138 C13.4,8.28855087 13.8253295,7.86322138 14.35,7.86322138 Z"/></svg>