<svg xmlns="http://www.w3.org/2000/svg" width="24" height="24"><path fill="#1B1C1D" fill-rule="evenodd" d="M4.983 3.5H17.38a1.19 1.19 0 0 1 .747.263l2.43 1.958a1.19 1.19 0 0 1 .443.927v9.744c0 1.095-.888 1.983-1.983 1.983h-8.41c-.837 0-1.64.331-2.234.92l-1.939 1.923a.99.99 0 0 1-1.325.065l-1.962-1.599c-.092-.075-.146-.188-.146-.308V5.483A1.98 1.98 0 0 1 4.983 3.5zm.303.694h0a1.59 1.59 0 0 0-1.587 1.587l.002 13.314c0 .055.023.107.062.144.08.075.205.071.28-.009l1.246-1.324c1.014-1.078 2.428-1.689 3.908-1.689h7.715c.876 0 1.587-.71 1.587-1.587V5.781c0-.876-.71-1.587-1.587-1.587H5.287zM7.75 7.863a.95.95 0 0 1 .95.95v2.364a.95.95 0 0 1-1.9 0V8.813a.95.95 0 0 1 .95-.95zm6.6 0a.95.95 0 0 1 .95.95v2.364a.95.95 0 1 1-1.9 0V8.813a.95.95 0 0 1 .95-.95z"/></svg>