<svg xmlns="http://www.w3.org/2000/svg" width="24" height="24" fill="none"  xmlns:v="https://vecta.io/nano"><path fill-rule="evenodd" d="M22 11c0-1.864-1.275-3.43-3-3.874V3a1 1 0 0 0-1.515-.858L12.723 5H8a6 6 0 0 0-6 6c0 2.973 2.162 5.441 5 5.917V20a1 1 0 0 0 1 1h2a1 1 0 0 0 1-1v-3h1.723l4.762 2.858A1 1 0 0 0 19 19v-4.126c1.725-.444 3-2.01 3-3.874zM7.984 15H13a1 1 0 0 1 .515.143L17 17.234V4.766l-3.485 2.091A1 1 0 0 1 13 7H8a4 4 0 1 0-.016 8zM20 11a2 2 0 0 1-1 1.732V9.268A2 2 0 0 1 20 11z" fill="#1B1C1D"/></svg>