<svg xmlns="http://www.w3.org/2000/svg" width="24" height="24" viewBox="0 0 24 24"><path fill="#3E4042" fill-rule="evenodd" d="M13.9999992,1.99999988 L5.99999964,1.99999988 C4.8999998,1.99999988 4.00999998,2.89999992 4.00999998,3.99999976 L3.99999976,19.9999988 C3.99999976,21.099999 4.88999957,21.9999987 5.98999941,21.9999987 L17.9999989,21.9999987 C19.0999992,21.9999987 19.9999988,21.099999 19.9999988,19.9999988 L19.9999988,7.99999952 L13.9999992,1.99999988 Z M15.999999,17.9999989 L7.99999952,17.9999989 L7.99999952,15.999999 L15.999999,15.999999 L15.999999,17.9999989 Z M15.999999,13.9999992 L7.99999952,13.9999992 L7.99999952,11.9999993 L15.999999,11.9999993 L15.999999,13.9999992 Z M12.9999992,8.99999946 L12.9999992,3.49999979 L18.4999989,8.99999946 L12.9999992,8.99999946 Z"/></svg>