<svg width="20" height="20" viewBox="0 0 20 20" fill="none" xmlns="http://www.w3.org/2000/svg">
<path d="M17.0833 1.91611C17.0833 1.79143 16.9587 1.66675 16.834 1.66675H3.1659C3.04126 1.66675 2.91663 1.79143 2.91663 1.91611V18.084C2.91663 18.2087 3.04126 18.3334 3.1659 18.3334H11.4748C11.5994 18.3334 11.6825 18.2919 11.7656 18.2088L16.9171 13.055C17.0002 12.9718 17.0417 12.8887 17.0417 12.764V1.91611H17.0833ZM11.2671 12.6809V16.2137H5.0354V3.74489H15.0061V12.4731H11.4748C11.3502 12.4731 11.2671 12.5562 11.2671 12.6809Z" fill="#1B1C1D"/>
<path d="M12.7211 7.69335H7.32028C7.19565 7.69335 7.11256 7.61023 7.11256 7.48554V6.65428C7.11256 6.52959 7.19565 6.44647 7.32028 6.44647H12.7211C12.8457 6.44647 12.9288 6.52959 12.9288 6.65428V7.48554C12.9288 7.61023 12.8457 7.69335 12.7211 7.69335Z" fill="#1B1C1D"/>
<path d="M12.7211 10.6027H7.32028C7.19565 10.6027 7.11256 10.5196 7.11256 10.3949V9.56368C7.11256 9.43899 7.19565 9.35586 7.32028 9.35586H12.7211C12.8457 9.35586 12.9288 9.43899 12.9288 9.56368V10.3949C12.9288 10.5196 12.8457 10.6027 12.7211 10.6027Z" fill="#1B1C1D"/>
</svg>
