<svg xmlns="http://www.w3.org/2000/svg" width="24" height="24" viewBox="0 0 24 24"><path fill="#3E4042" fill-rule="evenodd" d="M17.9999995,21.0000003 L17.9999995,19.0000003 C17.9999995,16.6526731 16.5045269,13.0000003 12,13.0000003 C7.49547299,13.0000003 6.00000054,16.6526731 6.00000054,19.0000003 L6.00000054,21.0000003 L4.00000054,21.0000003 L4.00000054,19.0000003 C4.00000054,16.1743764 5.60717201,12.4562911 9.50485043,11.3344012 C8.00740288,10.4708793 7.00000054,8.85362652 7.00000054,7 C7.00000054,4.2375001 9.23750037,2.00000027 12.0000003,2.00000027 C14.7625001,2.00000027 17,4.2375001 17,7 C17,8.8536266 15.9925976,10.4708794 14.4951499,11.3344013 C18.392828,12.4562914 19.9999995,16.1743765 19.9999995,19.0000003 L19.9999995,21.0000003 L17.9999995,21.0000003 Z M12.0000003,9.99999973 C13.6579306,9.99999973 15,8.65793035 15,7 C15,5.34206962 13.6579306,4.00000027 12.0000003,4.00000027 C10.3420699,4.00000027 9.00000054,5.3420696 9.00000054,7 C9.00000054,8.65793037 10.3420699,9.99999973 12.0000003,9.99999973 Z"/></svg>