<svg width="24" height="24" viewBox="0 0 24 24" fill="none" xmlns="http://www.w3.org/2000/svg">
<path fill-rule="evenodd" clip-rule="evenodd" d="M8.44288 12.8324C6.96118 11.7398 6 9.98217 6 8C6 4.68629 8.68629 2 12 2C15.3137 2 18 4.68629 18 8C18 9.98217 17.0388 11.7398 15.5571 12.8324C18.1904 14.1417 20 16.8595 20 20V21H18V20C18 16.6863 15.3137 14 12 14C8.68629 14 6 16.6863 6 20V21H4V20C4 16.8595 5.80956 14.1417 8.44288 12.8324ZM16 8C16 10.2091 14.2091 12 12 12C9.79086 12 8 10.2091 8 8C8 5.79086 9.79086 4 12 4C14.2091 4 16 5.79086 16 8Z" fill="#1B1C1D"/>
</svg>
