<svg width="24" height="24" viewBox="0 0 24 24" fill="none" xmlns="http://www.w3.org/2000/svg">
<path d="M18 22C18.5523 22 19 21.5772 19 21.0556V20H4V5H3C2.44772 5 2 5.42284 2 5.94444V21.0556C2 21.5772 2.44772 22 3 22H18Z" fill="#1B1C1D"/>
<path fill-rule="evenodd" clip-rule="evenodd" d="M7 2H21C21.5523 2 22 2.42284 22 2.94444V17.0556C22 17.5772 21.5523 18 21 18H7C6.44772 18 6 17.5772 6 17.0556V2.94444C6 2.42284 6.44772 2 7 2ZM8 4V16H20V4H8ZM12 11L13 12L15 9.5L18.5 14H9.5L12 11Z" fill="#1B1C1D"/>
</svg>
