<svg xmlns="http://www.w3.org/2000/svg" width="24" height="24" viewBox="0 0 24 24">
  <path fill="#3E4042" fill-rule="evenodd" d="M2.51363206,11.4863679 C2.50644855,11.3550201 2.50190453,11.220307 2.5,11.0822287 L2.5,9.2133874 C2.5,7.84969273 2.74691111,6.80654992 3.24074074,6.08392766 C3.73457037,5.36130541 4.44359035,4.9999997 5.36782195,4.9999997 C6.29205355,4.9999997 7.00107353,5.35790755 7.49490316,6.07373398 C7.98873279,6.78956042 8.24017438,7.81118346 8.24923547,9.13863375 L8.24923547,9.75076453 L6.5,11.5 L6.31923208,11.3192321 L6.31923208,8.93476015 C6.31923208,8.15550605 6.24221393,7.57107425 6.08817533,7.1814472 C5.93413673,6.79182016 5.69402134,6.59700955 5.36782195,6.59700955 C4.7561981,6.59700955 4.43906456,7.31056001 4.41641182,8.73768234 L4.41641182,9.58358818 L2.51363206,11.4863679 Z M10.6443284,14.3556716 C10.5958877,14.5362409 10.5008876,14.6898541 10.3593272,14.8165135 C10.2585925,14.9066445 10.1466907,14.9756803 10.023621,15.023621 L10,15 L10.6443284,14.3556716 Z M10.9811417,14.0188583 L12,13 L11.7252434,12.7252434 L13.6586816,10.2667343 C13.9984726,9.79555743 14.2487816,9.38215121 14.409616,9.02650327 C14.5704505,8.67085532 14.6508665,8.32993677 14.6508665,8.00373738 C14.6508665,7.56427432 14.5749809,7.21995791 14.4232076,6.97077782 C14.2714343,6.72159773 14.0528387,6.59700955 13.7674142,6.59700955 C13.4548065,6.59700955 13.2067627,6.74198489 13.0232756,7.0319399 C12.8397884,7.32189491 12.7480462,7.72963803 12.7480462,8.25518149 L10.8180428,8.25518149 C10.8180428,7.64808818 10.9437636,7.09310449 11.195209,6.59021377 C11.4466543,6.08732304 11.8000317,5.69656922 12.2553517,5.41794058 C12.7106717,5.13931193 13.2260137,4.9999997 13.8013931,4.9999997 C14.6848498,4.9999997 15.3700848,5.24351295 15.8571186,5.73054676 C16.3441524,6.21758057 16.5876656,6.90961125 16.5876656,7.80665957 C16.5876656,8.36391686 16.4528839,8.92909413 16.1833163,9.50220833 C15.9137488,10.0753225 15.4255897,10.7809447 14.7188243,11.6190959 L13.4480122,13.4335709 L16.8119266,13.4335709 L16.8119266,15.0305807 L10.9811417,15.0305807 L10.9811417,14.0188583 Z M16.9138634,10.1647975 L17.40316,5.13591543 L22.1941896,5.13591543 L22.1941896,6.78049579 L18.9797825,6.78049579 L18.8030921,8.90078122 C19.1745969,8.65160113 19.5574224,8.52701295 19.95158,8.52701295 C20.7670785,8.52701295 21.3956825,8.81696361 21.8374108,9.39687364 C22.2791391,9.97678366 22.5,10.7968004 22.5,11.8569484 C22.5,12.8491382 22.2372322,13.6487678 21.7116888,14.2558611 C21.1861453,14.8629544 20.483921,15.1664965 19.6049949,15.1664965 C19.083982,15.1664965 18.601486,15.0430409 18.1574924,14.7961261 C17.7134987,14.5492113 17.3635192,14.2060275 17.1075433,13.7665644 C16.8515674,13.3271014 16.7213161,12.8287487 16.7167856,12.2714914 L18.6196058,12.2714914 C18.6513197,12.6837712 18.7532555,13.0031699 18.9254162,13.2296973 C19.097577,13.4562246 19.3195705,13.5694866 19.5914033,13.5694866 C19.9085416,13.5694866 20.1531875,13.4165829 20.3253483,13.110771 C20.4975091,12.8049591 20.5835882,12.3485133 20.5835882,11.74142 C20.5835882,11.1705711 20.4805198,10.7401756 20.2743799,10.4502206 C20.06824,10.1602656 19.779422,10.0152902 19.4079171,10.0152902 C19.0454733,10.0152902 18.7645836,10.1398784 18.5652396,10.3890585 L18.4429154,10.5589531 L16.9138634,10.1647975 Z M9.5,13 L7.5,14.9999993 L9.5,17 L8.5,18 L6.5,16 L4.5,18 L3.5,17 L5.5,15 L3.5,13 L4.5,12 L6.49999946,14 L8.5,12 L9.5,13 Z"/>
</svg>
