<svg xmlns="http://www.w3.org/2000/svg" width="24" height="24" viewBox="0 0 24 24">
  <path fill="#3E4042" fill-rule="evenodd" d="M11.3969658,12.3969658 L9.19140625,10.1914063 L9.19140625,9.5234372 C9.19140625,8.62759939 9.10286547,7.95573111 8.92578125,7.5078122 C8.74869703,7.05989329 8.47265813,6.8359372 8.09765625,6.8359372 C7.39452773,6.8359372 7.02994805,7.6562415 7.00390625,9.2968747 L7.00390625,10.9960938 L6.5,11.5 L4.80085236,9.80085236 C4.80599412,8.25414134 5.08982181,7.06923336 5.65234375,6.24609345 C6.22005492,5.41536013 7.03515094,4.9999997 8.09765625,4.9999997 C9.16016156,4.9999997 9.97525758,5.41145392 10.5429688,6.2343747 C11.1106799,7.05729548 11.3997395,8.2317629 11.4101562,9.7578122 L11.4101562,11.8281247 C11.4101562,12.0234405 11.4057594,12.2130542 11.3969658,12.3969658 Z M11.6367188,15.4062497 C11.6367188,15.0520813 11.7552071,14.7604175 11.9921875,14.5312497 C12.2291679,14.3020819 12.5377585,14.1874997 12.9179688,14.1874997 C13.2877623,14.1874997 13.5950509,14.3007798 13.8398438,14.5273435 C14.0846366,14.7539071 14.2070312,15.0468729 14.2070312,15.4062497 C14.2070312,15.7708349 14.0833346,16.0638007 13.8359375,16.285156 C13.5885404,16.5065112 13.2825539,16.6171872 12.9179688,16.6171872 C12.5481752,16.6171872 12.2421887,16.5052092 12,16.2812497 C11.7578113,16.0572902 11.6367188,15.7656265 11.6367188,15.4062497 Z M14.7773438,10.9374997 L15.3398438,5.1562497 L20.8476562,5.1562497 L20.8476562,7.0468747 L17.1523438,7.0468747 L16.9492188,9.4843747 C17.3763042,9.19791493 17.816404,9.0546872 18.2695312,9.0546872 C19.2070359,9.0546872 19.929685,9.3880172 20.4375,10.0546872 C20.945315,10.7213572 21.1992188,11.6640561 21.1992188,12.8828122 C21.1992188,14.0234429 20.8971384,14.9427045 20.2929688,15.6406247 C19.6887991,16.3385449 18.8815155,16.6874997 17.8710938,16.6874997 C17.2721324,16.6874997 16.7174505,16.545574 16.2070312,16.2617185 C15.696612,15.9778629 15.2942723,15.5833356 15,15.0781247 C14.7057277,14.5729138 14.5559896,14.0000029 14.5507812,13.3593747 L16.7382812,13.3593747 C16.7747398,13.8333354 16.8919261,14.2005192 17.0898438,14.4609372 C17.2877614,14.7213552 17.5429672,14.8515622 17.8554688,14.8515622 C18.2200539,14.8515622 18.5013011,14.6757827 18.6992188,14.3242185 C18.8971364,13.9726542 18.9960938,13.4479199 18.9960938,12.7499997 C18.9960938,12.0937464 18.8776054,11.5989597 18.640625,11.2656247 C18.4036446,10.9322897 18.0716167,10.7656247 17.6445312,10.7656247 C17.2278625,10.7656247 16.9049491,10.9088524 16.6757812,11.1953122 L16.5351562,11.3906247 L14.7773438,10.9374997 Z M9.5,13 L7.5,14.9999993 L9.5,17 L8.5,18 L6.5,16 L4.5,18 L3.5,17 L5.5,15 L3.5,13 L4.5,12 L6.49999946,14 L8.5,12 L9.5,13 Z"/>
</svg>
