<svg xmlns="http://www.w3.org/2000/svg" width="24" height="24" viewBox="0 0 24 24">
  <path fill="#3E4042" fill-rule="evenodd" d="M7.44921875,10.5507813 L7.44921875,7.7031247 L5.28515625,8.5390622 L5.28515625,6.6953122 L9.43359375,4.9999997 L9.66796875,4.9999997 L9.66796875,10.6679688 L8.5,9.5 L7.44921875,10.5507813 Z M11.6367188,15.2656247 C11.6367188,14.9114563 11.7552071,14.6197925 11.9921875,14.3906247 C12.2291679,14.1614569 12.5377585,14.0468747 12.9179688,14.0468747 C13.2877623,14.0468747 13.5950509,14.1601548 13.8398437,14.3867185 C14.0846366,14.6132821 14.2070312,14.9062479 14.2070312,15.2656247 C14.2070312,15.6302099 14.0833346,15.9231757 13.8359375,16.144531 C13.5885404,16.3658862 13.2825539,16.4765622 12.9179688,16.4765622 C12.5481752,16.4765622 12.2421887,16.3645842 12,16.1406247 C11.7578113,15.9166652 11.6367188,15.6250015 11.6367188,15.2656247 Z M14.7773438,10.7968747 L15.3398438,5.0156247 L20.8476562,5.0156247 L20.8476562,6.9062497 L17.1523438,6.9062497 L16.9492188,9.3437497 C17.3763042,9.05728993 17.816404,8.9140622 18.2695312,8.9140622 C19.2070359,8.9140622 19.929685,9.2473922 20.4375,9.9140622 C20.945315,10.5807322 21.1992188,11.5234311 21.1992188,12.7421872 C21.1992188,13.8828179 20.8971384,14.8020795 20.2929688,15.4999997 C19.6887991,16.1979199 18.8815155,16.5468747 17.8710938,16.5468747 C17.2721324,16.5468747 16.7174505,16.404949 16.2070312,16.1210935 C15.696612,15.8372379 15.2942723,15.4427106 15,14.9374997 C14.7057277,14.4322888 14.5559896,13.8593779 14.5507812,13.2187497 L16.7382812,13.2187497 C16.7747398,13.6927104 16.8919261,14.0598942 17.0898438,14.3203122 C17.2877614,14.5807302 17.5429672,14.7109372 17.8554688,14.7109372 C18.2200539,14.7109372 18.5013011,14.5351577 18.6992188,14.1835935 C18.8971364,13.8320292 18.9960938,13.3072949 18.9960938,12.6093747 C18.9960938,11.9531214 18.8776054,11.4583347 18.640625,11.1249997 C18.4036446,10.7916647 18.0716167,10.6249997 17.6445312,10.6249997 C17.2278625,10.6249997 16.9049491,10.7682274 16.6757812,11.0546872 L16.5351562,11.2499997 L14.7773438,10.7968747 Z M9.5,13 L7.5,14.9999993 L9.5,17 L8.5,18 L6.5,16 L4.5,18 L3.5,17 L5.5,15 L3.5,13 L4.5,12 L6.49999946,14 L8.5,12 L9.5,13 Z"/>
</svg>
