<svg xmlns="http://www.w3.org/2000/svg" width="24" height="24" viewBox="0 0 24 24">
  <path fill="#3E4042" fill-rule="evenodd" d="M20.9526947,18.4999992 L12.1627218,18.4999992 L12.1627218,16.7560968 L16.3110958,12.3346876 C16.880656,11.7122816 17.3019481,11.1691524 17.5749847,10.7052838 C17.8480213,10.2414151 17.9845375,9.80104015 17.9845375,9.38414556 C17.9845375,8.81458535 17.8406817,8.36687077 17.5529657,8.04098838 C17.2652497,7.71510599 16.8542331,7.55216724 16.3199034,7.55216724 C15.7444714,7.55216724 15.2908852,7.75033599 14.959131,8.14667944 C14.6273769,8.54302288 14.4615023,9.0641333 14.4615023,9.71002632 L11.9073018,9.71002632 C11.9073018,8.92908294 12.0937272,8.21567544 12.4665836,7.56978242 C12.83944,6.9238894 13.3664221,6.41745815 14.0475457,6.05047347 C14.7286692,5.6834888 15.5007934,5.49999922 16.3639413,5.49999922 C17.6850861,5.49999922 18.7111599,5.81706922 19.4421934,6.45121873 C20.1732268,7.08536824 20.5387381,7.98079741 20.5387381,9.1375331 C20.5387381,9.77168261 20.3743314,10.4175659 20.0455131,11.0752025 C19.7166949,11.732839 19.1530149,12.4990915 18.3544562,13.373983 L15.4391446,16.4478312 L20.9526947,16.4478312 L20.9526947,18.4999992 Z M9.5,13 L7.5,14.9999993 L9.5,17 L8.5,18 L6.5,16 L4.5,18 L3.5,17 L5.5,15 L3.5,13 L4.5,12 L6.49999946,14 L8.5,12 L9.5,13 Z"/>
</svg>
