<svg xmlns="http://www.w3.org/2000/svg" width="24" height="24" fill="none"  xmlns:v="https://vecta.io/nano"><path fill-rule="evenodd" d="M12 2a10 10 0 1 1 0 20c-3.644 0-6.832-1.949-8.58-4.861l1.71-1.038C6.527 18.437 9.081 20 12 20a8 8 0 1 0 0-16 7.97 7.97 0 0 0-5.135 1.865L9 8H3V2l2.447 2.447A9.96 9.96 0 0 1 12 2zm-.04 14c-1.697 0-2.854-1.022-2.903-2.416h1.508c.092.649.665 1.081 1.405 1.081.838 0 1.416-.562 1.416-1.411 0-.859-.584-1.432-1.411-1.432-.605 0-1.065.265-1.335.703H9.181L9.57 8h4.903v1.357h-3.638l-.173 2.005h.097c.33-.476.881-.762 1.654-.762 1.481 0 2.53 1.087 2.53 2.616 0 1.654-1.195 2.784-2.984 2.784z" fill="#1b1c1d"/></svg>