<svg width="24" height="24" viewBox="0 0 24 24" fill="none" xmlns="http://www.w3.org/2000/svg">
<path fill-rule="evenodd" clip-rule="evenodd" d="M11 14.6667L4.5547 18.9636C4.09516 19.2699 3.4743 19.1457 3.16795 18.6862C3.05844 18.5219 3 18.3289 3 18.1315V5.86853C3 5.31625 3.44772 4.86853 4 4.86853C4.19743 4.86853 4.39044 4.92697 4.55471 5.03648L11 9.3334V5.86853C11 5.31625 11.4477 4.86853 12 4.86853C12.1974 4.86853 12.3904 4.92697 12.5547 5.03648L21.7519 11.168C22.2115 11.4744 22.3356 12.0953 22.0293 12.5548C21.956 12.6647 21.8618 12.7589 21.7519 12.8321L12.5547 18.9636C12.0952 19.2699 11.4743 19.1457 11.1679 18.6862C11.0584 18.5219 11 18.3289 11 18.1315V14.6667Z" fill="#3E4042"/>
</svg>
