<svg xmlns="http://www.w3.org/2000/svg" width="24" height="24" viewBox="0 0 24 24"><path fill="#3E4042" fill-rule="evenodd" d="M12,2 C17.5228475,2 22,6.4771525 22,12 C22,17.5228475 17.5228475,22 12,22 C8.35616703,22 5.16752735,20.0510859 3.41959962,17.1387762 L5.1298202,16.1012424 C6.52688829,18.4365051 9.08085724,20 12,20 C16.418278,20 20,16.418278 20,12 C20,7.581722 16.418278,4 12,4 C10.0454529,4 8.25461809,4.70093553 6.86515106,5.86515106 L9,8 L3,8 L3,2 L5.44652311,4.44652311 C7.20160164,2.92248556 9.4930718,2 12,2 Z M11.9594595,16 C10.2621622,16 9.10540541,14.9783784 9.05675676,13.5837838 L10.5648649,13.5837838 C10.6567568,14.2324324 11.2297297,14.6648649 11.9702703,14.6648649 C12.8081081,14.6648649 13.3864865,14.1027027 13.3864865,13.2540541 C13.3864865,12.3945946 12.8027027,11.8216216 11.9756757,11.8216216 C11.3702703,11.8216216 10.9108108,12.0864865 10.6405405,12.5243243 L9.18108108,12.5243243 L9.57027027,8 L14.472973,8 L14.472973,9.35675676 L10.8351351,9.35675676 L10.6621622,11.3621622 L10.7594595,11.3621622 C11.0891892,10.8864865 11.6405405,10.6 12.4135135,10.6 C13.8945946,10.6 14.9432432,11.6864865 14.9432432,13.2162162 C14.9432432,14.8702703 13.7486486,16 11.9594595,16 Z"/></svg>