<svg xmlns="http://www.w3.org/2000/svg" width="24" height="24" viewBox="0 0 24 24">
  <path fill="#3E4042" fill-rule="evenodd" d="M11,14.6667377 L4.55469508,18.9635504 C4.09516451,19.2699001 3.47429593,19.1457224 3.1679463,18.6861918 C3.05843679,18.5219253 3,18.3289196 3,18.1314967 L3,5.8685309 C3,5.31624615 3.44771525,4.8685309 4,4.8685309 C4.19742708,4.8685309 4.39043673,4.92697016 4.55470531,5.03648401 L11,9.33340438 L11,5.8685309 C11,5.31624615 11.4477153,4.8685309 12,4.8685309 C12.1974271,4.8685309 12.3904367,4.92697016 12.5547053,5.03648401 L21.7519297,11.1680486 C22.2114565,11.4744039 22.3356265,12.095274 22.0292712,12.5548008 C21.9560357,12.6646526 21.8617722,12.758915 21.7519194,12.8321492 L12.5546951,18.9635504 C12.0951645,19.2699001 11.4742959,19.1457224 11.1679463,18.6861918 C11.0584368,18.5219253 11,18.3289196 11,18.1314967 L11,14.6667377 Z"/>
</svg>
