<svg xmlns="http://www.w3.org/2000/svg" width="24" height="24" viewBox="0 0 24 24"><path fill="#3E4042" fill-rule="evenodd" d="M19.3817389,14.9995358 L12.0007389,14.9995358 L12.0007389,13.9995358 L15.0007389,13.9995358 C15.5527389,13.9995358 16.0007389,13.5515358 16.0007389,12.9995358 L16.0007389,8.99953584 L19.3817389,8.99953584 L18.1057389,11.5515358 C17.9647389,11.8335358 17.9647389,12.1655358 18.1057389,12.4465358 L19.3817389,14.9995358 Z M4.69173894,5.99953584 L14.0007389,5.99953584 L14.0007389,11.9995358 L6.02573894,11.9995358 L4.69173894,5.99953584 Z M20.1187389,11.9995358 L21.8947389,8.44653584 C22.0497389,8.13653584 22.0337389,7.76853584 21.8507389,7.47353584 C21.6687389,7.17853584 21.3467389,6.99953584 21.0007389,6.99953584 L16.0007389,6.99953584 L16.0007389,4.99953584 C16.0007389,4.44653584 15.5527389,3.99953584 15.0007389,3.99953584 L4.24773894,3.99953584 L3.97673894,2.78253584 C3.85673894,2.24353584 3.32173894,1.90753584 2.78373894,2.02253584 C2.24473894,2.14253584 1.90473894,2.67653584 2.02373894,3.21653584 L6.02373894,21.2165358 C6.12673894,21.6815358 6.54173894,21.9995358 6.99973894,21.9995358 C7.07173894,21.9995358 7.14373894,21.9915358 7.21673894,21.9755358 C7.75573894,21.8555358 8.09573894,21.3215358 7.97673894,20.7825358 L6.46973894,13.9995358 L10.0007389,13.9995358 L10.0007389,15.9995358 C10.0007389,16.5515358 10.4477389,16.9995358 11.0007389,16.9995358 L21.0007389,16.9995358 C21.3467389,16.9995358 21.6687389,16.8195358 21.8507389,16.5245358 C22.0337389,16.2295358 22.0497389,15.8615358 21.8947389,15.5515358 L20.1187389,11.9995358 Z"/></svg>