<svg xmlns="http://www.w3.org/2000/svg" width="24" height="24" fill="none"  xmlns:v="https://vecta.io/nano"><path fill-rule="evenodd" d="M19.382 15h-7.381v-1h3a1 1 0 0 0 1-1V9h3.381l-1.276 2.552a1 1 0 0 0 0 .895L19.382 15zM4.692 6h9.309v6H6.026L4.692 6zm15.427 6l1.776-3.553A1 1 0 0 0 21.001 7h-5V5a1 1 0 0 0-1-1H4.248l-.271-1.217c-.12-.539-.655-.875-1.193-.76a1 1 0 0 0-.76 1.194l4 18A1 1 0 0 0 7 22a1.01 1.01 0 0 0 .217-.024 1 1 0 0 0 .76-1.193L6.47 14h3.531v2a1 1 0 0 0 1 1h10a1 1 0 0 0 .894-1.448L20.119 12z" fill="#1b1c1d"/></svg>