<svg width="24" height="24" viewBox="0 0 24 24" fill="none" xmlns="http://www.w3.org/2000/svg">
<path fill-rule="evenodd" clip-rule="evenodd" d="M19 5H16.3333C14.1111 8.80516 13 11.8052 13 14C13 14.1698 13 14.3365 13 14.5C13 16.9853 15.0147 19 17.5 19C19.9853 19 22 16.9853 22 14.5C22 12.0147 19.9853 10 17.5 10H17L19 5ZM8 5H5.33333C3.11111 8.80516 2 11.8052 2 14C2 14.1698 2 14.3365 2 14.5C2 16.9853 4.01472 19 6.5 19C8.98528 19 11 16.9853 11 14.5C11 12.0147 8.98528 10 6.5 10H6L8 5Z" fill="#3E4042"/>
</svg>
