<svg xmlns="http://www.w3.org/2000/svg" width="24" height="24" viewBox="0 0 24 24"><path fill="#3E4042" fill-rule="evenodd" d="M5.00000075,19 L7.66666742,19 C9.88888989,15.1948439 11.0000009,12.1948442 11.0000004,10.0000008 C11.0000003,9.83017065 11.0000003,9.66350284 11.0000003,9.49999732 L10.9999982,9.49999732 C10.9999977,7.01471728 8.98528004,5 6.5,5 L6.5,5 C4.01471842,5 1.99999963,7.01471879 1.99999963,9.50000037 L1.99999963,9.5 C1.99999963,11.9852814 4.01471825,14 6.49999963,14 L6.99999963,14 L5.00000075,19 Z M16.0000008,19 L18.6666674,19 C20.8888899,15.1948439 22.0000009,12.1948442 22.0000004,10.0000008 C22.0000003,9.83017065 22.0000003,9.66350284 22.0000003,9.49999732 L21.9999982,9.49999732 C21.9999977,7.01471728 19.98528,5 17.5,5 L17.5,5 C15.0147184,5 12.9999996,7.01471879 12.9999996,9.50000037 L12.9999996,9.5 C12.9999996,11.9852814 15.0147183,14 17.4999996,14 L17.9999996,14 L16.0000008,19 Z" transform="rotate(180 12 12)"/></svg>