<svg xmlns="http://www.w3.org/2000/svg" width="24" height="24" fill="none"><path d="M19 2a1 1 0 0 1 1 1v18a1 1 0 0 1-.528.882c-.325.173-.72.154-1.027-.05l-2.318-1.545-1.42 1.42c-.195.196-.451.293-.707.293s-.512-.097-.707-.293L12 20.414l-1.293 1.293a1 1 0 0 1-1.414 0l-1.42-1.42-2.318 1.545c-.307.204-.703.223-1.027.05A1 1 0 0 1 4 21V3a1 1 0 0 1 1-1h14zm-1 17.132V4H6v15.132l1.445-.964a1 1 0 0 1 1.262.125L10 19.586l1.293-1.293c.195-.195.451-.293.707-.293s.512.098.707.293L14 19.586l1.293-1.293a1 1 0 0 1 1.262-.125l1.445.964zM9 6h6a1 1 0 1 1 0 2H9a1 1 0 1 1 0-2zm0 4h6a1 1 0 1 1 0 2H9a1 1 0 1 1 0-2zm0 4h6a1 1 0 1 1 0 2H9a1 1 0 1 1 0-2z" fill="#1B1C1D"/></svg>