<svg xmlns="http://www.w3.org/2000/svg" width="24" height="24" fill="none"><path fill-rule="evenodd" d="M2.368 21.632l.594-5.347C2.332 14.958 2 13.502 2 12 2 6.477 6.477 2 12 2s10 4.477 10 10-4.477 10-10 10c-1.502 0-2.958-.332-4.285-.962l-5.347.594zm2.264-2.264l3.452-.384.268.137A7.96 7.96 0 0 0 12 20a8 8 0 1 0 0-16 8 8 0 0 0-8 8 7.96 7.96 0 0 0 .878 3.648l.138.268-.384 3.452zM8 13a1 1 0 1 1 0-2 1 1 0 1 1 0 2zm4 0a1 1 0 1 1 0-2 1 1 0 1 1 0 2zm4 0a1 1 0 1 1 0-2 1 1 0 1 1 0 2z" fill="#1B1C1D"/></svg>