<svg width="24" height="24" viewBox="0 0 24 24" fill="none" xmlns="http://www.w3.org/2000/svg">
<path fill-rule="evenodd" clip-rule="evenodd" d="M7 16H15V18H6V20H18V18H17V14C17 11.2386 14.7614 9 12 9C9.23857 9 7 11.2386 7 14V16ZM19 16H20V22H4V16H5V14C5 10.134 8.134 7 12 7C15.866 7 19 10.134 19 14V16ZM12 1C12.5523 1 13 1.44772 13 2V4C13 4.55228 12.5523 5 12 5C11.4477 5 11 4.55228 11 4V2C11 1.44772 11.4477 1 12 1ZM21.1924 4.80761C21.5829 5.19814 21.5829 5.8313 21.1924 6.22183L19.7782 7.63604C19.3876 8.02656 18.7545 8.02656 18.364 7.63604C17.9734 7.24551 17.9734 6.61235 18.364 6.22183L19.7782 4.80761C20.1687 4.41709 20.8019 4.41709 21.1924 4.80761ZM2.80761 4.80761C3.19813 4.41709 3.8313 4.41709 4.22182 4.80761L5.63604 6.22183C6.02656 6.61235 6.02656 7.24551 5.63604 7.63604C5.24551 8.02656 4.61235 8.02656 4.22182 7.63604L2.80761 6.22183C2.41709 5.8313 2.41709 5.19814 2.80761 4.80761Z" fill="#1B1C1D"/>
</svg>
