<svg xmlns="http://www.w3.org/2000/svg" width="24" height="24" viewBox="0 0 24 24"><path fill="#3E4042" fill-rule="evenodd" d="M20.9999987,10.1199992 L14.2199993,10.1199992 L16.9599999,7.29999975 C14.2300005,4.6000001 9.81000078,4.49999973 7.08000045,7.19999985 C4.35000059,9.90999925 4.35000059,14.2799997 7.08000045,16.9899987 C9.81000078,19.6999995 14.2300005,19.6999995 16.9599999,16.9899987 C18.3199985,15.6499987 18.9999989,14.0799991 18.9999989,12.0999996 L20.9999987,12.0999996 C20.9999987,14.0799991 20.1199996,16.6500005 18.3599995,18.3899982 C14.8499994,21.8699976 9.15000002,21.8699976 5.64,18.3899982 C2.14000021,14.9199982 2.11000024,9.27999917 5.62000002,5.80999911 C9.12999956,2.33999929 14.7599993,2.33999929 18.2699993,5.80999911 L20.9999987,2.99999982 L20.9999987,10.1199992 Z"/></svg>