<svg xmlns="http://www.w3.org/2000/svg" width="24" height="24" viewBox="0 0 24 24">
  <path fill="#3E4042" fill-rule="evenodd" d="M21.893262,9.64999962 L19.8381985,9.64999962 C19.9448873,9.26504309 19.9999989,8.8828724 19.9999989,8.49999967 C19.9999989,6.49999979 18.499999,4.99999988 16.4999991,4.99999988 C14.9599992,4.99999988 13.4599993,5.98999959 12.9399988,7.35999987 L11.0699991,7.35999987 C10.5399994,5.98999959 9.03999954,4.99999988 7.49999967,4.99999988 C5.49999979,4.99999988 3.99999988,6.49999979 3.99999988,8.49999967 C3.99999988,11.3899998 7.13999955,14.239999 11.899999,18.5499983 L11.9999994,18.6499987 L14.9675342,18.6499996 C14.4810091,19.0951158 13.9745828,19.5543091 13.4499991,20.0299996 L11.9999994,21.3499992 L10.5499996,20.0399999 C5.39999989,15.3599999 2,12.2799991 2,8.49999967 C2,5.41999992 4.41999992,3 7.49999967,3 C9.23999934,3 10.9099993,3.80999989 11.9999994,5.09000002 C13.0899994,3.80999989 14.7599994,3 16.4999991,3 C19.5799988,3 21.9999988,5.41999992 21.9999988,8.49999967 C21.9999988,8.88994436 21.9638161,9.27243967 21.893262,9.64999962 Z M19,11.6499996 L19,14.6499996 L22,14.6499996 L22,16.6499996 L19,16.6499996 L19,19.6499996 L17,19.6499996 L17,16.6499996 L14,16.6499996 L14,14.6499996 L17,14.6499996 L17,11.6499996 L19,11.6499996 Z"/>
</svg>
