<svg xmlns="http://www.w3.org/2000/svg" width="24" height="24" viewBox="0 0 24 24"><path fill="#3E4042" fill-rule="evenodd" d="M15.593024,14.5391127 L20.5,19 L19,20.5 L14.5391127,15.593024 C13.4299415,16.4738523 12.026415,17 10.5,17 C6.91014913,17 4,14.0898509 4,10.5 C4,6.91014913 6.91014913,4 10.5,4 C14.0898509,4 17,6.91014913 17,10.5 C17,12.026415 16.4738523,13.4299415 15.593024,14.5391127 Z M10.5,15 C12.9852814,15 15,12.9852814 15,10.5 C15,8.01471863 12.9852814,6 10.5,6 C8.01471863,6 6,8.01471863 6,10.5 C6,12.9852814 8.01471863,15 10.5,15 Z"/></svg>