<svg xmlns="http://www.w3.org/2000/svg" width="24" height="24" viewBox="0 0 24 24">
  <path fill="#3E4042" fill-rule="evenodd" d="M4.53703143,12.75 C4.8888329,16.2933123 7.70668766,19.1111671 11.25,19.4629686 L11.25,17 L12.75,17 L12.75,19.4629686 C16.2933123,19.1111671 19.1111671,16.2933123 19.4629686,12.75 L17,12.75 L17,11.25 L19.4629686,11.25 C19.1111671,7.70668766 16.2933123,4.8888329 12.75,4.53703143 L12.75,7 L11.25,7 L11.25,4.53703143 C7.70668766,4.8888329 4.8888329,7.70668766 4.53703143,11.25 L7,11.25 L7,12.75 L4.53703143,12.75 Z M12,21 C7.02943725,21 3,16.9705627 3,12 C3,7.02943725 7.02943725,3 12,3 C16.9705627,3 21,7.02943725 21,12 C21,16.9705627 16.9705627,21 12,21 Z"/>
</svg>
