<svg xmlns="http://www.w3.org/2000/svg" width="24" height="24" fill="none"><path fill-rule="evenodd" d="M12 18a6.01 6.01 0 0 1-6-6 6.01 6.01 0 0 1 6-6 6.01 6.01 0 0 1 6 6 6.01 6.01 0 0 1-6 6zm.073-16.5h-.147C9.729 3.338 6.549 4.5 3 4.5V12c0 7.524 9 10.5 9 10.5s9-3 9-10.5V4.5c-3.549 0-6.729-1.162-8.926-3zm.426 10.754l.251 1.996h-1.5l.251-1.996c-.369-.186-.626-.562-.626-1.004 0-.621.504-1.125 1.125-1.125s1.125.504 1.125 1.125c0 .441-.257.818-.626 1.004zM12 7.5a4.5 4.5 0 1 0 0 9 4.5 4.5 0 1 0 0-9z" fill="#1B1C1D"/></svg>