<svg xmlns="http://www.w3.org/2000/svg" width="24" height="24" viewBox="0 0 24 24">
  <path fill="#3E4042" fill-rule="evenodd" d="M12,18 C8.6925,18 6,15.3075 6,12 C6,8.6925 8.6925,6 12,6 C15.3075,6 18,8.6925 18,12 C18,15.3075 15.3075,18 12,18 M12.0735,1.5 L11.9265,1.5 C9.729,3.3375 6.549,4.5 3,4.5 L3,12 C3,19.524 12,22.5 12,22.5 C12,22.5 21,19.5 21,12 L21,4.5 C17.451,4.5 14.271,3.3375 12.0735,1.5 M12.4995,12.2535 L12.75,14.25 L11.25,14.25 L11.5005,12.2535 C11.1315,12.0675 10.875,11.691 10.875,11.25 C10.875,10.629 11.379,10.125 12,10.125 C12.621,10.125 13.125,10.629 13.125,11.25 C13.125,11.691 12.8685,12.0675 12.4995,12.2535 M12,7.5 C9.5145,7.5 7.5,9.5145 7.5,12 C7.5,14.4855 9.5145,16.5 12,16.5 C14.4855,16.5 16.5,14.4855 16.5,12 C16.5,9.5145 14.4855,7.5 12,7.5"/>
</svg>
