<svg xmlns="http://www.w3.org/2000/svg" width="24" height="24" viewBox="0 0 24 24">
  <path fill="#3E4042" fill-rule="evenodd" d="M3.99999988,16.9999992 L2.99999988,16.9999992 C2.44771513,16.9999992 1.99999988,16.552284 1.99999988,15.9999992 L1.99999988,5 C1.99999988,4.44771525 2.44771513,4 2.99999988,4 L13.999999,4 C14.5522838,4 14.999999,4.44771525 14.999999,5 L14.999999,5.99999976 L18.9999989,5.99999976 L21.9999987,9.99999952 L21.9999987,15.9999992 C21.9999987,16.552284 21.5522834,16.9999992 20.9999987,16.9999992 L19.9999999,16.9999992 C19.9999999,18.6599998 18.6599997,20 16.9999999,20 C15.3399999,20 13.9999999,18.6599998 13.9999999,17 L9.99999988,16.9999992 C9.99999988,18.6599998 8.65999972,20 6.99999988,20 C5.34000002,20 3.99999988,18.6599998 3.99999988,17 Z M9.23832017,15 L12.999999,15 L12.999999,6 L3.99999988,6 L3.99999988,15 L4.76167958,15 C5.31055794,14.3858731 6.10920454,14 6.99999988,14 C7.89079521,14 8.68944181,14.3858731 9.23832017,15 Z M18,8 L14.9999999,8 L14.9999999,12 L19.9999999,12 L19.9999999,10.5 L18,8 Z M16.9999999,18 C17.5533331,18 17.9999999,17.5533333 17.9999999,17 C17.9999999,16.4466667 17.5533331,16 16.9999999,16 C16.4466665,16 15.9999999,16.4466667 15.9999999,17 C15.9999999,17.5533333 16.4466665,18 16.9999999,18 Z M6.99999988,18 C7.55333315,18 7.99999988,17.5533333 7.99999988,17 C7.99999988,16.4466667 7.55333315,16 6.99999988,16 C6.44666655,16 5.99999988,16.4466667 5.99999988,17 C5.99999988,17.5533333 6.44666655,18 6.99999988,18 Z"/>
</svg>
