<svg width="24" height="24" viewBox="0 0 24 24" fill="none" xmlns="http://www.w3.org/2000/svg">
<path fill-rule="evenodd" clip-rule="evenodd" d="M4 17H3C2.44772 17 2 16.5523 2 16V5C2 4.44772 2.44772 4 3 4H14C14.5523 4 15 4.44772 15 5V6H19L22 10V16C22 16.5523 21.5523 17 21 17H20C20 18.66 18.66 20 17 20C15.34 20 14 18.66 14 17H10C10 18.66 8.66 20 7 20C5.34 20 4 18.66 4 17ZM18 8H15V13H20V10.5L18 8ZM17 18C17.5533 18 18 17.5533 18 17C18 16.4467 17.5533 16 17 16C16.4467 16 16 16.4467 16 17C16 17.5533 16.4467 18 17 18ZM7 18C7.55333 18 8 17.5533 8 17C8 16.4467 7.55333 16 7 16C6.44667 16 6 16.4467 6 17C6 17.5533 6.44667 18 7 18Z" fill="#1B1C1D"/>
</svg>
