<svg xmlns="http://www.w3.org/2000/svg" width="24" height="24" fill="none" viewBox="0 0 24 24"><mask id="path-1-inside-1" fill="#fff"><path fill-rule="evenodd" d="M3 17C2.44772 17 2 17.4477 2 18C2 18.5523 2.44772 19 3 19H12C12.5523 19 13 18.5523 13 18C13 17.4477 12.5523 17 12 17H3Z" clip-rule="evenodd"/><path fill-rule="evenodd" d="M3 13C2.44772 13 2 13.4477 2 14C2 14.5523 2.44772 15 3 15H15C15.5523 15 16 14.5523 16 14C16 13.4477 15.5523 13 15 13H3Z" clip-rule="evenodd"/><path fill-rule="evenodd" d="M3 5C2.44771 5 2 5.44772 2 6C2 6.55228 2.44772 7 3 7H21C21.5523 7 22 6.55228 22 6C22 5.44772 21.5523 5 21 5H3Z" clip-rule="evenodd"/><path fill-rule="evenodd" d="M3 9C2.44772 9 2 9.44772 2 10C2 10.5523 2.44772 11 3 11H18C18.5523 11 19 10.5523 19 10C19 9.44772 18.5523 9 18 9H3Z" clip-rule="evenodd"/></mask><path fill="#3E4042" fill-rule="evenodd" d="M3 17C2.44772 17 2 17.4477 2 18C2 18.5523 2.44772 19 3 19H12C12.5523 19 13 18.5523 13 18C13 17.4477 12.5523 17 12 17H3Z" clip-rule="evenodd"/><path fill="#3E4042" fill-rule="evenodd" d="M3 13C2.44772 13 2 13.4477 2 14C2 14.5523 2.44772 15 3 15H15C15.5523 15 16 14.5523 16 14C16 13.4477 15.5523 13 15 13H3Z" clip-rule="evenodd"/><path fill="#3E4042" fill-rule="evenodd" d="M3 5C2.44771 5 2 5.44772 2 6C2 6.55228 2.44772 7 3 7H21C21.5523 7 22 6.55228 22 6C22 5.44772 21.5523 5 21 5H3Z" clip-rule="evenodd"/><path fill="#3E4042" fill-rule="evenodd" d="M3 9C2.44772 9 2 9.44772 2 10C2 10.5523 2.44772 11 3 11H18C18.5523 11 19 10.5523 19 10C19 9.44772 18.5523 9 18 9H3Z" clip-rule="evenodd"/><path fill="#3E4042" d="M4 18C4 18.5523 3.55228 19 3 19V15C1.34315 15 0 16.3431 0 18H4ZM3 17C3.55228 17 4 17.4477 4 18H0C0 19.6569 1.34315 21 3 21V17ZM12 17H3V21H12V17ZM11 18C11 17.4477 11.4477 17 12 17V21C13.6569 21 15 19.6569 15 18H11ZM12 19C11.4477 19 11 18.5523 11 18H15C15 16.3431 13.6569 15 12 15V19ZM3 19H12V15H3V19ZM4 14C4 14.5523 3.55228 15 3 15V11C1.34315 11 0 12.3431 0 14H4ZM3 13C3.55228 13 4 13.4477 4 14H0C0 15.6569 1.34315 17 3 17V13ZM15 13H3V17H15V13ZM14 14C14 13.4477 14.4477 13 15 13V17C16.6569 17 18 15.6569 18 14H14ZM15 15C14.4477 15 14 14.5523 14 14H18C18 12.3431 16.6569 11 15 11V15ZM3 15H15V11H3V15ZM4 6C4 6.55228 3.55228 7 3 7V3C1.34314 3 0 4.34315 0 6H4ZM3 5C3.55228 5 4 5.44771 4 6H0C0 7.65685 1.34315 9 3 9V5ZM21 5H3V9H21V5ZM20 6C20 5.44772 20.4477 5 21 5V9C22.6569 9 24 7.65685 24 6H20ZM21 7C20.4477 7 20 6.55228 20 6H24C24 4.34315 22.6569 3 21 3V7ZM3 7H21V3H3V7ZM4 10C4 10.5523 3.55228 11 3 11V7C1.34315 7 0 8.34315 0 10H4ZM3 9C3.55228 9 4 9.44772 4 10H0C0 11.6569 1.34315 13 3 13V9ZM18 9H3V13H18V9ZM17 10C17 9.44772 17.4477 9 18 9V13C19.6569 13 21 11.6568 21 10H17ZM18 11C17.4477 11 17 10.5523 17 10H21C21 8.34315 19.6569 7 18 7V11ZM3 11H18V7H3V11Z" mask="url(#path-1-inside-1)"/></svg>