<svg width="24" height="24" viewBox="0 0 24 24" fill="none" xmlns="http://www.w3.org/2000/svg">
<mask id="path-1-inside-1" fill="white">
<path d="M11.9277 15.8125L10.4777 14.4125C10.3777 14.3125 10.2277 14.3125 10.1277 14.4125L7.72769 16.8125V2.76246C7.72769 2.61246 7.62769 2.51246 7.47769 2.51246H5.47769C5.32769 2.51246 5.22769 2.61246 5.22769 2.76246V16.8125L2.82769 14.4125C2.72769 14.3125 2.57769 14.3125 2.47769 14.4125L1.07769 15.8125C0.977686 15.9125 0.977686 16.0625 1.07769 16.1625L6.32769 21.4125C6.42769 21.5125 6.57769 21.5125 6.67769 21.4125L11.9277 16.1625C11.9777 16.1125 11.9777 15.9125 11.9277 15.8125Z"/>
<path d="M22.9277 8.21249L21.4777 9.61249C21.3777 9.71249 21.2277 9.71249 21.1277 9.61249L18.7277 7.21249V21.2625C18.7277 21.4125 18.6277 21.5125 18.4777 21.5125H16.4777C16.3277 21.5125 16.2277 21.4125 16.2277 21.2625V7.21249L13.8277 9.61249C13.7277 9.71249 13.5777 9.71249 13.4777 9.61249L12.0777 8.21249C11.9777 8.11249 11.9777 7.96249 12.0777 7.86249L17.2777 2.56249C17.3777 2.46249 17.5277 2.46249 17.6277 2.56249L22.8777 7.81249C23.0277 7.91249 23.0277 8.11249 22.9277 8.21249Z"/>
</mask>
<path d="M11.9277 15.8125L13.7165 14.918C13.6151 14.7152 13.48 14.5312 13.3169 14.3737L11.9277 15.8125ZM10.4777 14.4125L9.06347 15.8267C9.07174 15.8349 9.08008 15.8431 9.0885 15.8513L10.4777 14.4125ZM10.1277 14.4125L8.71347 12.9983L10.1277 14.4125ZM7.72769 16.8125H5.72769C5.72769 17.6214 6.21497 18.3507 6.96232 18.6602C7.70967 18.9698 8.5699 18.7987 9.1419 18.2267L7.72769 16.8125ZM5.22769 16.8125L3.81347 18.2267C4.38547 18.7987 5.2457 18.9698 5.99305 18.6602C6.7404 18.3507 7.22769 17.6214 7.22769 16.8125H5.22769ZM2.82769 14.4125L4.2419 12.9983L2.82769 14.4125ZM2.47769 14.4125L1.06347 12.9983H1.06347L2.47769 14.4125ZM1.07769 15.8125L2.4919 17.2267H2.4919L1.07769 15.8125ZM1.07769 16.1625L-0.336528 17.5767L-0.336528 17.5767L1.07769 16.1625ZM6.32769 21.4125L7.7419 19.9982L6.32769 21.4125ZM6.67769 21.4125L5.26347 19.9982H5.26347L6.67769 21.4125ZM11.9277 16.1625L13.3419 17.5767V17.5767L11.9277 16.1625ZM22.9277 8.21249L24.3169 9.65129C24.3253 9.64317 24.3336 9.63497 24.3419 9.6267L22.9277 8.21249ZM21.4777 9.61249L20.0885 8.17368C20.0801 8.18181 20.0717 8.19 20.0635 8.19827L21.4777 9.61249ZM21.1277 9.61249L19.7135 11.0267L21.1277 9.61249ZM18.7277 7.21249L20.1419 5.79827C19.5699 5.22628 18.7097 5.05517 17.9623 5.36473C17.215 5.67429 16.7277 6.40356 16.7277 7.21249H18.7277ZM16.2277 7.21249H18.2277C18.2277 6.40356 17.7404 5.67429 16.9931 5.36473C16.2457 5.05517 15.3855 5.22628 14.8135 5.79827L16.2277 7.21249ZM13.8277 9.61249L15.2419 11.0267L13.8277 9.61249ZM13.4777 9.61249L12.0635 11.0267L13.4777 9.61249ZM12.0777 8.21249L13.4919 6.79827V6.79827L12.0777 8.21249ZM12.0777 7.86249L13.4919 9.2767C13.4964 9.27221 13.5009 9.2677 13.5053 9.26317L12.0777 7.86249ZM17.2777 2.56249L15.8635 1.14827C15.859 1.15276 15.8545 1.15727 15.8501 1.16181L17.2777 2.56249ZM17.6277 2.56249L19.0419 1.14827V1.14827L17.6277 2.56249ZM22.8777 7.81249L21.4635 9.2267C21.5566 9.31983 21.6587 9.40353 21.7683 9.47659L22.8777 7.81249ZM13.3169 14.3737L11.8669 12.9737L9.0885 15.8513L10.5385 17.2513L13.3169 14.3737ZM11.8919 12.9983C11.0109 12.1172 9.59452 12.1172 8.71347 12.9983L11.5419 15.8267C10.8609 16.5077 9.74452 16.5077 9.06347 15.8267L11.8919 12.9983ZM8.71347 12.9983L6.31347 15.3983L9.1419 18.2267L11.5419 15.8267L8.71347 12.9983ZM9.72769 16.8125V2.76246H5.72769V16.8125H9.72769ZM9.72769 2.76246C9.72769 2.23297 9.54246 1.63631 9.07315 1.167C8.60384 0.697691 8.00718 0.512463 7.47769 0.512463V4.51246C7.09819 4.51246 6.62653 4.37724 6.24472 3.99543C5.86291 3.61362 5.72769 3.14196 5.72769 2.76246H9.72769ZM7.47769 0.512463H5.47769V4.51246H7.47769V0.512463ZM5.47769 0.512463C4.94819 0.512463 4.35153 0.697691 3.88222 1.167C3.41291 1.63631 3.22769 2.23297 3.22769 2.76246H7.22769C7.22769 3.14196 7.09246 3.61362 6.71065 3.99543C6.32884 4.37724 5.85718 4.51246 5.47769 4.51246V0.512463ZM3.22769 2.76246V16.8125H7.22769V2.76246H3.22769ZM6.6419 15.3983L4.2419 12.9983L1.41347 15.8267L3.81347 18.2267L6.6419 15.3983ZM4.2419 12.9983C3.36085 12.1172 1.94452 12.1172 1.06347 12.9983L3.8919 15.8267C3.21085 16.5077 2.09452 16.5077 1.41347 15.8267L4.2419 12.9983ZM1.06347 12.9983L-0.336528 14.3983L2.4919 17.2267L3.8919 15.8267L1.06347 12.9983ZM-0.336528 14.3983C-1.21758 15.2793 -1.21758 16.6956 -0.336528 17.5767L2.4919 14.7483C3.17295 15.4293 3.17295 16.5456 2.4919 17.2267L-0.336528 14.3983ZM-0.336528 17.5767L4.91347 22.8267L7.7419 19.9982L2.4919 14.7482L-0.336528 17.5767ZM4.91347 22.8267C5.79452 23.7077 7.21085 23.7077 8.0919 22.8267L5.26347 19.9982C5.94452 19.3172 7.06085 19.3172 7.7419 19.9982L4.91347 22.8267ZM8.0919 22.8267L13.3419 17.5767L10.5135 14.7482L5.26347 19.9982L8.0919 22.8267ZM13.3419 17.5767C13.7602 17.1584 13.8744 16.6826 13.9055 16.5464C13.9533 16.3373 13.9652 16.1491 13.9652 16.0062C13.9652 15.7714 13.9331 15.3511 13.7165 14.918L10.1388 16.7069C10.0419 16.513 10.0049 16.3508 9.98955 16.2681C9.97199 16.1738 9.96519 16.0869 9.96519 16.0062C9.96519 15.9321 9.97081 15.8095 10.0061 15.6551C10.024 15.5766 10.057 15.4575 10.1193 15.3186C10.1777 15.1883 10.2945 14.9672 10.5135 14.7483L13.3419 17.5767ZM21.5385 6.77368L20.0885 8.17368L22.8669 11.0513L24.3169 9.65129L21.5385 6.77368ZM20.0635 8.19827C20.7445 7.51723 21.8608 7.51723 22.5419 8.19827L19.7135 11.0267C20.5945 11.9078 22.0108 11.9078 22.8919 11.0267L20.0635 8.19827ZM22.5419 8.19827L20.1419 5.79827L17.3135 8.6267L19.7135 11.0267L22.5419 8.19827ZM16.7277 7.21249V21.2625H20.7277V7.21249H16.7277ZM16.7277 21.2625C16.7277 20.883 16.8629 20.4113 17.2447 20.0295C17.6265 19.6477 18.0982 19.5125 18.4777 19.5125V23.5125C19.0072 23.5125 19.6038 23.3273 20.0731 22.858C20.5425 22.3886 20.7277 21.792 20.7277 21.2625H16.7277ZM18.4777 19.5125H16.4777V23.5125H18.4777V19.5125ZM16.4777 19.5125C16.8572 19.5125 17.3288 19.6477 17.7106 20.0295C18.0925 20.4113 18.2277 20.883 18.2277 21.2625H14.2277C14.2277 21.792 14.4129 22.3886 14.8822 22.858C15.3515 23.3273 15.9482 23.5125 16.4777 23.5125V19.5125ZM18.2277 21.2625V7.21249H14.2277V21.2625H18.2277ZM14.8135 5.79827L12.4135 8.19827L15.2419 11.0267L17.6419 8.6267L14.8135 5.79827ZM12.4135 8.19827C13.0945 7.51723 14.2109 7.51723 14.8919 8.19827L12.0635 11.0267C12.9445 11.9078 14.3609 11.9078 15.2419 11.0267L12.4135 8.19827ZM14.8919 8.19827L13.4919 6.79827L10.6635 9.6267L12.0635 11.0267L14.8919 8.19827ZM13.4919 6.79827C14.1729 7.47932 14.1729 8.59565 13.4919 9.2767L10.6635 6.44827C9.78242 7.32932 9.78242 8.74565 10.6635 9.6267L13.4919 6.79827ZM13.5053 9.26317L18.7053 3.96317L15.8501 1.16181L10.6501 6.46181L13.5053 9.26317ZM18.6919 3.9767C18.0109 4.65775 16.8945 4.65775 16.2135 3.9767L19.0419 1.14827C18.1609 0.267226 16.7445 0.267226 15.8635 1.14827L18.6919 3.9767ZM16.2135 3.9767L21.4635 9.2267L24.2919 6.39827L19.0419 1.14827L16.2135 3.9767ZM21.7683 9.47659C20.8141 8.84045 20.7676 7.54416 21.5135 6.79827L24.3419 9.6267C25.2878 8.68082 25.2413 6.98452 23.9871 6.14839L21.7683 9.47659Z" fill="black" mask="url(#path-1-inside-1)"/>
</svg>
