<svg xmlns="http://www.w3.org/2000/svg" width="24" height="24" fill="none"  xmlns:v="https://vecta.io/nano"><path fill-rule="evenodd" d="M4 9h5V4H4v5zM2 2.889A.89.89 0 0 1 2.889 2h7.222a.89.89 0 0 1 .889.889v7.222a.89.89 0 0 1-.889.889H2.889A.89.89 0 0 1 2 10.111V2.889zM15 9h5V4h-5v5zm-2-6.111A.89.89 0 0 1 13.889 2h7.222a.89.89 0 0 1 .889.889v7.222a.89.89 0 0 1-.889.889h-7.222a.89.89 0 0 1-.889-.889V2.889zM9 20H4v-5h5v5zm-6.111-7a.89.89 0 0 0-.889.889v7.222a.89.89 0 0 0 .889.889h7.222a.89.89 0 0 0 .889-.889v-7.222a.89.89 0 0 0-.889-.889H2.889zM15 20h5v-5h-5v5zm-2-6.111a.89.89 0 0 1 .889-.889h7.222a.89.89 0 0 1 .889.889v7.222a.89.89 0 0 1-.889.889h-7.222a.89.89 0 0 1-.889-.889v-7.222z" fill="#1B1C1D"/></svg>