<svg xmlns="http://www.w3.org/2000/svg" width="24" height="24" fill="none"  xmlns:v="https://vecta.io/nano"><path fill-rule="evenodd" d="M8.463 17.297L12 15.438l.931.489 2.607 1.37-.675-3.938.753-.734 2.108-2.055-3.954-.575-.465-.943L12 6.412l-1.769 3.583-1.04.151-2.913.423 2.861 2.789-.178 1.036-.498 2.902zm-.79 2.675c-1.03.542-1.706.051-1.51-1.096l.827-4.819-3.501-3.413c-.834-.813-.575-1.607.577-1.774l4.837-.703 2.165-4.384c.515-1.044 1.35-1.044 1.865 0l2.164 4.384 4.838.703c1.152.167 1.41.961.577 1.774l-3.501 3.413.826 4.819c.196 1.147-.478 1.638-1.509 1.096L12 17.697l-4.327 2.275z" fill="#1B1C1D"/></svg>