<svg xmlns="http://www.w3.org/2000/svg" width="24" height="24" fill="none"  xmlns:v="https://vecta.io/nano"><path fill-rule="evenodd" d="M5 13.874V20h14v-6.126A4.01 4.01 0 0 1 18 14a3.99 3.99 0 0 1-3-1.354 3.99 3.99 0 0 1-6 0A3.99 3.99 0 0 1 6 14a4.01 4.01 0 0 1-1-.126zm16-1.228V20a2 2 0 0 1-2 2H5a2 2 0 0 1-2-2v-7.354c-.614-.695-.989-1.606-1-2.604a1 1 0 0 1 .038-.317l2-7A1 1 0 0 1 5 2h14a1 1 0 0 1 .962.725l2 7c.03.107.043.213.038.317-.01.998-.386 1.908-1 2.604zM19.389 8l-1.143-4H5.754L4.611 8h14.777zM6 12a2 2 0 0 0 2-2H4a2 2 0 0 0 2 2zm6 0a2 2 0 0 0 2-2h-4a2 2 0 0 0 2 2zm6 0a2 2 0 0 0 2-2h-4a2 2 0 0 0 2 2z" fill="#1B1C1D"/></svg>