<svg xmlns="http://www.w3.org/2000/svg" width="24" height="24" fill="none"  xmlns:v="https://vecta.io/nano"><path fill-rule="evenodd" d="M5 2a1 1 0 0 0-.919.606L1 9.795V10a3.5 3.5 0 0 0 2 3.163V21a1 1 0 0 0 1 1h16a1 1 0 0 0 1-1v-7.837A3.5 3.5 0 0 0 23 10v-.205l-3.081-7.189A1 1 0 0 0 19 2H5zm14 11.465a3.49 3.49 0 0 1-2-1.015 3.49 3.49 0 0 1-5 0 3.49 3.49 0 0 1-5 0 3.49 3.49 0 0 1-2 1.015V20h14v-6.535zM8 10H6a1.5 1.5 0 0 1-2.989.18L5.659 4h12.681l2.649 6.18A1.5 1.5 0 0 1 18 10h-2a1.5 1.5 0 1 1-3 0h-2a1.5 1.5 0 1 1-3 0z" fill="#1B1C1D"/></svg>