<svg width="24" height="24" viewBox="0 0 24 24" fill="none" xmlns="http://www.w3.org/2000/svg">
<path fill-rule="evenodd" clip-rule="evenodd" d="M1 4C1 3.44772 1.44772 3 2 3H22C22.5523 3 23 3.44772 23 4V20C23 20.5523 22.5523 21 22 21H2C1.44772 21 1 20.5523 1 20V4ZM6 16H18C18.4296 16 19 16.4477 19 17C19 17.5523 18.4296 18 18 18H6C5.57045 18 5 17.5523 5 17C5 16.4477 5.57045 16 6 16ZM8 12H16C16.4296 12 17 12.4477 17 13C17 13.5523 16.4296 14 16 14H8C7.57045 14 7 13.5523 7 13C7 12.4477 7.57045 12 8 12Z" fill="#1B1C1D"/>
</svg>
