<svg xmlns="http://www.w3.org/2000/svg" width="24" height="24" viewBox="0 0 24 24">
  <path fill="#3E4042" fill-rule="evenodd" d="M2.36807686,21.6319231 L2.96219134,16.2848928 C2.33207743,14.9580936 2,13.5019274 2,12 C2,6.4771525 6.4771525,2 12,2 C17.5228475,2 22,6.4771525 22,12 C22,17.5228475 17.5228475,22 12,22 C10.4980726,22 9.04190637,21.6679226 7.71510724,21.0378087 L2.36807686,21.6319231 Z M4.63192314,19.3680769 L8.08419743,18.9844908 L8.35206633,19.1220054 C9.47086468,19.6963578 10.7125769,20 12,20 C16.418278,20 20,16.418278 20,12 C20,7.581722 16.418278,4 12,4 C7.581722,4 4,7.581722 4,12 C4,13.2874231 4.30364224,14.5291353 4.87799456,15.6479337 L5.01550917,15.9158026 L4.63192314,19.3680769 Z M11,18 L13,18 L13,16 L11,16 L11,18 L11,18 Z M12,6 C9.78999996,6 8,7.78999996 8,10 L10,10 C10,8.89999961 10.8999996,8 12,8 C13.1000003,8 14,8.89999961 14,10 C14,12 11,11.75 11,15 L13,15 C13,12.75 16,12.5 16,10 C16,7.78999996 14.21,6 12,6 L12,6 Z"/>
</svg>
