<svg width="24" height="24" viewBox="0 0 24 24" fill="none" xmlns="http://www.w3.org/2000/svg">
<path fill-rule="evenodd" clip-rule="evenodd" d="M22 5.71999L17.4 1.85999L16.11 3.38999L20.71 7.24999L22 5.71999ZM7.88 3.38999L6.6 1.85999L2 5.70999L3.29 7.23998L7.88 3.38999V3.38999ZM12.5 7.99999H11V14L15.75 16.85L16.5 15.62L12.5 13.25V7.99999ZM12 4.49999C7.30611 4.49999 3.5 8.3061 3.5 13C3.5 17.6939 7.29667 21.5 12 21.5C16.6939 21.5 20.5 17.6939 20.5 13C20.5 8.3061 16.6939 4.49999 12 4.49999Z" fill="#3E4042"/>
</svg>
