<svg xmlns="http://www.w3.org/2000/svg" width="24" height="24" viewBox="0 0 24 24"><path fill="#3E4042" fill-rule="evenodd" d="M21.9999987,5.71999945 L17.3999986,1.85999954 L16.1099996,3.38999942 L20.7099997,7.24999956 L21.9999987,5.71999945 Z M7.87999964,3.3899999 L6.5999995,1.8599999 L1.99999988,5.70999969 L3.28999976,7.23999934 L7.87999964,3.38999966 L7.87999964,3.3899999 Z M12.4999992,7.99999952 L10.9999993,7.99999952 L10.9999993,13.9999992 L15.7499991,16.8499993 L16.499999,15.6199999 L12.4999992,13.2500001 L12.4999992,7.99999952 Z M11.9999993,3.99999976 C7.02999931,3.99999976 2.99999982,8.0300002 2.99999982,12.9999992 C2.99999982,17.9699982 7.01999956,21.9999987 11.9999993,21.9999987 C16.9700002,21.9999987 20.9999987,17.9699982 20.9999987,12.9999992 C20.9999987,8.0300002 16.9699983,3.99999976 11.9999993,3.99999976 Z M11.9999993,19.9999988 C8.12999962,19.9999988 4.9999997,16.8699979 4.9999997,12.9999992 C4.9999997,9.13000051 8.12999962,5.99999964 11.9999993,5.99999964 C15.8699988,5.99999964 18.9999989,9.12999956 18.9999989,12.9999992 C18.9999989,16.8699979 15.8699988,19.9999988 11.9999993,19.9999988 Z"/></svg>