<svg xmlns="http://www.w3.org/2000/svg" width="24" height="24" viewBox="0 0 24 24"><path fill="#3E4042" fill-rule="evenodd" d="M21.9999987,5.71999945 L17.3999986,1.85999954 L16.1099996,3.38999942 L20.7099997,7.24999956 L21.9999987,5.71999945 Z M7.87999964,3.3899999 L6.5999995,1.8599999 L1.99999988,5.70999969 L3.28999976,7.23999934 L7.87999964,3.38999966 L7.87999964,3.3899999 Z M12.4999992,7.99999952 L10.9999993,7.99999952 L10.9999993,13.9999992 L15.7499991,16.8499993 L16.499999,15.6199999 L12.4999992,13.2500001 L12.4999992,7.99999952 Z M12,4.50000054 C7.30611115,4.50000054 3.50000054,8.30611205 3.50000054,13 C3.50000054,17.6938879 7.29666695,21.4999995 12,21.4999995 C16.6938897,21.4999995 20.4999995,17.6938879 20.4999995,13 C20.4999995,8.30611205 16.6938879,4.50000054 12,4.50000054 Z"/></svg>