<svg width="24" height="24" viewBox="0 0 24 24" fill="none" xmlns="http://www.w3.org/2000/svg">
<path fill-rule="evenodd" clip-rule="evenodd" d="M9.17071 5C9.58254 3.83481 10.6938 3 12 3C13.3062 3 14.4175 3.83481 14.8293 5H9.17071ZM7 7V9H9V7H15V9H17V7H20L18 19H6.00002L4.00002 7H7ZM7.10002 5C7.56329 2.71776 9.58104 1 12 1C14.419 1 16.4367 2.71776 16.9 5H20C20.5879 5 21.146 5.25867 21.5261 5.70725C21.9061 6.15583 22.0695 6.74889 21.9728 7.3288L19.9728 19.3288C19.8121 20.2932 18.9777 21 18 21H6.00002C5.02234 21 4.18796 20.2932 4.02723 19.3288L2.02723 7.3288C1.93058 6.74889 2.09397 6.15583 2.47398 5.70725C2.85398 5.25867 3.41211 5 4.00002 5H7.10002Z" fill="#1B1C1D"/>
</svg>
