<svg width="24" height="24" viewBox="0 0 24 24" fill="none" xmlns="http://www.w3.org/2000/svg">
<path fill-rule="evenodd" clip-rule="evenodd" d="M8 5V3.99896C8 2.89821 8.89545 2 9.99078 2H14.0092C15.1114 2 16 2.89309 16 3.99896V5H20.1C20.7 5 21 5.33333 21 6C21 6.66667 20.7 7 20.1 7H3.9C3.3 7 3 6.66667 3 6C3 5.33333 3.3 5 3.9 5H8ZM9.99921 5H14V4H10.0001C10.0001 4 9.99884 4.33333 9.99921 5ZM5 9H7V19.0081C7 19.5548 7.4482 20 8.00586 20H15.9941C16.5505 20 17 19.5534 17 19.0081V9H19V19.0081C19 20.6609 17.6522 22 15.9941 22H8.00586C6.3466 22 5 20.6623 5 19.0081V9Z" fill="#3E4042"/>
</svg>
