<svg xmlns="http://www.w3.org/2000/svg" width="24" height="24" viewBox="0 0 24 24"><path fill="#3E4042" fill-rule="evenodd" d="M7.99999946,5 L7.99999946,3.9989565 C7.99999946,2.89821187 8.89544683,1.99999988 9.99077736,1.99999988 L14.0092212,1.99999988 C15.1114062,1.99999988 15.9999991,2.89308581 15.9999991,3.9989565 L15.9999991,5 L20.0999989,5 C20.6999982,5 20.9999988,5.33333347 20.9999988,5.99999994 C20.9999988,6.6666664 20.6999982,6.99999988 20.0999989,6.99999988 L3.89999994,6.99999988 C3.29999991,6.99999988 3,6.6666664 3,5.99999994 C3,5.33333347 3.29999991,5 3.89999994,5 L7.99999946,5 Z M9.99920801,5 L13.9999991,5 L13.9999991,3.99999988 L10.0000599,3.99999988 C9.99912479,3.99999988 9.99884082,4.33333325 9.99920801,5 Z M5,8 L7,8 L7,19.0081149 C7,19.5547647 7.44820481,19.9999991 8.00585877,19.9999991 L15.9941399,19.9999991 C16.5505403,19.9999991 16.9999992,19.5534242 16.9999992,19.0081149 L16.9999992,8 L18.9999992,8 L18.9999992,19.0081149 C18.9999992,20.6608859 17.6522381,21.9999991 15.9941399,21.9999991 L8.00585877,21.9999991 C6.34660138,21.9999991 5,20.6623222 5,19.0081149 L5,8 Z M8.99999946,10.8724008 C8.99999946,10.3905865 9.44386425,9.9999994 9.9999994,9.9999994 C10.5522836,9.9999994 10.9999993,10.3964061 10.9999993,10.8724008 L10.9999993,16.1275975 C10.9999993,16.6094108 10.5561345,16.9999989 9.9999994,16.9999989 C9.44771518,16.9999989 8.99999946,16.6035913 8.99999946,16.1275975 L8.99999946,10.8724008 Z M12.9999992,10.8724008 C12.9999992,10.3905865 13.443864,9.9999994 13.9999992,9.9999994 C14.5522833,9.9999994 14.9999991,10.3964061 14.9999991,10.8724008 L14.9999991,16.1275975 C14.9999991,16.6094108 14.5561342,16.9999989 13.9999992,16.9999989 C13.4477149,16.9999989 12.9999992,16.6035913 12.9999992,16.1275975 L12.9999992,10.8724008 Z"/></svg>