<svg width="24" height="24" viewBox="0 0 24 24" fill="none" xmlns="http://www.w3.org/2000/svg">
<path fill-rule="evenodd" clip-rule="evenodd" d="M1.21799 4.09202C1 4.51984 1 5.0799 1 6.2V17.8C1 18.9201 1 19.4802 1.21799 19.908C1.40973 20.2843 1.71569 20.5903 2.09202 20.782C2.51984 21 3.0799 21 4.2 21H19.8C20.9201 21 21.4802 21 21.908 20.782C22.2843 20.5903 22.5903 20.2843 22.782 19.908C23 19.4802 23 18.9201 23 17.8V6.2C23 5.0799 23 4.51984 22.782 4.09202C22.5903 3.71569 22.2843 3.40973 21.908 3.21799C21.4802 3 20.9201 3 19.8 3H4.2C3.0799 3 2.51984 3 2.09202 3.21799C1.71569 3.40973 1.40973 3.71569 1.21799 4.09202ZM10.5145 15.8575C9.84797 16.2574 9 15.7773 9 15V8.99996C9 8.22266 9.84797 7.74255 10.5145 8.14246L15.5145 11.1425C16.1618 11.5309 16.1618 12.469 15.5145 12.8575L10.5145 15.8575Z" fill="#3E4042"/>
</svg>
