<svg width="24" height="24" viewBox="0 0 24 24" fill="none" xmlns="http://www.w3.org/2000/svg">
<path fill-rule="evenodd" clip-rule="evenodd" d="M4.84583 5C3.92853 5 3.70418 5.04332 3.47793 5.16433C3.33758 5.23939 3.23939 5.33758 3.16433 5.47793C3.04332 5.70418 3 5.92853 3 6.84583V17.1542C3 18.0715 3.04332 18.2958 3.16433 18.5221C3.23939 18.6624 3.33758 18.7606 3.47793 18.8357C3.70418 18.9567 3.92853 19 4.84583 19H19.1542C20.0715 19 20.2958 18.9567 20.5221 18.8357C20.6624 18.7606 20.7606 18.6624 20.8357 18.5221C20.9567 18.2958 21 18.0715 21 17.1542V6.84583C21 5.92853 20.9567 5.70418 20.8357 5.47793C20.7606 5.33758 20.6624 5.23939 20.5221 5.16433C20.2958 5.04332 20.0715 5 19.1542 5H4.84583ZM4.84583 3H19.1542C20.4915 3 20.9764 3.13924 21.4653 3.4007C21.9542 3.66216 22.3378 4.04584 22.5993 4.53473C22.8608 5.02362 23 5.50855 23 6.84583V17.1542C23 18.4915 22.8608 18.9764 22.5993 19.4653C22.3378 19.9542 21.9542 20.3378 21.4653 20.5993C20.9764 20.8608 20.4915 21 19.1542 21H4.84583C3.50855 21 3.02362 20.8608 2.53473 20.5993C2.04584 20.3378 1.66216 19.9542 1.4007 19.4653C1.13924 18.9764 1 18.4915 1 17.1542V6.84583C1 5.50855 1.13924 5.02362 1.4007 4.53473C1.66216 4.04584 2.04584 3.66216 2.53473 3.4007C3.02362 3.13924 3.50855 3 4.84583 3ZM13.0563 12L11 10.7662V13.2338L13.0563 12ZM9 15V9C9 8.22271 9.84797 7.74259 10.5145 8.14251L15.5145 11.1425C16.1618 11.5309 16.1618 12.4691 15.5145 12.8575L10.5145 15.8575C9.84797 16.2574 9 15.7773 9 15Z" fill="#3E4042"/>
</svg>
