<svg xmlns="http://www.w3.org/2000/svg" width="24" height="24" viewBox="0 0 24 24"><path fill="#3E4042" fill-rule="evenodd" d="M5.8458278,6 C4.92853228,6 4.70418221,6.043324 4.47792916,6.16432545 C4.33757722,6.23938649 4.23938649,6.33757722 4.16432545,6.47792916 C4.043324,6.70418221 4,6.92853228 4,7.8458278 L4,16.1541722 C4,17.0714677 4.043324,17.2958178 4.16432545,17.5220708 C4.23938649,17.6624228 4.33757722,17.7606135 4.47792916,17.8356745 C4.70418221,17.956676 4.92853228,18 5.8458278,18 L18.1541722,18 C19.0714677,18 19.2958178,17.956676 19.5220708,17.8356745 C19.6624228,17.7606135 19.7606135,17.6624228 19.8356745,17.5220708 C19.956676,17.2958178 20,17.0714677 20,16.1541722 L20,7.8458278 C20,6.92853228 19.956676,6.70418221 19.8356745,6.47792916 C19.7606135,6.33757722 19.6624228,6.23938649 19.5220708,6.16432545 C19.2958178,6.043324 19.0714677,6 18.1541722,6 L5.8458278,6 Z M5.8458278,4 L18.1541722,4 C19.4914503,4 19.9763797,4.13923842 20.4652686,4.40069906 C20.9541574,4.66215969 21.3378403,5.04584256 21.5993009,5.53473144 C21.8607616,6.02362033 22,6.50854969 22,7.8458278 L22,16.1541722 C22,17.4914503 21.8607616,17.9763797 21.5993009,18.4652686 C21.3378403,18.9541574 20.9541574,19.3378403 20.4652686,19.5993009 C19.9763797,19.8607616 19.4914503,20 18.1541722,20 L5.8458278,20 C4.50854969,20 4.02362033,19.8607616 3.53473144,19.5993009 C3.04584256,19.3378403 2.66215969,18.9541574 2.40069906,18.4652686 C2.13923842,17.9763797 2,17.4914503 2,16.1541722 L2,7.8458278 C2,6.50854969 2.13923842,6.02362033 2.40069906,5.53473144 C2.66215969,5.04584256 3.04584256,4.66215969 3.53473144,4.40069906 C4.02362033,4.13923842 4.50854969,4 5.8458278,4 Z M11,13.7646182 L13.7981689,12.0015447 L11,10.2384713 L11,13.7646182 Z M9,9.75125501 C9,8.39885253 10.4570935,7.53249919 11.6148695,8.26199201 L15.1862981,10.5122817 C16.271234,11.1958794 16.271234,12.8072101 15.1862981,13.4908077 L11.6148695,15.7410975 C10.4570935,16.4705903 9,15.6042369 9,14.2518345 L9,9.75125501 Z"/></svg>