<svg width="24" height="24" viewBox="0 0 24 24" fill="none" xmlns="http://www.w3.org/2000/svg">
<path d="M20.5 20L19 21.5L13 15.5V20C13 20.3688 12.797 20.7077 12.4719 20.8817C12.1467 21.0557 11.7522 21.0366 11.4453 20.8321L5.69722 17L2 17C1.44772 17 1 16.5523 1 16V8C1 7.44772 1.44772 7 2 7L4.5 7L1.5 4L3 2.5L20.5 20Z" fill="#3E4042"/>
<path d="M23 12C23 14.2194 22.462 16.2948 21.5316 18.0316L20.0413 16.5413C20.6492 15.2125 21 13.6627 21 12C21 8.98783 19.8488 6.34636 18.1031 4.71748L19.6791 3.45672C21.7136 5.48075 23 8.56811 23 12Z" fill="#3E4042"/>
<path d="M18.4937 14.9937C18.8206 14.067 19 13.0559 19 12C19 9.58934 18.0649 7.41238 16.5748 5.9402L14.9973 7.20219C16.2072 8.29171 17 10.0257 17 12C17 12.472 16.9547 12.9302 16.8692 13.3692L18.4937 14.9937Z" fill="#3E4042"/>
<path d="M13 9.5V4C13 3.63121 12.797 3.29235 12.4719 3.11833C12.1467 2.94431 11.7522 2.96338 11.4453 3.16795L8.57889 5.07889L13 9.5Z" fill="#3E4042"/>
</svg>
