<svg xmlns="http://www.w3.org/2000/svg" width="24" height="24" fill="none" viewBox="0 0 24 24"><path fill="#3E4042" d="M15.0196 3.80408C15.1279 3.26252 15.6547 2.9113 16.1963 3.01961C19.9009 3.76052 23.0002 7.18609 23.0002 12.0002C23.0002 16.8143 19.9009 20.2399 16.1963 20.9808C15.6547 21.0891 15.1279 20.7379 15.0196 20.1963C14.9113 19.6547 15.2625 19.1279 15.8041 19.0196C18.6111 18.4582 21.0002 15.8177 21.0002 12.0002C21.0002 8.18271 18.6111 5.54219 15.8041 4.98077C15.2625 4.87246 14.9113 4.34564 15.0196 3.80408ZM15.1681 7.44549C15.4745 6.98596 16.0954 6.86179 16.5549 7.16814C18.2251 8.28163 19.0002 9.98678 19.0002 12.0002C19.0002 14.0136 18.2251 15.7188 16.5549 16.8322C16.0954 17.1386 15.4745 17.0144 15.1681 16.5549C14.8618 16.0954 14.986 15.4745 15.4455 15.1681C16.5144 14.4555 17.0002 13.3868 17.0002 12.0002C17.0002 10.6136 16.5144 9.54484 15.4455 8.83224C14.986 8.52589 14.8618 7.90502 15.1681 7.44549Z"/><path fill="#3E4042" fill-rule="evenodd" d="M6.6332 15L11 18.0731V5.92693L6.63318 9H3V15H6.6332ZM11.4453 3.16795L5.99999 7H2C1.44772 7 1 7.44772 1 8V16C1 16.5523 1.44772 17 2 17H6L11.4453 20.8321C11.7521 21.0366 12.1467 21.0557 12.4718 20.8817C12.797 20.7077 13 20.3688 13 20V4C13 3.63121 12.797 3.29235 12.4718 3.11833C12.1467 2.94431 11.7521 2.96338 11.4453 3.16795Z" clip-rule="evenodd"/></svg>