<svg xmlns="http://www.w3.org/2000/svg" width="24" height="24" fill="none" viewBox="0 0 24 24"><path fill="#3E4042" d="M6 16.9999H2C1.44772 16.9999 1 16.5522 1 15.9999V7.99995C1 7.44766 1.44772 6.99995 2 6.99995H5.99999L11.4453 3.1679C11.7521 2.96333 12.1467 2.94426 12.4718 3.11828C12.797 3.29229 13 3.63115 13 3.99995V20C13 20.3687 12.797 20.7076 12.4718 20.8816C12.1467 21.0556 11.7521 21.0366 11.4453 20.832L6 16.9999Z"/><path fill="#3E4042" d="M15.0194 3.80383C15.1277 3.26227 15.6546 2.91106 16.1961 3.01937C19.9007 3.76028 23 7.18585 23 11.9999C23 16.814 19.9007 20.2396 16.1961 20.9805C15.6546 21.0888 15.1277 20.7376 15.0194 20.1961C14.9111 19.6545 15.2623 19.1277 15.8039 19.0194C18.611 18.458 21 15.8174 21 11.9999C21 8.18247 18.611 5.54194 15.8039 4.98053C15.2623 4.87222 14.9111 4.34539 15.0194 3.80383ZM15.1679 7.44525C15.4743 6.98572 16.0952 6.86155 16.5547 7.1679C18.2249 8.28139 19 9.98653 19 11.9999C19 14.0134 18.2249 15.7185 16.5547 16.832C16.0952 17.1384 15.4743 17.0142 15.1679 16.5546C14.8616 16.0951 14.9858 15.4743 15.4453 15.1679C16.5142 14.4553 17 13.3865 17 11.9999C17 10.6134 16.5142 9.5446 15.4453 8.832C14.9858 8.52565 14.8616 7.90478 15.1679 7.44525Z"/></svg>