<svg xmlns="http://www.w3.org/2000/svg" width="24" height="24" fill="none"  xmlns:v="https://vecta.io/nano"><path fill-rule="evenodd" d="M4.054 13c.2 1.792.953 3.321 2.289 4.657.889.889 1.864 1.52 2.944 1.901l-.48-.431c-1.56-1.498-2.566-3.53-2.769-6.127H4.054zm0-2h1.985c.205-2.594 1.21-4.624 2.769-6.121l.493-.442c-1.086.381-2.065 1.014-2.957 1.906C5.008 7.679 4.254 9.208 4.054 11zM11 11V5.657a6.84 6.84 0 0 0-.807.665C9.011 7.457 8.237 8.983 8.046 11H11zm0 2H8.045c.19 2.02.964 3.548 2.147 4.685a6.9 6.9 0 0 0 .807.665V13zm8.946 0h-1.984c-.204 2.597-1.209 4.629-2.769 6.127l-.48.431c1.081-.382 2.055-1.013 2.944-1.901 1.335-1.336 2.089-2.865 2.289-4.657zm0-2c-.2-1.792-.953-3.321-2.289-4.657-.892-.892-1.871-1.525-2.957-1.906l.493.442c1.559 1.497 2.564 3.527 2.769 6.121h1.985zM13 11h2.954c-.191-2.017-.965-3.543-2.147-4.678A6.8 6.8 0 0 0 13 5.657V11zm0 2v5.35c.275-.194.547-.415.807-.665 1.183-1.136 1.958-2.665 2.147-4.684H13zm8.956 0c-.21 2.335-1.172 4.358-2.885 6.071S15.335 21.745 13 21.956v.05h-2v-.05c-2.335-.21-4.358-1.172-6.071-2.885S2.255 15.335 2.044 13H2v-.998V11h.044c.211-2.335 1.172-4.358 2.885-6.071S8.665 2.255 11 2.044V2h2v.044c2.335.211 4.358 1.172 6.071 2.885S21.745 8.665 21.956 11H22v2h-.044z" fill="#1B1C1D"/></svg>