<svg xmlns="http://www.w3.org/2000/svg" width="24" height="24" viewBox="0 0 24 24"><path fill="#3E4042" fill-rule="evenodd" d="M4.05420432,13.0000001 C4.25396625,14.7916291 5.00757017,16.3212768 6.34314507,17.6568532 C7.23192343,18.5456315 8.20664584,19.1766878 9.28732477,19.5583115 C9.1279019,19.424528 8.96754661,19.2809247 8.8073462,19.1270803 C7.24704668,17.6286858 6.24179668,15.597298 6.03826337,13.0000001 L4.05420432,13.0000001 Z M4.05420412,11.0000001 L6.03875456,11.0000001 C6.24340925,8.40569185 7.24829788,6.37636006 8.8073462,4.87916713 C8.97185791,4.72118244 9.13653296,4.57399753 9.30019387,4.43715614 C8.21438239,4.81830681 7.23545003,5.45084028 6.34314518,6.34314501 C5.00756991,7.67872045 4.25396577,9.20836921 4.05420412,11.0000001 Z M10.9999994,11.0000001 L10.9999994,5.656595 C10.7246419,5.85000298 10.4535067,6.07120405 10.1926537,6.32170761 C9.01084387,7.45662906 8.23666245,8.98327112 8.0459896,11.0000001 L10.9999994,11.0000001 Z M10.9999994,13.0000001 L8.04540097,13.0000001 C8.23506451,15.019824 9.00962388,16.5484468 10.1926537,17.6845398 C10.4535067,17.9350434 10.7246419,18.1562445 10.9999994,18.3496524 L10.9999994,13.0000001 Z M19.9457944,13.0000001 L17.9617358,13.0000001 C17.7582025,15.597298 16.7529525,17.6286857 15.192653,19.1270802 C15.0324529,19.2809244 14.8720979,19.4245274 14.7126752,19.5583107 C15.7933527,19.1766871 16.7680743,18.5456313 17.6568525,17.6568539 C18.9924282,16.3212768 19.7460324,14.7916291 19.9457944,13.0000001 Z M19.9457946,11.0000001 C19.7460329,9.20836935 18.9924288,7.67872068 17.656854,6.34314589 C16.7645485,5.4508414 15.7856169,4.8183081 14.6998068,4.43715726 C14.8634673,4.5739983 15.0281418,4.7211828 15.192653,4.87916701 C16.7517014,6.37635996 17.75659,8.40569179 17.9612447,11.0000001 L19.9457946,11.0000001 Z M12.9999994,11.0000001 L15.9540096,11.0000001 C15.7633368,8.98327106 14.9891554,7.45662896 13.8073455,6.32170749 C13.5464924,6.0712038 13.2753571,5.85000264 12.9999994,5.65659459 L12.9999994,11.0000001 Z M12.9999994,13.0000001 L12.9999994,18.3496526 C13.2753571,18.1562446 13.5464924,17.9350434 13.8073455,17.6845397 C14.9903753,16.5484467 15.7649347,15.0198239 15.9545982,13.0000001 L12.9999994,13.0000001 Z M21.955742,13.0000001 C21.7452232,15.3347791 20.7836647,17.3584671 19.0710668,19.0710668 C17.3584669,20.7836649 15.3347786,21.7452234 12.9999994,21.955742 L12.9999994,22.0062472 L10.9999994,22.0062472 L10.9999994,21.9557421 C8.6652191,21.7452235 6.64152981,20.783665 4.92893153,19.0710668 C3.21633373,17.3584671 2.25477545,15.3347791 2.04425677,13.0000001 L2.00000012,13.0000001 L2.00000012,12.0016767 C2.00000004,12.0011176 2,12.0005585 2,11.9999994 C2,11.9994403 2.00000004,11.9988812 2.00000012,11.9983221 L2.00000012,11.0000001 L2.04425661,11.0000001 C2.25477495,8.66521951 3.21633329,6.64152999 4.92893153,4.92893153 C6.64152981,3.21633347 8.6652191,2.25477515 10.9999994,2.04425667 L10.9999994,2 L12.9999994,2 L12.9999994,2.0442567 C15.3347786,2.25477525 17.3584669,3.21633356 19.0710668,4.92893153 C20.7836652,6.64152999 21.7452237,8.66521951 21.9557421,11.0000001 L21.9999989,11.0000001 L21.9999989,13.0000001 L21.955742,13.0000001 Z"/></svg>