<svg xmlns="http://www.w3.org/2000/svg" width="24" height="24" viewBox="0 0 24 24">
  <path fill="#3E4042" fill-rule="evenodd" d="M8.07142857,11.3571429 L7.5,8.78571429 L8.57142857,8.78571429 L9.85714286,14.7857143 L11.1428571,8.78571429 L12.8571429,8.78571429 L14.1428571,14.7857143 L15.4285714,8.78571429 L16.5,8.78571429 L15.9285714,11.3571429 L17.1428571,11.3571429 L17.1428571,12.6428571 L15.6428571,12.6428571 L14.7857143,16.5 L13.5,16.5 L12,10.0714286 L10.5,16.5 L9.21428571,16.5 L8.35714286,12.6428571 L6.85714286,12.6428571 L6.85714286,11.3571429 L8.07142857,11.3571429 Z M12,22 C6.4771525,22 2,17.5228475 2,12 C2,6.4771525 6.4771525,2 12,2 C17.5228475,2 22,6.4771525 22,12 C22,17.5228475 17.5228475,22 12,22 Z M12,20 C16.418278,20 20,16.418278 20,12 C20,7.581722 16.418278,4 12,4 C7.581722,4 4,7.581722 4,12 C4,16.418278 7.581722,20 12,20 Z"/>
</svg>
