<svg width="24" height="24" viewBox="0 0 24 24" fill="none" xmlns="http://www.w3.org/2000/svg">
<path fill-rule="evenodd" clip-rule="evenodd" d="M8.07143 11.3571L7.5 8.78571H8.57143L9.85714 14.7857L11.1429 8.78571H12.8571L14.1429 14.7857L15.4286 8.78571H16.5L15.9286 11.3571H17.1429V12.6429H15.6429L14.7857 16.5H13.5L12 10.0714L10.5 16.5H9.21429L8.35714 12.6429H6.85714V11.3571H8.07143ZM12 22C6.47715 22 2 17.5228 2 12C2 6.47715 6.47715 2 12 2C17.5228 2 22 6.47715 22 12C22 17.5228 17.5228 22 12 22ZM12 20C16.4183 20 20 16.4183 20 12C20 7.58172 16.4183 4 12 4C7.58172 4 4 7.58172 4 12C4 16.4183 7.58172 20 12 20Z" fill="#3E4042"/>
</svg>
