<svg xmlns="http://www.w3.org/2000/svg" width="24" height="24"  xmlns:v="https://vecta.io/nano"><path fill="#1B1C1D" fill-rule="evenodd" d="M21.582 7.169c-.23-.866-.908-1.548-1.768-1.78C18.254 4.969 12 4.969 12 4.969s-6.254 0-7.814.421c-.86.232-1.538.914-1.768 1.78C2 8.739 2 12.014 2 12.014s0 3.275.418 4.845c.23.866.908 1.52 1.768 1.751 1.56.421 7.814.421 7.814.421s6.254 0 7.814-.421c.86-.231 1.538-.885 1.768-1.751.418-1.57.418-4.845.418-4.845s0-3.275-.418-4.845h0zM9.955 14.988V9.04l5.227 2.974-5.227 2.974h0z"/></svg>