<svg xmlns="http://www.w3.org/2000/svg" width="24" height="24" viewBox="0 0 24 24">
  <path fill="#3E4042" fill-rule="evenodd" d="M13,7 L11,7 L11,11 L7,11 L7,13 L11,13 L11,17 L13,17 L13,13 L17,13 L17,11 L13,11 L13,7 Z M12,2 C6.48000001,2 2,6.48000001 2,12 C2,17.5200004 6.48000001,22 12,22 C17.5200004,22 22,17.5200004 22,12 C22,6.47999954 17.5200004,2 12,2 Z M12,20 C7.59000015,20 4,16.4099998 4,12 C4,7.59000015 7.59000015,4 12,4 C16.4099998,4 20,7.59000015 20,12 C20,16.4099998 16.4099998,20 12,20 Z"/>
</svg>
