<svg xmlns="http://www.w3.org/2000/svg" width="24" height="24" viewBox="0 0 24 24">
  <path fill="#3E4042" fill-rule="evenodd" d="M8.99999946,2.99999988 L14.9999991,2.99999988 L16.8299989,4.99999976 L19.9999988,4.99999976 C21.099999,4.99999976 21.9999987,5.8999998 21.9999987,6.99999964 L21.9999987,18.9999989 C21.9999987,20.0999992 21.099999,20.9999988 19.9999988,20.9999988 L3.99999976,20.9999988 C2.89999992,20.9999988 1.99999988,20.0999992 1.99999988,18.9999989 L1.99999988,6.99999964 C1.99999988,5.8999998 2.89999992,4.99999976 3.99999976,4.99999976 L7.16999964,4.99999976 L8.99999946,2.99999988 Z M15.1999998,12.9999993 C15.1999998,15.1333333 14.1333333,16.1999998 11.9999993,16.1999998 C9.8666662,16.1999998 8.79999966,15.1333333 8.79999966,12.9999993 C8.79999966,10.8666662 9.8666662,9.79999966 11.9999993,9.79999966 C14.1333333,9.79999966 15.1999998,10.8666662 15.1999998,12.9999993 Z M11.9999993,17.999999 C14.7599993,17.999999 16.999999,15.7599993 16.999999,12.9999993 C16.999999,10.2399992 14.7599993,7.99999958 11.9999993,7.99999958 C9.23999922,7.99999958 6.99999958,10.2399992 6.99999958,12.9999993 C6.99999958,15.7599993 9.23999922,17.999999 11.9999993,17.999999 Z"/>
</svg>
