<svg xmlns="http://www.w3.org/2000/svg" width="24" height="24" viewBox="0 0 24 24">
  <path fill="#3E4042" fill-rule="evenodd" d="M11.989999,1.99999988 C6.46999987,1.99999988 1.99999988,6.47999962 1.99999988,11.9999993 C1.99999988,17.5199993 6.46999987,21.9999987 11.989999,21.9999987 C17.5199993,21.9999987 21.9999987,17.5199993 21.9999987,11.9999993 C21.9999987,6.47999915 17.5199993,1.99999988 11.989999,1.99999988 Z M11.9999993,19.9999988 C7.57999947,19.9999988 3.99999976,16.419999 3.99999976,11.9999993 C3.99999976,7.57999947 7.57999947,3.99999976 11.9999993,3.99999976 C16.419999,3.99999976 19.9999988,7.57999947 19.9999988,11.9999993 C19.9999988,16.419999 16.419999,19.9999988 11.9999993,19.9999988 Z M12.4999993,6.99999958 L10.9999993,6.99999958 L10.9999993,12.9999992 L16.249999,16.1499986 L16.999999,14.9199991 L12.4999993,12.2499993 L12.4999993,6.99999958 Z"/>
</svg>
