<svg xmlns="http://www.w3.org/2000/svg" width="24" height="24" viewBox="0 0 24 24">
  <path fill="#3E4042" fill-rule="evenodd" d="M8.94785431,4 L15.0521457,4 C16.8341404,4 17.9527593,4.27847683 18.9305371,4.80139811 C19.9083149,5.32431939 20.6756806,6.09168511 21.1986019,7.06946289 C21.7215232,8.04724067 22,9.16585964 22,10.9478543 L22,12.0521457 C22,13.8341404 21.7215232,14.9527593 21.1986019,15.9305371 C20.6756806,16.9083149 19.9083149,17.6756806 18.9305371,18.1986019 C17.9527593,18.7215232 16.8341404,19 15.0521457,19 L14,19 L12,21 L10,19 L8.94785431,19 C7.16585964,19 6.04724067,18.7215232 5.06946289,18.1986019 C4.09168511,17.6756806 3.32431939,16.9083149 2.80139811,15.9305371 C2.27847683,14.9527593 2,13.8341404 2,12.0521457 L2,10.9478543 C2,9.16585964 2.27847683,8.04724067 2.80139811,7.06946289 C3.32431939,6.09168511 4.09168511,5.32431939 5.06946289,4.80139811 C6.04724067,4.27847683 7.16585964,4 8.94785431,4 Z M8,13 C8.55228475,13 9,12.5522847 9,12 C9,11.4477153 8.55228475,11 8,11 C7.44771525,11 7,11.4477153 7,12 C7,12.5522847 7.44771525,13 8,13 Z M12,13 C12.5522847,13 13,12.5522847 13,12 C13,11.4477153 12.5522847,11 12,11 C11.4477153,11 11,11.4477153 11,12 C11,12.5522847 11.4477153,13 12,13 Z M16,13 C16.5522847,13 17,12.5522847 17,12 C17,11.4477153 16.5522847,11 16,11 C15.4477153,11 15,11.4477153 15,12 C15,12.5522847 15.4477153,13 16,13 Z"/>
</svg>
