<svg xmlns="http://www.w3.org/2000/svg" width="24" height="24" viewBox="0 0 24 24">
  <path fill="#3E4042" fill-rule="evenodd" d="M11,10.0000001 L4.00000011,10.0000001 L4.00000011,11.9999999 L11,11.9999999 L11,10.0000001 Z M13,10.0000001 L13,11.9999999 L19.9999999,11.9999999 L19.9999999,10.0000001 L13,10.0000001 Z M11,14 L5.0000001,14 L5.0000001,19.9999999 L11,19.9999999 L11,14 Z M13,14 L13,19.9999999 L18.9999999,19.9999999 L18.9999999,14 L13,14 Z M5.53512774,7.99999996 C5.19478759,7.41165325 4.99999906,6.7285743 4.99999906,6.00000004 C4.99999906,3.79086098 6.79085986,2 8.9999991,2 C10.1946918,2 11.267055,2.52375509 11.9999994,3.35417605 C12.7329439,2.52375507 13.8053071,2 15,2 C17.2091392,2 19,3.79086098 19,6.00000004 C19,6.7285743 18.8052115,7.41165325 18.4648713,7.99999996 L20,7.99999996 C21.2189509,7.99999996 22,8.78104845 22,10 L22,12 C22,12.8434447 21.6260456,13.4772281 20.9918185,13.7876689 C20.9972489,13.8568557 21,13.9276566 21,14 L21,20 C21,21.2189507 20.2189507,22 19,22 L5.00000004,22 C3.78104886,22 2.99999999,21.2189508 2.99999999,20 L2.99999999,14 C2.99999999,13.9276567 3.00275106,13.8568558 3.00818147,13.7876691 C2.37395425,13.4772283 2,12.8434449 2,12 L2,10 C2,8.7810483 2.78104847,7.99999996 4.00000005,7.99999996 L5.53512774,7.99999996 Z M15,7.99999996 C16.1045696,7.99999996 16.9999999,7.10456958 16.9999999,6.00000004 C16.9999999,4.89543049 16.1045696,4.00000011 15,4.00000011 C13.8954303,4.00000011 13.0000001,4.89543045 13.0000001,6.00000004 L13.0000001,7.99999996 L15,7.99999996 Z M10.999999,6.00000004 C10.999999,4.89543067 10.1045685,4.00000011 8.9999991,4.00000011 C7.89542946,4.00000011 6.99999917,4.89543049 6.99999917,6.00000004 C6.99999917,7.10456958 7.89542947,7.99999996 8.9999991,7.99999996 L10.999999,7.99999996 L10.999999,6.00000004 Z"/>
</svg>
