<svg xmlns="http://www.w3.org/2000/svg" width="24" height="24" viewBox="0 0 24 24">
  <path fill="#3E4042" fill-rule="evenodd" d="M17.5857861,15.0857864 C19.6555636,13.016009 20.5,11.5140417 20.5,9.5 C20.5,7.56700346 18.9329967,6.00000019 16.9999998,6 C15.9257001,5.9999999 15.0809181,6.39157263 14.171165,7.19038029 C13.9485826,7.38581845 13.7753372,7.55308991 13.4142136,7.91421356 L12,9.32842712 L10.5857864,7.91421356 C10.2246628,7.55308991 10.0514174,7.38581845 9.82883501,7.19038029 C8.91908187,6.39157263 8.07429995,5.9999999 7.00000019,6 C5.06700333,6.00000019 3.5,7.56700346 3.5,9.5 C3.5,11.514042 4.34443634,13.0160095 6.41421326,15.0857864 C7.45189536,16.1234685 9.32335837,17.3626421 11.9999999,18.7551428 C14.6766412,17.3626421 16.548104,16.1234686 17.5857861,15.0857864 Z M4.9999997,16.5 C3.08876846,14.5887688 1.5,12.5375661 1.5,9.5 C1.5,6.46243388 3.96243388,4.0000003 7,4 C9.5,3.99999976 11,5.5 12,6.5 C13,5.5 14.5,3.99999976 17,4 C20.0375661,4.0000003 22.5,6.46243388 22.5,9.5 C22.5,12.5375661 20.9112309,14.5887688 18.9999997,16.5 C17.6666664,17.8333333 15.3333331,19.3333334 12,21.0000002 C8.66666647,19.3333334 6.33333303,17.8333333 4.9999997,16.5 Z"/>
</svg>
