<svg xmlns="http://www.w3.org/2000/svg" width="24" height="24" viewBox="0 0 24 24">
  <path fill="#3E4042" fill-rule="evenodd" d="M5.95712159,9.70940188 C5.98500619,9.80136391 6,9.89893096 6,10 C6,11.5 6,11.65 6,19 L9,19 L9,15 C9,14.4477153 9.44771525,14 10,14 L14,14 C14.5522847,14 15,14.4477153 15,15 L15,19 L18,19 L18,10 C18,9.89893159 18.0149936,9.80136512 18.0428779,9.70940359 C17.5206551,9.24520554 16.8223968,8.62453142 15.8356351,7.74740985 C13.2527256,5.45148983 12.6465337,4.91265249 11.9999992,4.33795504 L5.95712159,9.70940188 Z M4,11.4490655 L3.66436384,11.7474088 C3.25158107,12.1143268 2.6195087,12.0771461 2.25259068,11.6643633 C1.88567267,11.2515805 1.92285339,10.6195082 2.33563616,10.2525901 L11.3356355,2.25259068 C11.7145216,1.91580307 12.2854773,1.91580311 12.6643633,2.25259078 C13.7893632,3.25259098 13.7893632,3.25259098 17.1643629,6.25259131 C20.5393619,9.25259075 20.5393619,9.25259075 21.6643625,10.2525901 C22.0771453,10.6195082 22.114326,11.2515805 21.747408,11.6643633 C21.38049,12.0771461 20.7484176,12.1143268 20.335635,11.747409 C20.2121936,11.6376834 20.1022969,11.5399975 20,11.449067 L20,20 C20,20.5522847 19.5522847,21 19,21 L14,21 C13.4477153,21 13,20.5522847 13,20 L13,16 L11,16 L11,20 C11,20.5522847 10.5522847,21 10,21 L5,21 C4.44771525,21 4,20.5522847 4,20 L4,11.4490655 Z"/>
</svg>
