<svg xmlns="http://www.w3.org/2000/svg" width="24" height="24" viewBox="0 0 24 24">
  <path fill="#3E4042" fill-rule="evenodd" d="M11.9999993,7.99999952 C13.0999995,7.99999952 13.9999992,7.09999947 13.9999992,5.99999964 C13.9999992,4.8999998 13.0999995,3.99999976 11.9999993,3.99999976 C10.8999989,3.99999976 9.9999994,4.8999998 9.9999994,5.99999964 C9.9999994,7.09999947 10.8999989,7.99999952 11.9999993,7.99999952 Z M11.9999993,9.9999994 C10.8999989,9.9999994 9.9999994,10.8999989 9.9999994,11.9999993 C9.9999994,13.0999995 10.8999989,13.9999992 11.9999993,13.9999992 C13.0999995,13.9999992 13.9999992,13.0999995 13.9999992,11.9999993 C13.9999992,10.8999989 13.0999995,9.9999994 11.9999993,9.9999994 Z M11.9999993,15.999999 C10.8999989,15.999999 9.9999994,16.8999986 9.9999994,17.9999989 C9.9999994,19.0999992 10.8999989,19.9999988 11.9999993,19.9999988 C13.0999995,19.9999988 13.9999992,19.0999992 13.9999992,17.9999989 C13.9999992,16.8999986 13.0999995,15.999999 11.9999993,15.999999 Z"/>
</svg>
