<svg xmlns="http://www.w3.org/2000/svg" width="24" height="24" viewBox="0 0 24 24">
  <path fill="#3E4042" fill-rule="evenodd" d="M21,14.0000002 L19,14.0000002 L19,5 L5,5 L5,18 L15.0000002,18 L15.0000002,20 L4,20 C3.44771525,20 3,19.5771578 3,19.0555556 L3,3.94444444 C3,3.42284218 3.44771525,3 4,3 L20,3 C20.5522847,3 21,3.42284218 21,3.94444444 L21,14.0000002 Z M9,12.4999994 L10.9999995,14.5099994 L14.4999993,9.99999946 L17.0000002,12.9999993 L17.0000002,15.9999991 L5.99999988,15.9999991 L9,12.4999994 Z M19.0000002,18.0000002 L19.0000002,16.0000002 L21.0000002,16.0000002 L21.0000002,18.0000002 L23.0000002,18.0000002 L23.0000002,20.0000002 L21.0000002,20.0000002 L21.0000002,22.0000002 L19.0000002,22.0000002 L19.0000002,20.0000002 L17.0000002,20.0000002 L17.0000002,18.0000002 L19.0000002,18.0000002 Z"/>
</svg>
