<svg xmlns="http://www.w3.org/2000/svg" xmlns:xlink="http://www.w3.org/1999/xlink" width="24" height="24" viewBox="0 0 24 24">
  <defs>
    <path id="receipt-a" d="M19,2 C19.552,2 20,2.447 20,3 L20,21 C20,21.369 19.797,21.708 19.472,21.882 C19.147,22.055 18.752,22.036 18.445,21.832 L16.127,20.287 L14.707,21.707 C14.512,21.903 14.256,22 14,22 C13.744,22 13.488,21.903 13.293,21.707 L12,20.414 L10.707,21.707 C10.316,22.098 9.684,22.098 9.293,21.707 L7.873,20.287 L5.555,21.832 C5.248,22.036 4.852,22.055 4.528,21.882 C4.203,21.708 4,21.369 4,21 L4,3 C4,2.447 4.448,2 5,2 L19,2 Z M18,19.132 L18,4 L6,4 L6,19.132 L7.445,18.168 C7.843,17.903 8.371,17.956 8.707,18.293 L10,19.586 L11.293,18.293 C11.488,18.098 11.744,18 12,18 C12.256,18 12.512,18.098 12.707,18.293 L14,19.586 L15.293,18.293 C15.63,17.955 16.157,17.903 16.555,18.168 L18,19.132 Z M9,6 L15,6 C15.5522847,6 16,6.44771525 16,7 C16,7.55228475 15.5522847,8 15,8 L9,8 C8.44771525,8 8,7.55228475 8,7 C8,6.44771525 8.44771525,6 9,6 Z M9,10 L15,10 C15.5522847,10 16,10.4477153 16,11 C16,11.5522847 15.5522847,12 15,12 L9,12 C8.44771525,12 8,11.5522847 8,11 C8,10.4477153 8.44771525,10 9,10 Z M9,14 L15,14 C15.5522847,14 16,14.4477153 16,15 C16,15.5522847 15.5522847,16 15,16 L9,16 C8.44771525,16 8,15.5522847 8,15 C8,14.4477153 8.44771525,14 9,14 Z"/>
  </defs>
  <use fill="#3E4042" fill-rule="evenodd" xlink:href="#receipt-a"/>
</svg>
