<svg xmlns="http://www.w3.org/2000/svg" width="24" height="24" viewBox="0 0 24 24">
  <path fill="#3E4042" fill-rule="evenodd" d="M7,15 L15,15 L15,17 L6,17 L6,19 L18,19 L18,17 L17,17 L17,13 C17,10.2385763 14.7614237,8 12,8 C9.23857625,8 7,10.2385763 7,13 L7,15 Z M19,15 L20,15 L20,21 L4,21 L4,15 L5,15 L5,13 C5,9.13400675 8.13400675,6 12,6 C15.8659932,6 19,9.13400675 19,13 L19,15 Z M12,0 C12.5522847,-1.01453063e-16 13,0.44771525 13,1 L13,3 C13,3.55228475 12.5522847,4 12,4 C11.4477153,4 11,3.55228475 11,3 L11,1 C11,0.44771525 11.4477153,1.01453063e-16 12,0 Z M21.1923882,3.80761184 C21.5829124,4.19813614 21.5829124,4.83130112 21.1923882,5.22182541 L19.7781746,6.63603897 C19.3876503,7.02656326 18.7544853,7.02656326 18.363961,6.63603897 C17.9734367,6.24551468 17.9734367,5.6123497 18.363961,5.22182541 L19.7781746,3.80761184 C20.1686989,3.41708755 20.8018639,3.41708755 21.1923882,3.80761184 Z M2.80761184,3.80761184 C3.19813614,3.41708755 3.83130112,3.41708755 4.22182541,3.80761184 L5.63603897,5.22182541 C6.02656326,5.6123497 6.02656326,6.24551468 5.63603897,6.63603897 C5.24551468,7.02656326 4.6123497,7.02656326 4.22182541,6.63603897 L2.80761184,5.22182541 C2.41708755,4.83130112 2.41708755,4.19813614 2.80761184,3.80761184 Z"/>
</svg>
