<svg xmlns="http://www.w3.org/2000/svg" width="24" height="24" viewBox="0 0 24 24">
  <path fill="#3E4042" fill-rule="evenodd" d="M4.38742589,8 L19.6125741,8 L18.2792408,4 L5.72075922,4 L4.38742589,8 Z M20,10 L4,10 C4,11.1045695 4.8954305,12 6,12 C7.1045695,12 8,11.1045695 8,10 L10,10 C10,11.1045695 10.8954305,12 12,12 C13.1045695,12 14,11.1045695 14,10 L16,10 C16,11.1045695 16.8954305,12 18,12 C19.1045695,12 20,11.1045695 20,10 Z M6,14 L6,20 L18,20 L18,14 C16.8053075,14 15.7329445,13.4762451 15,12.6458244 C14.2670555,13.4762451 13.1946925,14 12,14 C10.8053075,14 9.73294445,13.4762451 9,12.6458244 C8.26705555,13.4762451 7.19469253,14 6,14 Z M20,13.4648712 L20,21.2857143 C20,21.6802034 19.5522847,22 19,22 L5,22 C4.44771525,22 4,21.6802034 4,21.2857143 L4,13.4648712 C2.80439726,12.7732524 2,11.4805647 2,10 L2,9 C2,8.8925179 2.01732788,8.7857387 2.0513167,8.68377223 L4.0513167,2.68377223 C4.18743075,2.27543009 4.56956959,2 5,2 L19,2 C19.4304304,2 19.8125693,2.27543009 19.9486833,2.68377223 L21.9486833,8.68377223 C21.9826721,8.7857387 22,8.8925179 22,9 L22,10 C22,11.4805647 21.1956027,12.7732524 20,13.4648712 Z"/>
</svg>
