<svg xmlns="http://www.w3.org/2000/svg" width="36" height="36" viewBox="0 0 36 36">
  <path fill="#3E4042" fill-rule="evenodd" d="M4.99999982,13.9999996 L4.99999982,21.9999996 L8.99999982,21.9999996 C9.39484979,21.9999996 9.78086518,22.1168757 10.1094002,22.3358991 L15.9999998,26.2629655 L15.9999998,9.73703382 L10.1094002,13.6641002 C9.78086518,13.8831236 9.39484979,13.9999996 8.99999982,13.9999996 L4.99999982,13.9999996 Z M2.99999982,13.495545 C2.99999982,12.6695777 3.66502957,11.9999996 4.51405315,11.9999996 L8.99999982,11.9999996 L16.4452996,7.03646644 C16.9048283,6.73011398 17.5256977,6.85428785 17.8320501,7.31381654 C17.9415618,7.47808405 17.9999998,7.67109175 17.9999998,7.86851673 L17.9999998,28.1314825 C17.9999998,28.6837673 17.5522846,29.1314825 16.9999998,29.1314825 C16.8025748,29.1314825 16.6095671,29.0730445 16.4452996,28.9635328 L8.99999982,23.9999996 L4.51405315,23.9999996 C3.67786449,23.9999996 2.99999982,23.320445 2.99999982,22.5044542 L2.99999982,13.495545 Z M21.8999986,12.7999993 C21.4581708,12.4686284 21.3686277,11.8418271 21.6999986,11.3999993 C22.0313694,10.9581715 22.6581708,10.8686284 23.0999986,11.1999993 C23.5488409,11.5366311 24.1810185,12.1424679 24.8087346,13.0055776 C25.862165,14.4540443 26.4999986,16.1283574 26.4999986,17.9999993 C26.4999986,19.8716411 25.862165,21.5459542 24.8087346,22.994421 C24.1810185,23.8575306 23.5488409,24.4633675 23.0999986,24.7999993 C22.6581708,25.1313701 22.0313694,25.0418271 21.6999986,24.5999993 C21.3686277,24.1581715 21.4581708,23.5313701 21.8999986,23.1999993 C21.9629098,23.1528159 22.0964011,23.0407785 22.2768432,22.8678548 C22.5874831,22.5701583 22.899947,22.2186364 23.1912625,21.8180776 C24.0128321,20.6884193 24.4999986,19.4096074 24.4999986,17.9999993 C24.4999986,16.5903911 24.0128321,15.3115792 23.1912625,14.181921 C22.899947,13.7813622 22.5874831,13.4298403 22.2768432,13.1321437 C22.0964011,12.95922 21.9629098,12.8471827 21.8999986,12.7999993 Z M22.9134727,30.9528754 C22.3872131,31.1204145 21.8247783,30.829614 21.6572392,30.3033545 C21.4897001,29.7770949 21.7805006,29.2146601 22.3067601,29.047121 C26.8749747,27.5927923 30.499998,22.8002968 30.499998,17.9999989 C30.499998,13.2312905 26.8581924,8.42617589 22.3021515,6.95139734 C21.776709,6.781313 21.4886344,6.21747713 21.6587187,5.69203469 C21.828803,5.16659225 22.3926389,4.87851759 22.9180814,5.04860194 C28.2845609,6.78571733 32.499998,12.3476997 32.499998,17.9999989 C32.499998,23.6846111 28.2992299,29.2382753 22.9134727,30.9528754 Z"/>
</svg>
